G04 #@! TF.GenerationSoftware,KiCad,Pcbnew,(5.1.10)-1*
G04 #@! TF.CreationDate,2021-07-31T08:12:49+01:00*
G04 #@! TF.ProjectId,STM32Pico,53544d33-3250-4696-936f-2e6b69636164,REV1*
G04 #@! TF.SameCoordinates,Original*
G04 #@! TF.FileFunction,Paste,Top*
G04 #@! TF.FilePolarity,Positive*
%FSLAX46Y46*%
G04 Gerber Fmt 4.6, Leading zero omitted, Abs format (unit mm)*
G04 Created by KiCad (PCBNEW (5.1.10)-1) date 2021-07-31 08:12:49*
%MOMM*%
%LPD*%
G01*
G04 APERTURE LIST*
%ADD10R,0.600000X1.450000*%
%ADD11R,0.300000X1.450000*%
%ADD12R,0.800000X0.900000*%
G04 APERTURE END LIST*
D10*
X100415000Y-64972200D03*
X106865000Y-64972200D03*
X101190000Y-64972200D03*
X106090000Y-64972200D03*
D11*
X105390000Y-64972200D03*
X101890000Y-64972200D03*
X104890000Y-64972200D03*
X102390000Y-64972200D03*
X104390000Y-64972200D03*
X102890000Y-64972200D03*
X103390000Y-64972200D03*
X103890000Y-64972200D03*
G36*
G01*
X106284040Y-93005480D02*
X104684040Y-93005480D01*
G75*
G02*
X104484040Y-92805480I0J200000D01*
G01*
X104484040Y-92405480D01*
G75*
G02*
X104684040Y-92205480I200000J0D01*
G01*
X106284040Y-92205480D01*
G75*
G02*
X106484040Y-92405480I0J-200000D01*
G01*
X106484040Y-92805480D01*
G75*
G02*
X106284040Y-93005480I-200000J0D01*
G01*
G37*
G36*
G01*
X106284040Y-88805480D02*
X104684040Y-88805480D01*
G75*
G02*
X104484040Y-88605480I0J200000D01*
G01*
X104484040Y-88205480D01*
G75*
G02*
X104684040Y-88005480I200000J0D01*
G01*
X106284040Y-88005480D01*
G75*
G02*
X106484040Y-88205480I0J-200000D01*
G01*
X106484040Y-88605480D01*
G75*
G02*
X106284040Y-88805480I-200000J0D01*
G01*
G37*
G36*
G01*
X97429800Y-86362100D02*
X99029800Y-86362100D01*
G75*
G02*
X99229800Y-86562100I0J-200000D01*
G01*
X99229800Y-86962100D01*
G75*
G02*
X99029800Y-87162100I-200000J0D01*
G01*
X97429800Y-87162100D01*
G75*
G02*
X97229800Y-86962100I0J200000D01*
G01*
X97229800Y-86562100D01*
G75*
G02*
X97429800Y-86362100I200000J0D01*
G01*
G37*
G36*
G01*
X97429800Y-90562100D02*
X99029800Y-90562100D01*
G75*
G02*
X99229800Y-90762100I0J-200000D01*
G01*
X99229800Y-91162100D01*
G75*
G02*
X99029800Y-91362100I-200000J0D01*
G01*
X97429800Y-91362100D01*
G75*
G02*
X97229800Y-91162100I0J200000D01*
G01*
X97229800Y-90762100D01*
G75*
G02*
X97429800Y-90562100I200000J0D01*
G01*
G37*
G36*
G01*
X101968800Y-87829340D02*
X101968800Y-88329340D01*
G75*
G02*
X101768800Y-88529340I-200000J0D01*
G01*
X101368800Y-88529340D01*
G75*
G02*
X101168800Y-88329340I0J200000D01*
G01*
X101168800Y-87829340D01*
G75*
G02*
X101368800Y-87629340I200000J0D01*
G01*
X101768800Y-87629340D01*
G75*
G02*
X101968800Y-87829340I0J-200000D01*
G01*
G37*
G36*
G01*
X103418800Y-87829340D02*
X103418800Y-88329340D01*
G75*
G02*
X103218800Y-88529340I-200000J0D01*
G01*
X102818800Y-88529340D01*
G75*
G02*
X102618800Y-88329340I0J200000D01*
G01*
X102618800Y-87829340D01*
G75*
G02*
X102818800Y-87629340I200000J0D01*
G01*
X103218800Y-87629340D01*
G75*
G02*
X103418800Y-87829340I0J-200000D01*
G01*
G37*
G36*
G01*
X101968800Y-89679340D02*
X101968800Y-90179340D01*
G75*
G02*
X101768800Y-90379340I-200000J0D01*
G01*
X101368800Y-90379340D01*
G75*
G02*
X101168800Y-90179340I0J200000D01*
G01*
X101168800Y-89679340D01*
G75*
G02*
X101368800Y-89479340I200000J0D01*
G01*
X101768800Y-89479340D01*
G75*
G02*
X101968800Y-89679340I0J-200000D01*
G01*
G37*
G36*
G01*
X103418800Y-89679340D02*
X103418800Y-90179340D01*
G75*
G02*
X103218800Y-90379340I-200000J0D01*
G01*
X102818800Y-90379340D01*
G75*
G02*
X102618800Y-90179340I0J200000D01*
G01*
X102618800Y-89679340D01*
G75*
G02*
X102818800Y-89479340I200000J0D01*
G01*
X103218800Y-89479340D01*
G75*
G02*
X103418800Y-89679340I0J-200000D01*
G01*
G37*
D12*
X99855400Y-69193100D03*
X100805400Y-71193100D03*
X98905400Y-71193100D03*
G36*
G01*
X106055000Y-80339560D02*
X105425000Y-80339560D01*
G75*
G02*
X105175000Y-80089560I0J250000D01*
G01*
X105175000Y-79459560D01*
G75*
G02*
X105425000Y-79209560I250000J0D01*
G01*
X106055000Y-79209560D01*
G75*
G02*
X106305000Y-79459560I0J-250000D01*
G01*
X106305000Y-80089560D01*
G75*
G02*
X106055000Y-80339560I-250000J0D01*
G01*
G37*
G36*
G01*
X104655000Y-80339560D02*
X104025000Y-80339560D01*
G75*
G02*
X103775000Y-80089560I0J250000D01*
G01*
X103775000Y-79459560D01*
G75*
G02*
X104025000Y-79209560I250000J0D01*
G01*
X104655000Y-79209560D01*
G75*
G02*
X104905000Y-79459560I0J-250000D01*
G01*
X104905000Y-80089560D01*
G75*
G02*
X104655000Y-80339560I-250000J0D01*
G01*
G37*
G36*
G01*
X103255000Y-80339560D02*
X102625000Y-80339560D01*
G75*
G02*
X102375000Y-80089560I0J250000D01*
G01*
X102375000Y-79459560D01*
G75*
G02*
X102625000Y-79209560I250000J0D01*
G01*
X103255000Y-79209560D01*
G75*
G02*
X103505000Y-79459560I0J-250000D01*
G01*
X103505000Y-80089560D01*
G75*
G02*
X103255000Y-80339560I-250000J0D01*
G01*
G37*
G36*
G01*
X101855000Y-80339560D02*
X101225000Y-80339560D01*
G75*
G02*
X100975000Y-80089560I0J250000D01*
G01*
X100975000Y-79459560D01*
G75*
G02*
X101225000Y-79209560I250000J0D01*
G01*
X101855000Y-79209560D01*
G75*
G02*
X102105000Y-79459560I0J-250000D01*
G01*
X102105000Y-80089560D01*
G75*
G02*
X101855000Y-80339560I-250000J0D01*
G01*
G37*
G36*
G01*
X106055000Y-81739560D02*
X105425000Y-81739560D01*
G75*
G02*
X105175000Y-81489560I0J250000D01*
G01*
X105175000Y-80859560D01*
G75*
G02*
X105425000Y-80609560I250000J0D01*
G01*
X106055000Y-80609560D01*
G75*
G02*
X106305000Y-80859560I0J-250000D01*
G01*
X106305000Y-81489560D01*
G75*
G02*
X106055000Y-81739560I-250000J0D01*
G01*
G37*
G36*
G01*
X104655000Y-81739560D02*
X104025000Y-81739560D01*
G75*
G02*
X103775000Y-81489560I0J250000D01*
G01*
X103775000Y-80859560D01*
G75*
G02*
X104025000Y-80609560I250000J0D01*
G01*
X104655000Y-80609560D01*
G75*
G02*
X104905000Y-80859560I0J-250000D01*
G01*
X104905000Y-81489560D01*
G75*
G02*
X104655000Y-81739560I-250000J0D01*
G01*
G37*
G36*
G01*
X103255000Y-81739560D02*
X102625000Y-81739560D01*
G75*
G02*
X102375000Y-81489560I0J250000D01*
G01*
X102375000Y-80859560D01*
G75*
G02*
X102625000Y-80609560I250000J0D01*
G01*
X103255000Y-80609560D01*
G75*
G02*
X103505000Y-80859560I0J-250000D01*
G01*
X103505000Y-81489560D01*
G75*
G02*
X103255000Y-81739560I-250000J0D01*
G01*
G37*
G36*
G01*
X101855000Y-81739560D02*
X101225000Y-81739560D01*
G75*
G02*
X100975000Y-81489560I0J250000D01*
G01*
X100975000Y-80859560D01*
G75*
G02*
X101225000Y-80609560I250000J0D01*
G01*
X101855000Y-80609560D01*
G75*
G02*
X102105000Y-80859560I0J-250000D01*
G01*
X102105000Y-81489560D01*
G75*
G02*
X101855000Y-81739560I-250000J0D01*
G01*
G37*
G36*
G01*
X106055000Y-83139560D02*
X105425000Y-83139560D01*
G75*
G02*
X105175000Y-82889560I0J250000D01*
G01*
X105175000Y-82259560D01*
G75*
G02*
X105425000Y-82009560I250000J0D01*
G01*
X106055000Y-82009560D01*
G75*
G02*
X106305000Y-82259560I0J-250000D01*
G01*
X106305000Y-82889560D01*
G75*
G02*
X106055000Y-83139560I-250000J0D01*
G01*
G37*
G36*
G01*
X104655000Y-83139560D02*
X104025000Y-83139560D01*
G75*
G02*
X103775000Y-82889560I0J250000D01*
G01*
X103775000Y-82259560D01*
G75*
G02*
X104025000Y-82009560I250000J0D01*
G01*
X104655000Y-82009560D01*
G75*
G02*
X104905000Y-82259560I0J-250000D01*
G01*
X104905000Y-82889560D01*
G75*
G02*
X104655000Y-83139560I-250000J0D01*
G01*
G37*
G36*
G01*
X103255000Y-83139560D02*
X102625000Y-83139560D01*
G75*
G02*
X102375000Y-82889560I0J250000D01*
G01*
X102375000Y-82259560D01*
G75*
G02*
X102625000Y-82009560I250000J0D01*
G01*
X103255000Y-82009560D01*
G75*
G02*
X103505000Y-82259560I0J-250000D01*
G01*
X103505000Y-82889560D01*
G75*
G02*
X103255000Y-83139560I-250000J0D01*
G01*
G37*
G36*
G01*
X101855000Y-83139560D02*
X101225000Y-83139560D01*
G75*
G02*
X100975000Y-82889560I0J250000D01*
G01*
X100975000Y-82259560D01*
G75*
G02*
X101225000Y-82009560I250000J0D01*
G01*
X101855000Y-82009560D01*
G75*
G02*
X102105000Y-82259560I0J-250000D01*
G01*
X102105000Y-82889560D01*
G75*
G02*
X101855000Y-83139560I-250000J0D01*
G01*
G37*
G36*
G01*
X106055000Y-84539560D02*
X105425000Y-84539560D01*
G75*
G02*
X105175000Y-84289560I0J250000D01*
G01*
X105175000Y-83659560D01*
G75*
G02*
X105425000Y-83409560I250000J0D01*
G01*
X106055000Y-83409560D01*
G75*
G02*
X106305000Y-83659560I0J-250000D01*
G01*
X106305000Y-84289560D01*
G75*
G02*
X106055000Y-84539560I-250000J0D01*
G01*
G37*
G36*
G01*
X104655000Y-84539560D02*
X104025000Y-84539560D01*
G75*
G02*
X103775000Y-84289560I0J250000D01*
G01*
X103775000Y-83659560D01*
G75*
G02*
X104025000Y-83409560I250000J0D01*
G01*
X104655000Y-83409560D01*
G75*
G02*
X104905000Y-83659560I0J-250000D01*
G01*
X104905000Y-84289560D01*
G75*
G02*
X104655000Y-84539560I-250000J0D01*
G01*
G37*
G36*
G01*
X103255000Y-84539560D02*
X102625000Y-84539560D01*
G75*
G02*
X102375000Y-84289560I0J250000D01*
G01*
X102375000Y-83659560D01*
G75*
G02*
X102625000Y-83409560I250000J0D01*
G01*
X103255000Y-83409560D01*
G75*
G02*
X103505000Y-83659560I0J-250000D01*
G01*
X103505000Y-84289560D01*
G75*
G02*
X103255000Y-84539560I-250000J0D01*
G01*
G37*
G36*
G01*
X101855000Y-84539560D02*
X101225000Y-84539560D01*
G75*
G02*
X100975000Y-84289560I0J250000D01*
G01*
X100975000Y-83659560D01*
G75*
G02*
X101225000Y-83409560I250000J0D01*
G01*
X101855000Y-83409560D01*
G75*
G02*
X102105000Y-83659560I0J-250000D01*
G01*
X102105000Y-84289560D01*
G75*
G02*
X101855000Y-84539560I-250000J0D01*
G01*
G37*
G36*
G01*
X100577500Y-84749560D02*
X99827500Y-84749560D01*
G75*
G02*
X99765000Y-84687060I0J62500D01*
G01*
X99765000Y-84562060D01*
G75*
G02*
X99827500Y-84499560I62500J0D01*
G01*
X100577500Y-84499560D01*
G75*
G02*
X100640000Y-84562060I0J-62500D01*
G01*
X100640000Y-84687060D01*
G75*
G02*
X100577500Y-84749560I-62500J0D01*
G01*
G37*
G36*
G01*
X100577500Y-84249560D02*
X99827500Y-84249560D01*
G75*
G02*
X99765000Y-84187060I0J62500D01*
G01*
X99765000Y-84062060D01*
G75*
G02*
X99827500Y-83999560I62500J0D01*
G01*
X100577500Y-83999560D01*
G75*
G02*
X100640000Y-84062060I0J-62500D01*
G01*
X100640000Y-84187060D01*
G75*
G02*
X100577500Y-84249560I-62500J0D01*
G01*
G37*
G36*
G01*
X100577500Y-83749560D02*
X99827500Y-83749560D01*
G75*
G02*
X99765000Y-83687060I0J62500D01*
G01*
X99765000Y-83562060D01*
G75*
G02*
X99827500Y-83499560I62500J0D01*
G01*
X100577500Y-83499560D01*
G75*
G02*
X100640000Y-83562060I0J-62500D01*
G01*
X100640000Y-83687060D01*
G75*
G02*
X100577500Y-83749560I-62500J0D01*
G01*
G37*
G36*
G01*
X100577500Y-83249560D02*
X99827500Y-83249560D01*
G75*
G02*
X99765000Y-83187060I0J62500D01*
G01*
X99765000Y-83062060D01*
G75*
G02*
X99827500Y-82999560I62500J0D01*
G01*
X100577500Y-82999560D01*
G75*
G02*
X100640000Y-83062060I0J-62500D01*
G01*
X100640000Y-83187060D01*
G75*
G02*
X100577500Y-83249560I-62500J0D01*
G01*
G37*
G36*
G01*
X100577500Y-82749560D02*
X99827500Y-82749560D01*
G75*
G02*
X99765000Y-82687060I0J62500D01*
G01*
X99765000Y-82562060D01*
G75*
G02*
X99827500Y-82499560I62500J0D01*
G01*
X100577500Y-82499560D01*
G75*
G02*
X100640000Y-82562060I0J-62500D01*
G01*
X100640000Y-82687060D01*
G75*
G02*
X100577500Y-82749560I-62500J0D01*
G01*
G37*
G36*
G01*
X100577500Y-82249560D02*
X99827500Y-82249560D01*
G75*
G02*
X99765000Y-82187060I0J62500D01*
G01*
X99765000Y-82062060D01*
G75*
G02*
X99827500Y-81999560I62500J0D01*
G01*
X100577500Y-81999560D01*
G75*
G02*
X100640000Y-82062060I0J-62500D01*
G01*
X100640000Y-82187060D01*
G75*
G02*
X100577500Y-82249560I-62500J0D01*
G01*
G37*
G36*
G01*
X100577500Y-81749560D02*
X99827500Y-81749560D01*
G75*
G02*
X99765000Y-81687060I0J62500D01*
G01*
X99765000Y-81562060D01*
G75*
G02*
X99827500Y-81499560I62500J0D01*
G01*
X100577500Y-81499560D01*
G75*
G02*
X100640000Y-81562060I0J-62500D01*
G01*
X100640000Y-81687060D01*
G75*
G02*
X100577500Y-81749560I-62500J0D01*
G01*
G37*
G36*
G01*
X100577500Y-81249560D02*
X99827500Y-81249560D01*
G75*
G02*
X99765000Y-81187060I0J62500D01*
G01*
X99765000Y-81062060D01*
G75*
G02*
X99827500Y-80999560I62500J0D01*
G01*
X100577500Y-80999560D01*
G75*
G02*
X100640000Y-81062060I0J-62500D01*
G01*
X100640000Y-81187060D01*
G75*
G02*
X100577500Y-81249560I-62500J0D01*
G01*
G37*
G36*
G01*
X100577500Y-80749560D02*
X99827500Y-80749560D01*
G75*
G02*
X99765000Y-80687060I0J62500D01*
G01*
X99765000Y-80562060D01*
G75*
G02*
X99827500Y-80499560I62500J0D01*
G01*
X100577500Y-80499560D01*
G75*
G02*
X100640000Y-80562060I0J-62500D01*
G01*
X100640000Y-80687060D01*
G75*
G02*
X100577500Y-80749560I-62500J0D01*
G01*
G37*
G36*
G01*
X100577500Y-80249560D02*
X99827500Y-80249560D01*
G75*
G02*
X99765000Y-80187060I0J62500D01*
G01*
X99765000Y-80062060D01*
G75*
G02*
X99827500Y-79999560I62500J0D01*
G01*
X100577500Y-79999560D01*
G75*
G02*
X100640000Y-80062060I0J-62500D01*
G01*
X100640000Y-80187060D01*
G75*
G02*
X100577500Y-80249560I-62500J0D01*
G01*
G37*
G36*
G01*
X100577500Y-79749560D02*
X99827500Y-79749560D01*
G75*
G02*
X99765000Y-79687060I0J62500D01*
G01*
X99765000Y-79562060D01*
G75*
G02*
X99827500Y-79499560I62500J0D01*
G01*
X100577500Y-79499560D01*
G75*
G02*
X100640000Y-79562060I0J-62500D01*
G01*
X100640000Y-79687060D01*
G75*
G02*
X100577500Y-79749560I-62500J0D01*
G01*
G37*
G36*
G01*
X100577500Y-79249560D02*
X99827500Y-79249560D01*
G75*
G02*
X99765000Y-79187060I0J62500D01*
G01*
X99765000Y-79062060D01*
G75*
G02*
X99827500Y-78999560I62500J0D01*
G01*
X100577500Y-78999560D01*
G75*
G02*
X100640000Y-79062060I0J-62500D01*
G01*
X100640000Y-79187060D01*
G75*
G02*
X100577500Y-79249560I-62500J0D01*
G01*
G37*
G36*
G01*
X100952500Y-78874560D02*
X100827500Y-78874560D01*
G75*
G02*
X100765000Y-78812060I0J62500D01*
G01*
X100765000Y-78062060D01*
G75*
G02*
X100827500Y-77999560I62500J0D01*
G01*
X100952500Y-77999560D01*
G75*
G02*
X101015000Y-78062060I0J-62500D01*
G01*
X101015000Y-78812060D01*
G75*
G02*
X100952500Y-78874560I-62500J0D01*
G01*
G37*
G36*
G01*
X101452500Y-78874560D02*
X101327500Y-78874560D01*
G75*
G02*
X101265000Y-78812060I0J62500D01*
G01*
X101265000Y-78062060D01*
G75*
G02*
X101327500Y-77999560I62500J0D01*
G01*
X101452500Y-77999560D01*
G75*
G02*
X101515000Y-78062060I0J-62500D01*
G01*
X101515000Y-78812060D01*
G75*
G02*
X101452500Y-78874560I-62500J0D01*
G01*
G37*
G36*
G01*
X101952500Y-78874560D02*
X101827500Y-78874560D01*
G75*
G02*
X101765000Y-78812060I0J62500D01*
G01*
X101765000Y-78062060D01*
G75*
G02*
X101827500Y-77999560I62500J0D01*
G01*
X101952500Y-77999560D01*
G75*
G02*
X102015000Y-78062060I0J-62500D01*
G01*
X102015000Y-78812060D01*
G75*
G02*
X101952500Y-78874560I-62500J0D01*
G01*
G37*
G36*
G01*
X102452500Y-78874560D02*
X102327500Y-78874560D01*
G75*
G02*
X102265000Y-78812060I0J62500D01*
G01*
X102265000Y-78062060D01*
G75*
G02*
X102327500Y-77999560I62500J0D01*
G01*
X102452500Y-77999560D01*
G75*
G02*
X102515000Y-78062060I0J-62500D01*
G01*
X102515000Y-78812060D01*
G75*
G02*
X102452500Y-78874560I-62500J0D01*
G01*
G37*
G36*
G01*
X102952500Y-78874560D02*
X102827500Y-78874560D01*
G75*
G02*
X102765000Y-78812060I0J62500D01*
G01*
X102765000Y-78062060D01*
G75*
G02*
X102827500Y-77999560I62500J0D01*
G01*
X102952500Y-77999560D01*
G75*
G02*
X103015000Y-78062060I0J-62500D01*
G01*
X103015000Y-78812060D01*
G75*
G02*
X102952500Y-78874560I-62500J0D01*
G01*
G37*
G36*
G01*
X103452500Y-78874560D02*
X103327500Y-78874560D01*
G75*
G02*
X103265000Y-78812060I0J62500D01*
G01*
X103265000Y-78062060D01*
G75*
G02*
X103327500Y-77999560I62500J0D01*
G01*
X103452500Y-77999560D01*
G75*
G02*
X103515000Y-78062060I0J-62500D01*
G01*
X103515000Y-78812060D01*
G75*
G02*
X103452500Y-78874560I-62500J0D01*
G01*
G37*
G36*
G01*
X103952500Y-78874560D02*
X103827500Y-78874560D01*
G75*
G02*
X103765000Y-78812060I0J62500D01*
G01*
X103765000Y-78062060D01*
G75*
G02*
X103827500Y-77999560I62500J0D01*
G01*
X103952500Y-77999560D01*
G75*
G02*
X104015000Y-78062060I0J-62500D01*
G01*
X104015000Y-78812060D01*
G75*
G02*
X103952500Y-78874560I-62500J0D01*
G01*
G37*
G36*
G01*
X104452500Y-78874560D02*
X104327500Y-78874560D01*
G75*
G02*
X104265000Y-78812060I0J62500D01*
G01*
X104265000Y-78062060D01*
G75*
G02*
X104327500Y-77999560I62500J0D01*
G01*
X104452500Y-77999560D01*
G75*
G02*
X104515000Y-78062060I0J-62500D01*
G01*
X104515000Y-78812060D01*
G75*
G02*
X104452500Y-78874560I-62500J0D01*
G01*
G37*
G36*
G01*
X104952500Y-78874560D02*
X104827500Y-78874560D01*
G75*
G02*
X104765000Y-78812060I0J62500D01*
G01*
X104765000Y-78062060D01*
G75*
G02*
X104827500Y-77999560I62500J0D01*
G01*
X104952500Y-77999560D01*
G75*
G02*
X105015000Y-78062060I0J-62500D01*
G01*
X105015000Y-78812060D01*
G75*
G02*
X104952500Y-78874560I-62500J0D01*
G01*
G37*
G36*
G01*
X105452500Y-78874560D02*
X105327500Y-78874560D01*
G75*
G02*
X105265000Y-78812060I0J62500D01*
G01*
X105265000Y-78062060D01*
G75*
G02*
X105327500Y-77999560I62500J0D01*
G01*
X105452500Y-77999560D01*
G75*
G02*
X105515000Y-78062060I0J-62500D01*
G01*
X105515000Y-78812060D01*
G75*
G02*
X105452500Y-78874560I-62500J0D01*
G01*
G37*
G36*
G01*
X105952500Y-78874560D02*
X105827500Y-78874560D01*
G75*
G02*
X105765000Y-78812060I0J62500D01*
G01*
X105765000Y-78062060D01*
G75*
G02*
X105827500Y-77999560I62500J0D01*
G01*
X105952500Y-77999560D01*
G75*
G02*
X106015000Y-78062060I0J-62500D01*
G01*
X106015000Y-78812060D01*
G75*
G02*
X105952500Y-78874560I-62500J0D01*
G01*
G37*
G36*
G01*
X106452500Y-78874560D02*
X106327500Y-78874560D01*
G75*
G02*
X106265000Y-78812060I0J62500D01*
G01*
X106265000Y-78062060D01*
G75*
G02*
X106327500Y-77999560I62500J0D01*
G01*
X106452500Y-77999560D01*
G75*
G02*
X106515000Y-78062060I0J-62500D01*
G01*
X106515000Y-78812060D01*
G75*
G02*
X106452500Y-78874560I-62500J0D01*
G01*
G37*
G36*
G01*
X107452500Y-79249560D02*
X106702500Y-79249560D01*
G75*
G02*
X106640000Y-79187060I0J62500D01*
G01*
X106640000Y-79062060D01*
G75*
G02*
X106702500Y-78999560I62500J0D01*
G01*
X107452500Y-78999560D01*
G75*
G02*
X107515000Y-79062060I0J-62500D01*
G01*
X107515000Y-79187060D01*
G75*
G02*
X107452500Y-79249560I-62500J0D01*
G01*
G37*
G36*
G01*
X107452500Y-79749560D02*
X106702500Y-79749560D01*
G75*
G02*
X106640000Y-79687060I0J62500D01*
G01*
X106640000Y-79562060D01*
G75*
G02*
X106702500Y-79499560I62500J0D01*
G01*
X107452500Y-79499560D01*
G75*
G02*
X107515000Y-79562060I0J-62500D01*
G01*
X107515000Y-79687060D01*
G75*
G02*
X107452500Y-79749560I-62500J0D01*
G01*
G37*
G36*
G01*
X107452500Y-80249560D02*
X106702500Y-80249560D01*
G75*
G02*
X106640000Y-80187060I0J62500D01*
G01*
X106640000Y-80062060D01*
G75*
G02*
X106702500Y-79999560I62500J0D01*
G01*
X107452500Y-79999560D01*
G75*
G02*
X107515000Y-80062060I0J-62500D01*
G01*
X107515000Y-80187060D01*
G75*
G02*
X107452500Y-80249560I-62500J0D01*
G01*
G37*
G36*
G01*
X107452500Y-80749560D02*
X106702500Y-80749560D01*
G75*
G02*
X106640000Y-80687060I0J62500D01*
G01*
X106640000Y-80562060D01*
G75*
G02*
X106702500Y-80499560I62500J0D01*
G01*
X107452500Y-80499560D01*
G75*
G02*
X107515000Y-80562060I0J-62500D01*
G01*
X107515000Y-80687060D01*
G75*
G02*
X107452500Y-80749560I-62500J0D01*
G01*
G37*
G36*
G01*
X107452500Y-81249560D02*
X106702500Y-81249560D01*
G75*
G02*
X106640000Y-81187060I0J62500D01*
G01*
X106640000Y-81062060D01*
G75*
G02*
X106702500Y-80999560I62500J0D01*
G01*
X107452500Y-80999560D01*
G75*
G02*
X107515000Y-81062060I0J-62500D01*
G01*
X107515000Y-81187060D01*
G75*
G02*
X107452500Y-81249560I-62500J0D01*
G01*
G37*
G36*
G01*
X107452500Y-81749560D02*
X106702500Y-81749560D01*
G75*
G02*
X106640000Y-81687060I0J62500D01*
G01*
X106640000Y-81562060D01*
G75*
G02*
X106702500Y-81499560I62500J0D01*
G01*
X107452500Y-81499560D01*
G75*
G02*
X107515000Y-81562060I0J-62500D01*
G01*
X107515000Y-81687060D01*
G75*
G02*
X107452500Y-81749560I-62500J0D01*
G01*
G37*
G36*
G01*
X107452500Y-82249560D02*
X106702500Y-82249560D01*
G75*
G02*
X106640000Y-82187060I0J62500D01*
G01*
X106640000Y-82062060D01*
G75*
G02*
X106702500Y-81999560I62500J0D01*
G01*
X107452500Y-81999560D01*
G75*
G02*
X107515000Y-82062060I0J-62500D01*
G01*
X107515000Y-82187060D01*
G75*
G02*
X107452500Y-82249560I-62500J0D01*
G01*
G37*
G36*
G01*
X107452500Y-82749560D02*
X106702500Y-82749560D01*
G75*
G02*
X106640000Y-82687060I0J62500D01*
G01*
X106640000Y-82562060D01*
G75*
G02*
X106702500Y-82499560I62500J0D01*
G01*
X107452500Y-82499560D01*
G75*
G02*
X107515000Y-82562060I0J-62500D01*
G01*
X107515000Y-82687060D01*
G75*
G02*
X107452500Y-82749560I-62500J0D01*
G01*
G37*
G36*
G01*
X107452500Y-83249560D02*
X106702500Y-83249560D01*
G75*
G02*
X106640000Y-83187060I0J62500D01*
G01*
X106640000Y-83062060D01*
G75*
G02*
X106702500Y-82999560I62500J0D01*
G01*
X107452500Y-82999560D01*
G75*
G02*
X107515000Y-83062060I0J-62500D01*
G01*
X107515000Y-83187060D01*
G75*
G02*
X107452500Y-83249560I-62500J0D01*
G01*
G37*
G36*
G01*
X107452500Y-83749560D02*
X106702500Y-83749560D01*
G75*
G02*
X106640000Y-83687060I0J62500D01*
G01*
X106640000Y-83562060D01*
G75*
G02*
X106702500Y-83499560I62500J0D01*
G01*
X107452500Y-83499560D01*
G75*
G02*
X107515000Y-83562060I0J-62500D01*
G01*
X107515000Y-83687060D01*
G75*
G02*
X107452500Y-83749560I-62500J0D01*
G01*
G37*
G36*
G01*
X107452500Y-84249560D02*
X106702500Y-84249560D01*
G75*
G02*
X106640000Y-84187060I0J62500D01*
G01*
X106640000Y-84062060D01*
G75*
G02*
X106702500Y-83999560I62500J0D01*
G01*
X107452500Y-83999560D01*
G75*
G02*
X107515000Y-84062060I0J-62500D01*
G01*
X107515000Y-84187060D01*
G75*
G02*
X107452500Y-84249560I-62500J0D01*
G01*
G37*
G36*
G01*
X107452500Y-84749560D02*
X106702500Y-84749560D01*
G75*
G02*
X106640000Y-84687060I0J62500D01*
G01*
X106640000Y-84562060D01*
G75*
G02*
X106702500Y-84499560I62500J0D01*
G01*
X107452500Y-84499560D01*
G75*
G02*
X107515000Y-84562060I0J-62500D01*
G01*
X107515000Y-84687060D01*
G75*
G02*
X107452500Y-84749560I-62500J0D01*
G01*
G37*
G36*
G01*
X106452500Y-85749560D02*
X106327500Y-85749560D01*
G75*
G02*
X106265000Y-85687060I0J62500D01*
G01*
X106265000Y-84937060D01*
G75*
G02*
X106327500Y-84874560I62500J0D01*
G01*
X106452500Y-84874560D01*
G75*
G02*
X106515000Y-84937060I0J-62500D01*
G01*
X106515000Y-85687060D01*
G75*
G02*
X106452500Y-85749560I-62500J0D01*
G01*
G37*
G36*
G01*
X105952500Y-85749560D02*
X105827500Y-85749560D01*
G75*
G02*
X105765000Y-85687060I0J62500D01*
G01*
X105765000Y-84937060D01*
G75*
G02*
X105827500Y-84874560I62500J0D01*
G01*
X105952500Y-84874560D01*
G75*
G02*
X106015000Y-84937060I0J-62500D01*
G01*
X106015000Y-85687060D01*
G75*
G02*
X105952500Y-85749560I-62500J0D01*
G01*
G37*
G36*
G01*
X105452500Y-85749560D02*
X105327500Y-85749560D01*
G75*
G02*
X105265000Y-85687060I0J62500D01*
G01*
X105265000Y-84937060D01*
G75*
G02*
X105327500Y-84874560I62500J0D01*
G01*
X105452500Y-84874560D01*
G75*
G02*
X105515000Y-84937060I0J-62500D01*
G01*
X105515000Y-85687060D01*
G75*
G02*
X105452500Y-85749560I-62500J0D01*
G01*
G37*
G36*
G01*
X104952500Y-85749560D02*
X104827500Y-85749560D01*
G75*
G02*
X104765000Y-85687060I0J62500D01*
G01*
X104765000Y-84937060D01*
G75*
G02*
X104827500Y-84874560I62500J0D01*
G01*
X104952500Y-84874560D01*
G75*
G02*
X105015000Y-84937060I0J-62500D01*
G01*
X105015000Y-85687060D01*
G75*
G02*
X104952500Y-85749560I-62500J0D01*
G01*
G37*
G36*
G01*
X104452500Y-85749560D02*
X104327500Y-85749560D01*
G75*
G02*
X104265000Y-85687060I0J62500D01*
G01*
X104265000Y-84937060D01*
G75*
G02*
X104327500Y-84874560I62500J0D01*
G01*
X104452500Y-84874560D01*
G75*
G02*
X104515000Y-84937060I0J-62500D01*
G01*
X104515000Y-85687060D01*
G75*
G02*
X104452500Y-85749560I-62500J0D01*
G01*
G37*
G36*
G01*
X103952500Y-85749560D02*
X103827500Y-85749560D01*
G75*
G02*
X103765000Y-85687060I0J62500D01*
G01*
X103765000Y-84937060D01*
G75*
G02*
X103827500Y-84874560I62500J0D01*
G01*
X103952500Y-84874560D01*
G75*
G02*
X104015000Y-84937060I0J-62500D01*
G01*
X104015000Y-85687060D01*
G75*
G02*
X103952500Y-85749560I-62500J0D01*
G01*
G37*
G36*
G01*
X103452500Y-85749560D02*
X103327500Y-85749560D01*
G75*
G02*
X103265000Y-85687060I0J62500D01*
G01*
X103265000Y-84937060D01*
G75*
G02*
X103327500Y-84874560I62500J0D01*
G01*
X103452500Y-84874560D01*
G75*
G02*
X103515000Y-84937060I0J-62500D01*
G01*
X103515000Y-85687060D01*
G75*
G02*
X103452500Y-85749560I-62500J0D01*
G01*
G37*
G36*
G01*
X102952500Y-85749560D02*
X102827500Y-85749560D01*
G75*
G02*
X102765000Y-85687060I0J62500D01*
G01*
X102765000Y-84937060D01*
G75*
G02*
X102827500Y-84874560I62500J0D01*
G01*
X102952500Y-84874560D01*
G75*
G02*
X103015000Y-84937060I0J-62500D01*
G01*
X103015000Y-85687060D01*
G75*
G02*
X102952500Y-85749560I-62500J0D01*
G01*
G37*
G36*
G01*
X102452500Y-85749560D02*
X102327500Y-85749560D01*
G75*
G02*
X102265000Y-85687060I0J62500D01*
G01*
X102265000Y-84937060D01*
G75*
G02*
X102327500Y-84874560I62500J0D01*
G01*
X102452500Y-84874560D01*
G75*
G02*
X102515000Y-84937060I0J-62500D01*
G01*
X102515000Y-85687060D01*
G75*
G02*
X102452500Y-85749560I-62500J0D01*
G01*
G37*
G36*
G01*
X101952500Y-85749560D02*
X101827500Y-85749560D01*
G75*
G02*
X101765000Y-85687060I0J62500D01*
G01*
X101765000Y-84937060D01*
G75*
G02*
X101827500Y-84874560I62500J0D01*
G01*
X101952500Y-84874560D01*
G75*
G02*
X102015000Y-84937060I0J-62500D01*
G01*
X102015000Y-85687060D01*
G75*
G02*
X101952500Y-85749560I-62500J0D01*
G01*
G37*
G36*
G01*
X101452500Y-85749560D02*
X101327500Y-85749560D01*
G75*
G02*
X101265000Y-85687060I0J62500D01*
G01*
X101265000Y-84937060D01*
G75*
G02*
X101327500Y-84874560I62500J0D01*
G01*
X101452500Y-84874560D01*
G75*
G02*
X101515000Y-84937060I0J-62500D01*
G01*
X101515000Y-85687060D01*
G75*
G02*
X101452500Y-85749560I-62500J0D01*
G01*
G37*
G36*
G01*
X100952500Y-85749560D02*
X100827500Y-85749560D01*
G75*
G02*
X100765000Y-85687060I0J62500D01*
G01*
X100765000Y-84937060D01*
G75*
G02*
X100827500Y-84874560I62500J0D01*
G01*
X100952500Y-84874560D01*
G75*
G02*
X101015000Y-84937060I0J-62500D01*
G01*
X101015000Y-85687060D01*
G75*
G02*
X100952500Y-85749560I-62500J0D01*
G01*
G37*
G36*
G01*
X97354800Y-92042600D02*
X97354800Y-92412600D01*
G75*
G02*
X97219800Y-92547600I-135000J0D01*
G01*
X96949800Y-92547600D01*
G75*
G02*
X96814800Y-92412600I0J135000D01*
G01*
X96814800Y-92042600D01*
G75*
G02*
X96949800Y-91907600I135000J0D01*
G01*
X97219800Y-91907600D01*
G75*
G02*
X97354800Y-92042600I0J-135000D01*
G01*
G37*
G36*
G01*
X98374800Y-92042600D02*
X98374800Y-92412600D01*
G75*
G02*
X98239800Y-92547600I-135000J0D01*
G01*
X97969800Y-92547600D01*
G75*
G02*
X97834800Y-92412600I0J135000D01*
G01*
X97834800Y-92042600D01*
G75*
G02*
X97969800Y-91907600I135000J0D01*
G01*
X98239800Y-91907600D01*
G75*
G02*
X98374800Y-92042600I0J-135000D01*
G01*
G37*
G36*
G01*
X101596600Y-91001200D02*
X101596600Y-91371200D01*
G75*
G02*
X101461600Y-91506200I-135000J0D01*
G01*
X101191600Y-91506200D01*
G75*
G02*
X101056600Y-91371200I0J135000D01*
G01*
X101056600Y-91001200D01*
G75*
G02*
X101191600Y-90866200I135000J0D01*
G01*
X101461600Y-90866200D01*
G75*
G02*
X101596600Y-91001200I0J-135000D01*
G01*
G37*
G36*
G01*
X102616600Y-91001200D02*
X102616600Y-91371200D01*
G75*
G02*
X102481600Y-91506200I-135000J0D01*
G01*
X102211600Y-91506200D01*
G75*
G02*
X102076600Y-91371200I0J135000D01*
G01*
X102076600Y-91001200D01*
G75*
G02*
X102211600Y-90866200I135000J0D01*
G01*
X102481600Y-90866200D01*
G75*
G02*
X102616600Y-91001200I0J-135000D01*
G01*
G37*
G36*
G01*
X101194400Y-75119400D02*
X101564400Y-75119400D01*
G75*
G02*
X101699400Y-75254400I0J-135000D01*
G01*
X101699400Y-75524400D01*
G75*
G02*
X101564400Y-75659400I-135000J0D01*
G01*
X101194400Y-75659400D01*
G75*
G02*
X101059400Y-75524400I0J135000D01*
G01*
X101059400Y-75254400D01*
G75*
G02*
X101194400Y-75119400I135000J0D01*
G01*
G37*
G36*
G01*
X101194400Y-74099400D02*
X101564400Y-74099400D01*
G75*
G02*
X101699400Y-74234400I0J-135000D01*
G01*
X101699400Y-74504400D01*
G75*
G02*
X101564400Y-74639400I-135000J0D01*
G01*
X101194400Y-74639400D01*
G75*
G02*
X101059400Y-74504400I0J135000D01*
G01*
X101059400Y-74234400D01*
G75*
G02*
X101194400Y-74099400I135000J0D01*
G01*
G37*
G36*
G01*
X103596400Y-74639400D02*
X103226400Y-74639400D01*
G75*
G02*
X103091400Y-74504400I0J135000D01*
G01*
X103091400Y-74234400D01*
G75*
G02*
X103226400Y-74099400I135000J0D01*
G01*
X103596400Y-74099400D01*
G75*
G02*
X103731400Y-74234400I0J-135000D01*
G01*
X103731400Y-74504400D01*
G75*
G02*
X103596400Y-74639400I-135000J0D01*
G01*
G37*
G36*
G01*
X103596400Y-75659400D02*
X103226400Y-75659400D01*
G75*
G02*
X103091400Y-75524400I0J135000D01*
G01*
X103091400Y-75254400D01*
G75*
G02*
X103226400Y-75119400I135000J0D01*
G01*
X103596400Y-75119400D01*
G75*
G02*
X103731400Y-75254400I0J-135000D01*
G01*
X103731400Y-75524400D01*
G75*
G02*
X103596400Y-75659400I-135000J0D01*
G01*
G37*
G36*
G01*
X102580400Y-74639400D02*
X102210400Y-74639400D01*
G75*
G02*
X102075400Y-74504400I0J135000D01*
G01*
X102075400Y-74234400D01*
G75*
G02*
X102210400Y-74099400I135000J0D01*
G01*
X102580400Y-74099400D01*
G75*
G02*
X102715400Y-74234400I0J-135000D01*
G01*
X102715400Y-74504400D01*
G75*
G02*
X102580400Y-74639400I-135000J0D01*
G01*
G37*
G36*
G01*
X102580400Y-75659400D02*
X102210400Y-75659400D01*
G75*
G02*
X102075400Y-75524400I0J135000D01*
G01*
X102075400Y-75254400D01*
G75*
G02*
X102210400Y-75119400I135000J0D01*
G01*
X102580400Y-75119400D01*
G75*
G02*
X102715400Y-75254400I0J-135000D01*
G01*
X102715400Y-75524400D01*
G75*
G02*
X102580400Y-75659400I-135000J0D01*
G01*
G37*
G36*
G01*
X101645680Y-67181960D02*
X101275680Y-67181960D01*
G75*
G02*
X101140680Y-67046960I0J135000D01*
G01*
X101140680Y-66776960D01*
G75*
G02*
X101275680Y-66641960I135000J0D01*
G01*
X101645680Y-66641960D01*
G75*
G02*
X101780680Y-66776960I0J-135000D01*
G01*
X101780680Y-67046960D01*
G75*
G02*
X101645680Y-67181960I-135000J0D01*
G01*
G37*
G36*
G01*
X101645680Y-68201960D02*
X101275680Y-68201960D01*
G75*
G02*
X101140680Y-68066960I0J135000D01*
G01*
X101140680Y-67796960D01*
G75*
G02*
X101275680Y-67661960I135000J0D01*
G01*
X101645680Y-67661960D01*
G75*
G02*
X101780680Y-67796960I0J-135000D01*
G01*
X101780680Y-68066960D01*
G75*
G02*
X101645680Y-68201960I-135000J0D01*
G01*
G37*
G36*
G01*
X105079760Y-66709520D02*
X104709760Y-66709520D01*
G75*
G02*
X104574760Y-66574520I0J135000D01*
G01*
X104574760Y-66304520D01*
G75*
G02*
X104709760Y-66169520I135000J0D01*
G01*
X105079760Y-66169520D01*
G75*
G02*
X105214760Y-66304520I0J-135000D01*
G01*
X105214760Y-66574520D01*
G75*
G02*
X105079760Y-66709520I-135000J0D01*
G01*
G37*
G36*
G01*
X105079760Y-67729520D02*
X104709760Y-67729520D01*
G75*
G02*
X104574760Y-67594520I0J135000D01*
G01*
X104574760Y-67324520D01*
G75*
G02*
X104709760Y-67189520I135000J0D01*
G01*
X105079760Y-67189520D01*
G75*
G02*
X105214760Y-67324520I0J-135000D01*
G01*
X105214760Y-67594520D01*
G75*
G02*
X105079760Y-67729520I-135000J0D01*
G01*
G37*
G36*
G01*
X110043050Y-59645000D02*
X109530550Y-59645000D01*
G75*
G02*
X109311800Y-59426250I0J218750D01*
G01*
X109311800Y-58988750D01*
G75*
G02*
X109530550Y-58770000I218750J0D01*
G01*
X110043050Y-58770000D01*
G75*
G02*
X110261800Y-58988750I0J-218750D01*
G01*
X110261800Y-59426250D01*
G75*
G02*
X110043050Y-59645000I-218750J0D01*
G01*
G37*
G36*
G01*
X110043050Y-61220000D02*
X109530550Y-61220000D01*
G75*
G02*
X109311800Y-61001250I0J218750D01*
G01*
X109311800Y-60563750D01*
G75*
G02*
X109530550Y-60345000I218750J0D01*
G01*
X110043050Y-60345000D01*
G75*
G02*
X110261800Y-60563750I0J-218750D01*
G01*
X110261800Y-61001250D01*
G75*
G02*
X110043050Y-61220000I-218750J0D01*
G01*
G37*
G36*
G01*
X103419680Y-86647400D02*
X103419680Y-86987400D01*
G75*
G02*
X103279680Y-87127400I-140000J0D01*
G01*
X102999680Y-87127400D01*
G75*
G02*
X102859680Y-86987400I0J140000D01*
G01*
X102859680Y-86647400D01*
G75*
G02*
X102999680Y-86507400I140000J0D01*
G01*
X103279680Y-86507400D01*
G75*
G02*
X103419680Y-86647400I0J-140000D01*
G01*
G37*
G36*
G01*
X104379680Y-86647400D02*
X104379680Y-86987400D01*
G75*
G02*
X104239680Y-87127400I-140000J0D01*
G01*
X103959680Y-87127400D01*
G75*
G02*
X103819680Y-86987400I0J140000D01*
G01*
X103819680Y-86647400D01*
G75*
G02*
X103959680Y-86507400I140000J0D01*
G01*
X104239680Y-86507400D01*
G75*
G02*
X104379680Y-86647400I0J-140000D01*
G01*
G37*
G36*
G01*
X97064600Y-82456400D02*
X97064600Y-82796400D01*
G75*
G02*
X96924600Y-82936400I-140000J0D01*
G01*
X96644600Y-82936400D01*
G75*
G02*
X96504600Y-82796400I0J140000D01*
G01*
X96504600Y-82456400D01*
G75*
G02*
X96644600Y-82316400I140000J0D01*
G01*
X96924600Y-82316400D01*
G75*
G02*
X97064600Y-82456400I0J-140000D01*
G01*
G37*
G36*
G01*
X98024600Y-82456400D02*
X98024600Y-82796400D01*
G75*
G02*
X97884600Y-82936400I-140000J0D01*
G01*
X97604600Y-82936400D01*
G75*
G02*
X97464600Y-82796400I0J140000D01*
G01*
X97464600Y-82456400D01*
G75*
G02*
X97604600Y-82316400I140000J0D01*
G01*
X97884600Y-82316400D01*
G75*
G02*
X98024600Y-82456400I0J-140000D01*
G01*
G37*
G36*
G01*
X108169000Y-78737000D02*
X108509000Y-78737000D01*
G75*
G02*
X108649000Y-78877000I0J-140000D01*
G01*
X108649000Y-79157000D01*
G75*
G02*
X108509000Y-79297000I-140000J0D01*
G01*
X108169000Y-79297000D01*
G75*
G02*
X108029000Y-79157000I0J140000D01*
G01*
X108029000Y-78877000D01*
G75*
G02*
X108169000Y-78737000I140000J0D01*
G01*
G37*
G36*
G01*
X108169000Y-77777000D02*
X108509000Y-77777000D01*
G75*
G02*
X108649000Y-77917000I0J-140000D01*
G01*
X108649000Y-78197000D01*
G75*
G02*
X108509000Y-78337000I-140000J0D01*
G01*
X108169000Y-78337000D01*
G75*
G02*
X108029000Y-78197000I0J140000D01*
G01*
X108029000Y-77917000D01*
G75*
G02*
X108169000Y-77777000I140000J0D01*
G01*
G37*
G36*
G01*
X99331500Y-67569100D02*
X99331500Y-67229100D01*
G75*
G02*
X99471500Y-67089100I140000J0D01*
G01*
X99751500Y-67089100D01*
G75*
G02*
X99891500Y-67229100I0J-140000D01*
G01*
X99891500Y-67569100D01*
G75*
G02*
X99751500Y-67709100I-140000J0D01*
G01*
X99471500Y-67709100D01*
G75*
G02*
X99331500Y-67569100I0J140000D01*
G01*
G37*
G36*
G01*
X98371500Y-67569100D02*
X98371500Y-67229100D01*
G75*
G02*
X98511500Y-67089100I140000J0D01*
G01*
X98791500Y-67089100D01*
G75*
G02*
X98931500Y-67229100I0J-140000D01*
G01*
X98931500Y-67569100D01*
G75*
G02*
X98791500Y-67709100I-140000J0D01*
G01*
X98511500Y-67709100D01*
G75*
G02*
X98371500Y-67569100I0J140000D01*
G01*
G37*
G36*
G01*
X98735269Y-85053747D02*
X98494853Y-84813331D01*
G75*
G02*
X98494853Y-84615341I98995J98995D01*
G01*
X98692843Y-84417351D01*
G75*
G02*
X98890833Y-84417351I98995J-98995D01*
G01*
X99131249Y-84657767D01*
G75*
G02*
X99131249Y-84855757I-98995J-98995D01*
G01*
X98933259Y-85053747D01*
G75*
G02*
X98735269Y-85053747I-98995J98995D01*
G01*
G37*
G36*
G01*
X98056447Y-85732569D02*
X97816031Y-85492153D01*
G75*
G02*
X97816031Y-85294163I98995J98995D01*
G01*
X98014021Y-85096173D01*
G75*
G02*
X98212011Y-85096173I98995J-98995D01*
G01*
X98452427Y-85336589D01*
G75*
G02*
X98452427Y-85534579I-98995J-98995D01*
G01*
X98254437Y-85732569D01*
G75*
G02*
X98056447Y-85732569I-98995J98995D01*
G01*
G37*
G36*
G01*
X99960200Y-77020800D02*
X99960200Y-77360800D01*
G75*
G02*
X99820200Y-77500800I-140000J0D01*
G01*
X99540200Y-77500800D01*
G75*
G02*
X99400200Y-77360800I0J140000D01*
G01*
X99400200Y-77020800D01*
G75*
G02*
X99540200Y-76880800I140000J0D01*
G01*
X99820200Y-76880800D01*
G75*
G02*
X99960200Y-77020800I0J-140000D01*
G01*
G37*
G36*
G01*
X100920200Y-77020800D02*
X100920200Y-77360800D01*
G75*
G02*
X100780200Y-77500800I-140000J0D01*
G01*
X100500200Y-77500800D01*
G75*
G02*
X100360200Y-77360800I0J140000D01*
G01*
X100360200Y-77020800D01*
G75*
G02*
X100500200Y-76880800I140000J0D01*
G01*
X100780200Y-76880800D01*
G75*
G02*
X100920200Y-77020800I0J-140000D01*
G01*
G37*
G36*
G01*
X100233200Y-72585600D02*
X100233200Y-72245600D01*
G75*
G02*
X100373200Y-72105600I140000J0D01*
G01*
X100653200Y-72105600D01*
G75*
G02*
X100793200Y-72245600I0J-140000D01*
G01*
X100793200Y-72585600D01*
G75*
G02*
X100653200Y-72725600I-140000J0D01*
G01*
X100373200Y-72725600D01*
G75*
G02*
X100233200Y-72585600I0J140000D01*
G01*
G37*
G36*
G01*
X99273200Y-72585600D02*
X99273200Y-72245600D01*
G75*
G02*
X99413200Y-72105600I140000J0D01*
G01*
X99693200Y-72105600D01*
G75*
G02*
X99833200Y-72245600I0J-140000D01*
G01*
X99833200Y-72585600D01*
G75*
G02*
X99693200Y-72725600I-140000J0D01*
G01*
X99413200Y-72725600D01*
G75*
G02*
X99273200Y-72585600I0J140000D01*
G01*
G37*
G36*
G01*
X105719600Y-87216000D02*
X105719600Y-86876000D01*
G75*
G02*
X105859600Y-86736000I140000J0D01*
G01*
X106139600Y-86736000D01*
G75*
G02*
X106279600Y-86876000I0J-140000D01*
G01*
X106279600Y-87216000D01*
G75*
G02*
X106139600Y-87356000I-140000J0D01*
G01*
X105859600Y-87356000D01*
G75*
G02*
X105719600Y-87216000I0J140000D01*
G01*
G37*
G36*
G01*
X104759600Y-87216000D02*
X104759600Y-86876000D01*
G75*
G02*
X104899600Y-86736000I140000J0D01*
G01*
X105179600Y-86736000D01*
G75*
G02*
X105319600Y-86876000I0J-140000D01*
G01*
X105319600Y-87216000D01*
G75*
G02*
X105179600Y-87356000I-140000J0D01*
G01*
X104899600Y-87356000D01*
G75*
G02*
X104759600Y-87216000I0J140000D01*
G01*
G37*
G36*
G01*
X108545400Y-79814800D02*
X108545400Y-80154800D01*
G75*
G02*
X108405400Y-80294800I-140000J0D01*
G01*
X108125400Y-80294800D01*
G75*
G02*
X107985400Y-80154800I0J140000D01*
G01*
X107985400Y-79814800D01*
G75*
G02*
X108125400Y-79674800I140000J0D01*
G01*
X108405400Y-79674800D01*
G75*
G02*
X108545400Y-79814800I0J-140000D01*
G01*
G37*
G36*
G01*
X109505400Y-79814800D02*
X109505400Y-80154800D01*
G75*
G02*
X109365400Y-80294800I-140000J0D01*
G01*
X109085400Y-80294800D01*
G75*
G02*
X108945400Y-80154800I0J140000D01*
G01*
X108945400Y-79814800D01*
G75*
G02*
X109085400Y-79674800I140000J0D01*
G01*
X109365400Y-79674800D01*
G75*
G02*
X109505400Y-79814800I0J-140000D01*
G01*
G37*
M02*
