G04 #@! TF.GenerationSoftware,KiCad,Pcbnew,(5.1.10)-1*
G04 #@! TF.CreationDate,2021-07-31T08:12:49+01:00*
G04 #@! TF.ProjectId,STM32Pico,53544d33-3250-4696-936f-2e6b69636164,REV1*
G04 #@! TF.SameCoordinates,Original*
G04 #@! TF.FileFunction,Legend,Top*
G04 #@! TF.FilePolarity,Positive*
%FSLAX46Y46*%
G04 Gerber Fmt 4.6, Leading zero omitted, Abs format (unit mm)*
G04 Created by KiCad (PCBNEW (5.1.10)-1) date 2021-07-31 08:12:49*
%MOMM*%
%LPD*%
G01*
G04 APERTURE LIST*
%ADD10C,0.150000*%
%ADD11C,0.120000*%
%ADD12C,0.752000*%
%ADD13O,1.102000X2.202000*%
%ADD14O,1.102000X1.702000*%
%ADD15O,1.802000X1.802000*%
%ADD16C,1.802000*%
G04 APERTURE END LIST*
D10*
X110846240Y-103301115D02*
X109846240Y-103301115D01*
X110846240Y-102872543D02*
X110322431Y-102872543D01*
X110227193Y-102920162D01*
X110179574Y-103015400D01*
X110179574Y-103158258D01*
X110227193Y-103253496D01*
X110274812Y-103301115D01*
X110179574Y-102539210D02*
X110179574Y-102158258D01*
X109846240Y-102396353D02*
X110703383Y-102396353D01*
X110798621Y-102348734D01*
X110846240Y-102253496D01*
X110846240Y-102158258D01*
X110179574Y-101967781D02*
X110179574Y-101586829D01*
X109846240Y-101824924D02*
X110703383Y-101824924D01*
X110798621Y-101777305D01*
X110846240Y-101682067D01*
X110846240Y-101586829D01*
X110179574Y-101253496D02*
X111179574Y-101253496D01*
X110227193Y-101253496D02*
X110179574Y-101158258D01*
X110179574Y-100967781D01*
X110227193Y-100872543D01*
X110274812Y-100824924D01*
X110370050Y-100777305D01*
X110655764Y-100777305D01*
X110751002Y-100824924D01*
X110798621Y-100872543D01*
X110846240Y-100967781D01*
X110846240Y-101158258D01*
X110798621Y-101253496D01*
X110798621Y-100396353D02*
X110846240Y-100301115D01*
X110846240Y-100110639D01*
X110798621Y-100015400D01*
X110703383Y-99967781D01*
X110655764Y-99967781D01*
X110560526Y-100015400D01*
X110512907Y-100110639D01*
X110512907Y-100253496D01*
X110465288Y-100348734D01*
X110370050Y-100396353D01*
X110322431Y-100396353D01*
X110227193Y-100348734D01*
X110179574Y-100253496D01*
X110179574Y-100110639D01*
X110227193Y-100015400D01*
X110751002Y-99539210D02*
X110798621Y-99491591D01*
X110846240Y-99539210D01*
X110798621Y-99586829D01*
X110751002Y-99539210D01*
X110846240Y-99539210D01*
X110227193Y-99539210D02*
X110274812Y-99491591D01*
X110322431Y-99539210D01*
X110274812Y-99586829D01*
X110227193Y-99539210D01*
X110322431Y-99539210D01*
X109798621Y-98348734D02*
X111084336Y-99205877D01*
X109798621Y-97301115D02*
X111084336Y-98158258D01*
X110179574Y-96539210D02*
X110989098Y-96539210D01*
X111084336Y-96586829D01*
X111131955Y-96634448D01*
X111179574Y-96729686D01*
X111179574Y-96872543D01*
X111131955Y-96967781D01*
X110798621Y-96539210D02*
X110846240Y-96634448D01*
X110846240Y-96824924D01*
X110798621Y-96920162D01*
X110751002Y-96967781D01*
X110655764Y-97015400D01*
X110370050Y-97015400D01*
X110274812Y-96967781D01*
X110227193Y-96920162D01*
X110179574Y-96824924D01*
X110179574Y-96634448D01*
X110227193Y-96539210D01*
X110846240Y-96063020D02*
X110179574Y-96063020D01*
X109846240Y-96063020D02*
X109893860Y-96110639D01*
X109941479Y-96063020D01*
X109893860Y-96015400D01*
X109846240Y-96063020D01*
X109941479Y-96063020D01*
X110179574Y-95729686D02*
X110179574Y-95348734D01*
X109846240Y-95586829D02*
X110703383Y-95586829D01*
X110798621Y-95539210D01*
X110846240Y-95443972D01*
X110846240Y-95348734D01*
X110846240Y-95015400D02*
X109846240Y-95015400D01*
X110846240Y-94586829D02*
X110322431Y-94586829D01*
X110227193Y-94634448D01*
X110179574Y-94729686D01*
X110179574Y-94872543D01*
X110227193Y-94967781D01*
X110274812Y-95015400D01*
X110179574Y-93682067D02*
X110846240Y-93682067D01*
X110179574Y-94110639D02*
X110703383Y-94110639D01*
X110798621Y-94063020D01*
X110846240Y-93967781D01*
X110846240Y-93824924D01*
X110798621Y-93729686D01*
X110751002Y-93682067D01*
X110846240Y-93205877D02*
X109846240Y-93205877D01*
X110227193Y-93205877D02*
X110179574Y-93110639D01*
X110179574Y-92920162D01*
X110227193Y-92824924D01*
X110274812Y-92777305D01*
X110370050Y-92729686D01*
X110655764Y-92729686D01*
X110751002Y-92777305D01*
X110798621Y-92824924D01*
X110846240Y-92920162D01*
X110846240Y-93110639D01*
X110798621Y-93205877D01*
X110751002Y-92301115D02*
X110798621Y-92253496D01*
X110846240Y-92301115D01*
X110798621Y-92348734D01*
X110751002Y-92301115D01*
X110846240Y-92301115D01*
X110798621Y-91396353D02*
X110846240Y-91491591D01*
X110846240Y-91682067D01*
X110798621Y-91777305D01*
X110751002Y-91824924D01*
X110655764Y-91872543D01*
X110370050Y-91872543D01*
X110274812Y-91824924D01*
X110227193Y-91777305D01*
X110179574Y-91682067D01*
X110179574Y-91491591D01*
X110227193Y-91396353D01*
X110846240Y-90824924D02*
X110798621Y-90920162D01*
X110751002Y-90967781D01*
X110655764Y-91015400D01*
X110370050Y-91015400D01*
X110274812Y-90967781D01*
X110227193Y-90920162D01*
X110179574Y-90824924D01*
X110179574Y-90682067D01*
X110227193Y-90586829D01*
X110274812Y-90539210D01*
X110370050Y-90491591D01*
X110655764Y-90491591D01*
X110751002Y-90539210D01*
X110798621Y-90586829D01*
X110846240Y-90682067D01*
X110846240Y-90824924D01*
X110846240Y-90063020D02*
X110179574Y-90063020D01*
X110274812Y-90063020D02*
X110227193Y-90015400D01*
X110179574Y-89920162D01*
X110179574Y-89777305D01*
X110227193Y-89682067D01*
X110322431Y-89634448D01*
X110846240Y-89634448D01*
X110322431Y-89634448D02*
X110227193Y-89586829D01*
X110179574Y-89491591D01*
X110179574Y-89348734D01*
X110227193Y-89253496D01*
X110322431Y-89205877D01*
X110846240Y-89205877D01*
X109798621Y-88015400D02*
X111084336Y-88872543D01*
X110322431Y-87682067D02*
X110322431Y-87348734D01*
X110846240Y-87205877D02*
X110846240Y-87682067D01*
X109846240Y-87682067D01*
X109846240Y-87205877D01*
X110179574Y-86777305D02*
X110846240Y-86777305D01*
X110274812Y-86777305D02*
X110227193Y-86729686D01*
X110179574Y-86634448D01*
X110179574Y-86491591D01*
X110227193Y-86396353D01*
X110322431Y-86348734D01*
X110846240Y-86348734D01*
X110179574Y-85967781D02*
X110846240Y-85729686D01*
X110179574Y-85491591D01*
X110846240Y-85110639D02*
X110179574Y-85110639D01*
X109846240Y-85110639D02*
X109893860Y-85158258D01*
X109941479Y-85110639D01*
X109893860Y-85063020D01*
X109846240Y-85110639D01*
X109941479Y-85110639D01*
X110846240Y-84491591D02*
X110798621Y-84586829D01*
X110751002Y-84634448D01*
X110655764Y-84682067D01*
X110370050Y-84682067D01*
X110274812Y-84634448D01*
X110227193Y-84586829D01*
X110179574Y-84491591D01*
X110179574Y-84348734D01*
X110227193Y-84253496D01*
X110274812Y-84205877D01*
X110370050Y-84158258D01*
X110655764Y-84158258D01*
X110751002Y-84205877D01*
X110798621Y-84253496D01*
X110846240Y-84348734D01*
X110846240Y-84491591D01*
X110179574Y-83301115D02*
X110846240Y-83301115D01*
X110179574Y-83729686D02*
X110703383Y-83729686D01*
X110798621Y-83682067D01*
X110846240Y-83586829D01*
X110846240Y-83443972D01*
X110798621Y-83348734D01*
X110751002Y-83301115D01*
X110798621Y-82872543D02*
X110846240Y-82777305D01*
X110846240Y-82586829D01*
X110798621Y-82491591D01*
X110703383Y-82443972D01*
X110655764Y-82443972D01*
X110560526Y-82491591D01*
X110512907Y-82586829D01*
X110512907Y-82729686D01*
X110465288Y-82824924D01*
X110370050Y-82872543D01*
X110322431Y-82872543D01*
X110227193Y-82824924D01*
X110179574Y-82729686D01*
X110179574Y-82586829D01*
X110227193Y-82491591D01*
X110465288Y-82015400D02*
X110465288Y-81253496D01*
X110846240Y-80777305D02*
X109846240Y-80777305D01*
X109846240Y-80539210D01*
X109893860Y-80396353D01*
X109989098Y-80301115D01*
X110084336Y-80253496D01*
X110274812Y-80205877D01*
X110417669Y-80205877D01*
X110608145Y-80253496D01*
X110703383Y-80301115D01*
X110798621Y-80396353D01*
X110846240Y-80539210D01*
X110846240Y-80777305D01*
X110846240Y-79348734D02*
X110322431Y-79348734D01*
X110227193Y-79396353D01*
X110179574Y-79491591D01*
X110179574Y-79682067D01*
X110227193Y-79777305D01*
X110798621Y-79348734D02*
X110846240Y-79443972D01*
X110846240Y-79682067D01*
X110798621Y-79777305D01*
X110703383Y-79824924D01*
X110608145Y-79824924D01*
X110512907Y-79777305D01*
X110465288Y-79682067D01*
X110465288Y-79443972D01*
X110417669Y-79348734D01*
X110179574Y-79015400D02*
X110179574Y-78634448D01*
X109846240Y-78872543D02*
X110703383Y-78872543D01*
X110798621Y-78824924D01*
X110846240Y-78729686D01*
X110846240Y-78634448D01*
X110846240Y-77872543D02*
X110322431Y-77872543D01*
X110227193Y-77920162D01*
X110179574Y-78015400D01*
X110179574Y-78205877D01*
X110227193Y-78301115D01*
X110798621Y-77872543D02*
X110846240Y-77967781D01*
X110846240Y-78205877D01*
X110798621Y-78301115D01*
X110703383Y-78348734D01*
X110608145Y-78348734D01*
X110512907Y-78301115D01*
X110465288Y-78205877D01*
X110465288Y-77967781D01*
X110417669Y-77872543D01*
X109798621Y-76682067D02*
X111084336Y-77539210D01*
X110798621Y-76396353D02*
X110846240Y-76253496D01*
X110846240Y-76015400D01*
X110798621Y-75920162D01*
X110751002Y-75872543D01*
X110655764Y-75824924D01*
X110560526Y-75824924D01*
X110465288Y-75872543D01*
X110417669Y-75920162D01*
X110370050Y-76015400D01*
X110322431Y-76205877D01*
X110274812Y-76301115D01*
X110227193Y-76348734D01*
X110131955Y-76396353D01*
X110036717Y-76396353D01*
X109941479Y-76348734D01*
X109893860Y-76301115D01*
X109846240Y-76205877D01*
X109846240Y-75967781D01*
X109893860Y-75824924D01*
X109846240Y-75539210D02*
X109846240Y-74967781D01*
X110846240Y-75253496D02*
X109846240Y-75253496D01*
X110846240Y-74634448D02*
X109846240Y-74634448D01*
X110560526Y-74301115D01*
X109846240Y-73967781D01*
X110846240Y-73967781D01*
X109846240Y-73586829D02*
X109846240Y-72967781D01*
X110227193Y-73301115D01*
X110227193Y-73158258D01*
X110274812Y-73063020D01*
X110322431Y-73015400D01*
X110417669Y-72967781D01*
X110655764Y-72967781D01*
X110751002Y-73015400D01*
X110798621Y-73063020D01*
X110846240Y-73158258D01*
X110846240Y-73443972D01*
X110798621Y-73539210D01*
X110751002Y-73586829D01*
X109941479Y-72586829D02*
X109893860Y-72539210D01*
X109846240Y-72443972D01*
X109846240Y-72205877D01*
X109893860Y-72110639D01*
X109941479Y-72063020D01*
X110036717Y-72015400D01*
X110131955Y-72015400D01*
X110274812Y-72063020D01*
X110846240Y-72634448D01*
X110846240Y-72015400D01*
X110846240Y-71586829D02*
X109846240Y-71586829D01*
X109846240Y-71205877D01*
X109893860Y-71110639D01*
X109941479Y-71063020D01*
X110036717Y-71015400D01*
X110179574Y-71015400D01*
X110274812Y-71063020D01*
X110322431Y-71110639D01*
X110370050Y-71205877D01*
X110370050Y-71586829D01*
X110846240Y-70586829D02*
X110179574Y-70586829D01*
X109846240Y-70586829D02*
X109893860Y-70634448D01*
X109941479Y-70586829D01*
X109893860Y-70539210D01*
X109846240Y-70586829D01*
X109941479Y-70586829D01*
X110798621Y-69682067D02*
X110846240Y-69777305D01*
X110846240Y-69967781D01*
X110798621Y-70063020D01*
X110751002Y-70110639D01*
X110655764Y-70158258D01*
X110370050Y-70158258D01*
X110274812Y-70110639D01*
X110227193Y-70063020D01*
X110179574Y-69967781D01*
X110179574Y-69777305D01*
X110227193Y-69682067D01*
X110846240Y-69110639D02*
X110798621Y-69205877D01*
X110751002Y-69253496D01*
X110655764Y-69301115D01*
X110370050Y-69301115D01*
X110274812Y-69253496D01*
X110227193Y-69205877D01*
X110179574Y-69110639D01*
X110179574Y-68967781D01*
X110227193Y-68872543D01*
X110274812Y-68824924D01*
X110370050Y-68777305D01*
X110655764Y-68777305D01*
X110751002Y-68824924D01*
X110798621Y-68872543D01*
X110846240Y-68967781D01*
X110846240Y-69110639D01*
D11*
X103914040Y-92575480D02*
X103914040Y-88435480D01*
X106754040Y-88435480D02*
X107054040Y-88435480D01*
X107054040Y-88435480D02*
X107054040Y-92575480D01*
X104214040Y-92575480D02*
X103914040Y-92575480D01*
X107054040Y-92575480D02*
X106754040Y-92575480D01*
X103914040Y-88435480D02*
X104214040Y-88435480D01*
X99799800Y-86792100D02*
X99799800Y-90932100D01*
X96959800Y-90932100D02*
X96659800Y-90932100D01*
X96659800Y-90932100D02*
X96659800Y-86792100D01*
X99499800Y-86792100D02*
X99799800Y-86792100D01*
X96659800Y-86792100D02*
X96959800Y-86792100D01*
X99799800Y-90932100D02*
X99499800Y-90932100D01*
X102463800Y-87644340D02*
X102123800Y-87644340D01*
X102453800Y-90364340D02*
X102123800Y-90364340D01*
X101183800Y-88684340D02*
X101183800Y-89324340D01*
X103403800Y-88684340D02*
X103403800Y-89324340D01*
X102673800Y-90564340D02*
X103363800Y-90564340D01*
X102673800Y-90564340D02*
G75*
G02*
X102453800Y-90364340I90000J320000D01*
G01*
X101435400Y-69433100D02*
X100505400Y-69433100D01*
X98275400Y-69433100D02*
X99205400Y-69433100D01*
X98275400Y-69433100D02*
X98275400Y-71593100D01*
X101435400Y-69433100D02*
X101435400Y-70893100D01*
X100030000Y-78739560D02*
X100030000Y-78264560D01*
X100030000Y-78264560D02*
X100505000Y-78264560D01*
X107250000Y-85009560D02*
X107250000Y-85484560D01*
X107250000Y-85484560D02*
X106775000Y-85484560D01*
X107250000Y-78739560D02*
X107250000Y-78264560D01*
X107250000Y-78264560D02*
X106775000Y-78264560D01*
X100030000Y-85009560D02*
X100030000Y-85484560D01*
X97748441Y-92607600D02*
X97441159Y-92607600D01*
X97748441Y-91847600D02*
X97441159Y-91847600D01*
X101990241Y-91566200D02*
X101682959Y-91566200D01*
X101990241Y-90806200D02*
X101682959Y-90806200D01*
X101759400Y-74725759D02*
X101759400Y-75033041D01*
X100999400Y-74725759D02*
X100999400Y-75033041D01*
X103031400Y-75033041D02*
X103031400Y-74725759D01*
X103791400Y-75033041D02*
X103791400Y-74725759D01*
X102015400Y-75033041D02*
X102015400Y-74725759D01*
X102775400Y-75033041D02*
X102775400Y-74725759D01*
X101080680Y-67575601D02*
X101080680Y-67268319D01*
X101840680Y-67575601D02*
X101840680Y-67268319D01*
X104514760Y-67103161D02*
X104514760Y-66795879D01*
X105274760Y-67103161D02*
X105274760Y-66795879D01*
X109051800Y-59195000D02*
X109051800Y-61480000D01*
X109051800Y-61480000D02*
X110521800Y-61480000D01*
X110521800Y-61480000D02*
X110521800Y-59195000D01*
X103727516Y-87177400D02*
X103511844Y-87177400D01*
X103727516Y-86457400D02*
X103511844Y-86457400D01*
X97372436Y-82986400D02*
X97156764Y-82986400D01*
X97372436Y-82266400D02*
X97156764Y-82266400D01*
X108699000Y-78429164D02*
X108699000Y-78644836D01*
X107979000Y-78429164D02*
X107979000Y-78644836D01*
X99023664Y-67039100D02*
X99239336Y-67039100D01*
X99023664Y-67759100D02*
X99239336Y-67759100D01*
X98142830Y-84896653D02*
X98295333Y-84744150D01*
X98651947Y-85405770D02*
X98804450Y-85253267D01*
X100268036Y-77550800D02*
X100052364Y-77550800D01*
X100268036Y-76830800D02*
X100052364Y-76830800D01*
X99925364Y-72055600D02*
X100141036Y-72055600D01*
X99925364Y-72775600D02*
X100141036Y-72775600D01*
X105411764Y-86686000D02*
X105627436Y-86686000D01*
X105411764Y-87406000D02*
X105627436Y-87406000D01*
X108853236Y-80344800D02*
X108637564Y-80344800D01*
X108853236Y-79624800D02*
X108637564Y-79624800D01*
%LPC*%
G36*
G01*
X100766000Y-64247200D02*
X100766000Y-65697200D01*
G75*
G02*
X100715000Y-65748200I-51000J0D01*
G01*
X100115000Y-65748200D01*
G75*
G02*
X100064000Y-65697200I0J51000D01*
G01*
X100064000Y-64247200D01*
G75*
G02*
X100115000Y-64196200I51000J0D01*
G01*
X100715000Y-64196200D01*
G75*
G02*
X100766000Y-64247200I0J-51000D01*
G01*
G37*
G36*
G01*
X107216000Y-64247200D02*
X107216000Y-65697200D01*
G75*
G02*
X107165000Y-65748200I-51000J0D01*
G01*
X106565000Y-65748200D01*
G75*
G02*
X106514000Y-65697200I0J51000D01*
G01*
X106514000Y-64247200D01*
G75*
G02*
X106565000Y-64196200I51000J0D01*
G01*
X107165000Y-64196200D01*
G75*
G02*
X107216000Y-64247200I0J-51000D01*
G01*
G37*
G36*
G01*
X101541000Y-64247200D02*
X101541000Y-65697200D01*
G75*
G02*
X101490000Y-65748200I-51000J0D01*
G01*
X100890000Y-65748200D01*
G75*
G02*
X100839000Y-65697200I0J51000D01*
G01*
X100839000Y-64247200D01*
G75*
G02*
X100890000Y-64196200I51000J0D01*
G01*
X101490000Y-64196200D01*
G75*
G02*
X101541000Y-64247200I0J-51000D01*
G01*
G37*
G36*
G01*
X106441000Y-64247200D02*
X106441000Y-65697200D01*
G75*
G02*
X106390000Y-65748200I-51000J0D01*
G01*
X105790000Y-65748200D01*
G75*
G02*
X105739000Y-65697200I0J51000D01*
G01*
X105739000Y-64247200D01*
G75*
G02*
X105790000Y-64196200I51000J0D01*
G01*
X106390000Y-64196200D01*
G75*
G02*
X106441000Y-64247200I0J-51000D01*
G01*
G37*
G36*
G01*
X105591000Y-64247200D02*
X105591000Y-65697200D01*
G75*
G02*
X105540000Y-65748200I-51000J0D01*
G01*
X105240000Y-65748200D01*
G75*
G02*
X105189000Y-65697200I0J51000D01*
G01*
X105189000Y-64247200D01*
G75*
G02*
X105240000Y-64196200I51000J0D01*
G01*
X105540000Y-64196200D01*
G75*
G02*
X105591000Y-64247200I0J-51000D01*
G01*
G37*
G36*
G01*
X102091000Y-64247200D02*
X102091000Y-65697200D01*
G75*
G02*
X102040000Y-65748200I-51000J0D01*
G01*
X101740000Y-65748200D01*
G75*
G02*
X101689000Y-65697200I0J51000D01*
G01*
X101689000Y-64247200D01*
G75*
G02*
X101740000Y-64196200I51000J0D01*
G01*
X102040000Y-64196200D01*
G75*
G02*
X102091000Y-64247200I0J-51000D01*
G01*
G37*
G36*
G01*
X105091000Y-64247200D02*
X105091000Y-65697200D01*
G75*
G02*
X105040000Y-65748200I-51000J0D01*
G01*
X104740000Y-65748200D01*
G75*
G02*
X104689000Y-65697200I0J51000D01*
G01*
X104689000Y-64247200D01*
G75*
G02*
X104740000Y-64196200I51000J0D01*
G01*
X105040000Y-64196200D01*
G75*
G02*
X105091000Y-64247200I0J-51000D01*
G01*
G37*
G36*
G01*
X102591000Y-64247200D02*
X102591000Y-65697200D01*
G75*
G02*
X102540000Y-65748200I-51000J0D01*
G01*
X102240000Y-65748200D01*
G75*
G02*
X102189000Y-65697200I0J51000D01*
G01*
X102189000Y-64247200D01*
G75*
G02*
X102240000Y-64196200I51000J0D01*
G01*
X102540000Y-64196200D01*
G75*
G02*
X102591000Y-64247200I0J-51000D01*
G01*
G37*
G36*
G01*
X104591000Y-64247200D02*
X104591000Y-65697200D01*
G75*
G02*
X104540000Y-65748200I-51000J0D01*
G01*
X104240000Y-65748200D01*
G75*
G02*
X104189000Y-65697200I0J51000D01*
G01*
X104189000Y-64247200D01*
G75*
G02*
X104240000Y-64196200I51000J0D01*
G01*
X104540000Y-64196200D01*
G75*
G02*
X104591000Y-64247200I0J-51000D01*
G01*
G37*
G36*
G01*
X103091000Y-64247200D02*
X103091000Y-65697200D01*
G75*
G02*
X103040000Y-65748200I-51000J0D01*
G01*
X102740000Y-65748200D01*
G75*
G02*
X102689000Y-65697200I0J51000D01*
G01*
X102689000Y-64247200D01*
G75*
G02*
X102740000Y-64196200I51000J0D01*
G01*
X103040000Y-64196200D01*
G75*
G02*
X103091000Y-64247200I0J-51000D01*
G01*
G37*
G36*
G01*
X103591000Y-64247200D02*
X103591000Y-65697200D01*
G75*
G02*
X103540000Y-65748200I-51000J0D01*
G01*
X103240000Y-65748200D01*
G75*
G02*
X103189000Y-65697200I0J51000D01*
G01*
X103189000Y-64247200D01*
G75*
G02*
X103240000Y-64196200I51000J0D01*
G01*
X103540000Y-64196200D01*
G75*
G02*
X103591000Y-64247200I0J-51000D01*
G01*
G37*
G36*
G01*
X104091000Y-64247200D02*
X104091000Y-65697200D01*
G75*
G02*
X104040000Y-65748200I-51000J0D01*
G01*
X103740000Y-65748200D01*
G75*
G02*
X103689000Y-65697200I0J51000D01*
G01*
X103689000Y-64247200D01*
G75*
G02*
X103740000Y-64196200I51000J0D01*
G01*
X104040000Y-64196200D01*
G75*
G02*
X104091000Y-64247200I0J-51000D01*
G01*
G37*
D12*
X100750000Y-63527200D03*
X106530000Y-63527200D03*
D13*
X107960000Y-64057200D03*
X99320000Y-64057200D03*
D14*
X107960000Y-59877200D03*
X99320000Y-59877200D03*
G36*
G01*
X106309540Y-93056480D02*
X104658540Y-93056480D01*
G75*
G02*
X104433040Y-92830980I0J225500D01*
G01*
X104433040Y-92379980D01*
G75*
G02*
X104658540Y-92154480I225500J0D01*
G01*
X106309540Y-92154480D01*
G75*
G02*
X106535040Y-92379980I0J-225500D01*
G01*
X106535040Y-92830980D01*
G75*
G02*
X106309540Y-93056480I-225500J0D01*
G01*
G37*
G36*
G01*
X106309540Y-88856480D02*
X104658540Y-88856480D01*
G75*
G02*
X104433040Y-88630980I0J225500D01*
G01*
X104433040Y-88179980D01*
G75*
G02*
X104658540Y-87954480I225500J0D01*
G01*
X106309540Y-87954480D01*
G75*
G02*
X106535040Y-88179980I0J-225500D01*
G01*
X106535040Y-88630980D01*
G75*
G02*
X106309540Y-88856480I-225500J0D01*
G01*
G37*
G36*
G01*
X97404300Y-86311100D02*
X99055300Y-86311100D01*
G75*
G02*
X99280800Y-86536600I0J-225500D01*
G01*
X99280800Y-86987600D01*
G75*
G02*
X99055300Y-87213100I-225500J0D01*
G01*
X97404300Y-87213100D01*
G75*
G02*
X97178800Y-86987600I0J225500D01*
G01*
X97178800Y-86536600D01*
G75*
G02*
X97404300Y-86311100I225500J0D01*
G01*
G37*
G36*
G01*
X97404300Y-90511100D02*
X99055300Y-90511100D01*
G75*
G02*
X99280800Y-90736600I0J-225500D01*
G01*
X99280800Y-91187600D01*
G75*
G02*
X99055300Y-91413100I-225500J0D01*
G01*
X97404300Y-91413100D01*
G75*
G02*
X97178800Y-91187600I0J225500D01*
G01*
X97178800Y-90736600D01*
G75*
G02*
X97404300Y-90511100I225500J0D01*
G01*
G37*
G36*
G01*
X102019800Y-87803840D02*
X102019800Y-88354840D01*
G75*
G02*
X101794300Y-88580340I-225500J0D01*
G01*
X101343300Y-88580340D01*
G75*
G02*
X101117800Y-88354840I0J225500D01*
G01*
X101117800Y-87803840D01*
G75*
G02*
X101343300Y-87578340I225500J0D01*
G01*
X101794300Y-87578340D01*
G75*
G02*
X102019800Y-87803840I0J-225500D01*
G01*
G37*
G36*
G01*
X103469800Y-87803840D02*
X103469800Y-88354840D01*
G75*
G02*
X103244300Y-88580340I-225500J0D01*
G01*
X102793300Y-88580340D01*
G75*
G02*
X102567800Y-88354840I0J225500D01*
G01*
X102567800Y-87803840D01*
G75*
G02*
X102793300Y-87578340I225500J0D01*
G01*
X103244300Y-87578340D01*
G75*
G02*
X103469800Y-87803840I0J-225500D01*
G01*
G37*
G36*
G01*
X102019800Y-89653840D02*
X102019800Y-90204840D01*
G75*
G02*
X101794300Y-90430340I-225500J0D01*
G01*
X101343300Y-90430340D01*
G75*
G02*
X101117800Y-90204840I0J225500D01*
G01*
X101117800Y-89653840D01*
G75*
G02*
X101343300Y-89428340I225500J0D01*
G01*
X101794300Y-89428340D01*
G75*
G02*
X102019800Y-89653840I0J-225500D01*
G01*
G37*
G36*
G01*
X103469800Y-89653840D02*
X103469800Y-90204840D01*
G75*
G02*
X103244300Y-90430340I-225500J0D01*
G01*
X102793300Y-90430340D01*
G75*
G02*
X102567800Y-90204840I0J225500D01*
G01*
X102567800Y-89653840D01*
G75*
G02*
X102793300Y-89428340I225500J0D01*
G01*
X103244300Y-89428340D01*
G75*
G02*
X103469800Y-89653840I0J-225500D01*
G01*
G37*
G36*
G01*
X100255400Y-69694100D02*
X99455400Y-69694100D01*
G75*
G02*
X99404400Y-69643100I0J51000D01*
G01*
X99404400Y-68743100D01*
G75*
G02*
X99455400Y-68692100I51000J0D01*
G01*
X100255400Y-68692100D01*
G75*
G02*
X100306400Y-68743100I0J-51000D01*
G01*
X100306400Y-69643100D01*
G75*
G02*
X100255400Y-69694100I-51000J0D01*
G01*
G37*
G36*
G01*
X101205400Y-71694100D02*
X100405400Y-71694100D01*
G75*
G02*
X100354400Y-71643100I0J51000D01*
G01*
X100354400Y-70743100D01*
G75*
G02*
X100405400Y-70692100I51000J0D01*
G01*
X101205400Y-70692100D01*
G75*
G02*
X101256400Y-70743100I0J-51000D01*
G01*
X101256400Y-71643100D01*
G75*
G02*
X101205400Y-71694100I-51000J0D01*
G01*
G37*
G36*
G01*
X99305400Y-71694100D02*
X98505400Y-71694100D01*
G75*
G02*
X98454400Y-71643100I0J51000D01*
G01*
X98454400Y-70743100D01*
G75*
G02*
X98505400Y-70692100I51000J0D01*
G01*
X99305400Y-70692100D01*
G75*
G02*
X99356400Y-70743100I0J-51000D01*
G01*
X99356400Y-71643100D01*
G75*
G02*
X99305400Y-71694100I-51000J0D01*
G01*
G37*
G36*
G01*
X106440000Y-84725560D02*
X100840000Y-84725560D01*
G75*
G02*
X100789000Y-84674560I0J51000D01*
G01*
X100789000Y-79074560D01*
G75*
G02*
X100840000Y-79023560I51000J0D01*
G01*
X106440000Y-79023560D01*
G75*
G02*
X106491000Y-79074560I0J-51000D01*
G01*
X106491000Y-84674560D01*
G75*
G02*
X106440000Y-84725560I-51000J0D01*
G01*
G37*
G36*
G01*
X100603000Y-84800560D02*
X99802000Y-84800560D01*
G75*
G02*
X99714000Y-84712560I0J88000D01*
G01*
X99714000Y-84536560D01*
G75*
G02*
X99802000Y-84448560I88000J0D01*
G01*
X100603000Y-84448560D01*
G75*
G02*
X100691000Y-84536560I0J-88000D01*
G01*
X100691000Y-84712560D01*
G75*
G02*
X100603000Y-84800560I-88000J0D01*
G01*
G37*
G36*
G01*
X100603000Y-84300560D02*
X99802000Y-84300560D01*
G75*
G02*
X99714000Y-84212560I0J88000D01*
G01*
X99714000Y-84036560D01*
G75*
G02*
X99802000Y-83948560I88000J0D01*
G01*
X100603000Y-83948560D01*
G75*
G02*
X100691000Y-84036560I0J-88000D01*
G01*
X100691000Y-84212560D01*
G75*
G02*
X100603000Y-84300560I-88000J0D01*
G01*
G37*
G36*
G01*
X100603000Y-83800560D02*
X99802000Y-83800560D01*
G75*
G02*
X99714000Y-83712560I0J88000D01*
G01*
X99714000Y-83536560D01*
G75*
G02*
X99802000Y-83448560I88000J0D01*
G01*
X100603000Y-83448560D01*
G75*
G02*
X100691000Y-83536560I0J-88000D01*
G01*
X100691000Y-83712560D01*
G75*
G02*
X100603000Y-83800560I-88000J0D01*
G01*
G37*
G36*
G01*
X100603000Y-83300560D02*
X99802000Y-83300560D01*
G75*
G02*
X99714000Y-83212560I0J88000D01*
G01*
X99714000Y-83036560D01*
G75*
G02*
X99802000Y-82948560I88000J0D01*
G01*
X100603000Y-82948560D01*
G75*
G02*
X100691000Y-83036560I0J-88000D01*
G01*
X100691000Y-83212560D01*
G75*
G02*
X100603000Y-83300560I-88000J0D01*
G01*
G37*
G36*
G01*
X100603000Y-82800560D02*
X99802000Y-82800560D01*
G75*
G02*
X99714000Y-82712560I0J88000D01*
G01*
X99714000Y-82536560D01*
G75*
G02*
X99802000Y-82448560I88000J0D01*
G01*
X100603000Y-82448560D01*
G75*
G02*
X100691000Y-82536560I0J-88000D01*
G01*
X100691000Y-82712560D01*
G75*
G02*
X100603000Y-82800560I-88000J0D01*
G01*
G37*
G36*
G01*
X100603000Y-82300560D02*
X99802000Y-82300560D01*
G75*
G02*
X99714000Y-82212560I0J88000D01*
G01*
X99714000Y-82036560D01*
G75*
G02*
X99802000Y-81948560I88000J0D01*
G01*
X100603000Y-81948560D01*
G75*
G02*
X100691000Y-82036560I0J-88000D01*
G01*
X100691000Y-82212560D01*
G75*
G02*
X100603000Y-82300560I-88000J0D01*
G01*
G37*
G36*
G01*
X100603000Y-81800560D02*
X99802000Y-81800560D01*
G75*
G02*
X99714000Y-81712560I0J88000D01*
G01*
X99714000Y-81536560D01*
G75*
G02*
X99802000Y-81448560I88000J0D01*
G01*
X100603000Y-81448560D01*
G75*
G02*
X100691000Y-81536560I0J-88000D01*
G01*
X100691000Y-81712560D01*
G75*
G02*
X100603000Y-81800560I-88000J0D01*
G01*
G37*
G36*
G01*
X100603000Y-81300560D02*
X99802000Y-81300560D01*
G75*
G02*
X99714000Y-81212560I0J88000D01*
G01*
X99714000Y-81036560D01*
G75*
G02*
X99802000Y-80948560I88000J0D01*
G01*
X100603000Y-80948560D01*
G75*
G02*
X100691000Y-81036560I0J-88000D01*
G01*
X100691000Y-81212560D01*
G75*
G02*
X100603000Y-81300560I-88000J0D01*
G01*
G37*
G36*
G01*
X100603000Y-80800560D02*
X99802000Y-80800560D01*
G75*
G02*
X99714000Y-80712560I0J88000D01*
G01*
X99714000Y-80536560D01*
G75*
G02*
X99802000Y-80448560I88000J0D01*
G01*
X100603000Y-80448560D01*
G75*
G02*
X100691000Y-80536560I0J-88000D01*
G01*
X100691000Y-80712560D01*
G75*
G02*
X100603000Y-80800560I-88000J0D01*
G01*
G37*
G36*
G01*
X100603000Y-80300560D02*
X99802000Y-80300560D01*
G75*
G02*
X99714000Y-80212560I0J88000D01*
G01*
X99714000Y-80036560D01*
G75*
G02*
X99802000Y-79948560I88000J0D01*
G01*
X100603000Y-79948560D01*
G75*
G02*
X100691000Y-80036560I0J-88000D01*
G01*
X100691000Y-80212560D01*
G75*
G02*
X100603000Y-80300560I-88000J0D01*
G01*
G37*
G36*
G01*
X100603000Y-79800560D02*
X99802000Y-79800560D01*
G75*
G02*
X99714000Y-79712560I0J88000D01*
G01*
X99714000Y-79536560D01*
G75*
G02*
X99802000Y-79448560I88000J0D01*
G01*
X100603000Y-79448560D01*
G75*
G02*
X100691000Y-79536560I0J-88000D01*
G01*
X100691000Y-79712560D01*
G75*
G02*
X100603000Y-79800560I-88000J0D01*
G01*
G37*
G36*
G01*
X100603000Y-79300560D02*
X99802000Y-79300560D01*
G75*
G02*
X99714000Y-79212560I0J88000D01*
G01*
X99714000Y-79036560D01*
G75*
G02*
X99802000Y-78948560I88000J0D01*
G01*
X100603000Y-78948560D01*
G75*
G02*
X100691000Y-79036560I0J-88000D01*
G01*
X100691000Y-79212560D01*
G75*
G02*
X100603000Y-79300560I-88000J0D01*
G01*
G37*
G36*
G01*
X100978000Y-78925560D02*
X100802000Y-78925560D01*
G75*
G02*
X100714000Y-78837560I0J88000D01*
G01*
X100714000Y-78036560D01*
G75*
G02*
X100802000Y-77948560I88000J0D01*
G01*
X100978000Y-77948560D01*
G75*
G02*
X101066000Y-78036560I0J-88000D01*
G01*
X101066000Y-78837560D01*
G75*
G02*
X100978000Y-78925560I-88000J0D01*
G01*
G37*
G36*
G01*
X101478000Y-78925560D02*
X101302000Y-78925560D01*
G75*
G02*
X101214000Y-78837560I0J88000D01*
G01*
X101214000Y-78036560D01*
G75*
G02*
X101302000Y-77948560I88000J0D01*
G01*
X101478000Y-77948560D01*
G75*
G02*
X101566000Y-78036560I0J-88000D01*
G01*
X101566000Y-78837560D01*
G75*
G02*
X101478000Y-78925560I-88000J0D01*
G01*
G37*
G36*
G01*
X101978000Y-78925560D02*
X101802000Y-78925560D01*
G75*
G02*
X101714000Y-78837560I0J88000D01*
G01*
X101714000Y-78036560D01*
G75*
G02*
X101802000Y-77948560I88000J0D01*
G01*
X101978000Y-77948560D01*
G75*
G02*
X102066000Y-78036560I0J-88000D01*
G01*
X102066000Y-78837560D01*
G75*
G02*
X101978000Y-78925560I-88000J0D01*
G01*
G37*
G36*
G01*
X102478000Y-78925560D02*
X102302000Y-78925560D01*
G75*
G02*
X102214000Y-78837560I0J88000D01*
G01*
X102214000Y-78036560D01*
G75*
G02*
X102302000Y-77948560I88000J0D01*
G01*
X102478000Y-77948560D01*
G75*
G02*
X102566000Y-78036560I0J-88000D01*
G01*
X102566000Y-78837560D01*
G75*
G02*
X102478000Y-78925560I-88000J0D01*
G01*
G37*
G36*
G01*
X102978000Y-78925560D02*
X102802000Y-78925560D01*
G75*
G02*
X102714000Y-78837560I0J88000D01*
G01*
X102714000Y-78036560D01*
G75*
G02*
X102802000Y-77948560I88000J0D01*
G01*
X102978000Y-77948560D01*
G75*
G02*
X103066000Y-78036560I0J-88000D01*
G01*
X103066000Y-78837560D01*
G75*
G02*
X102978000Y-78925560I-88000J0D01*
G01*
G37*
G36*
G01*
X103478000Y-78925560D02*
X103302000Y-78925560D01*
G75*
G02*
X103214000Y-78837560I0J88000D01*
G01*
X103214000Y-78036560D01*
G75*
G02*
X103302000Y-77948560I88000J0D01*
G01*
X103478000Y-77948560D01*
G75*
G02*
X103566000Y-78036560I0J-88000D01*
G01*
X103566000Y-78837560D01*
G75*
G02*
X103478000Y-78925560I-88000J0D01*
G01*
G37*
G36*
G01*
X103978000Y-78925560D02*
X103802000Y-78925560D01*
G75*
G02*
X103714000Y-78837560I0J88000D01*
G01*
X103714000Y-78036560D01*
G75*
G02*
X103802000Y-77948560I88000J0D01*
G01*
X103978000Y-77948560D01*
G75*
G02*
X104066000Y-78036560I0J-88000D01*
G01*
X104066000Y-78837560D01*
G75*
G02*
X103978000Y-78925560I-88000J0D01*
G01*
G37*
G36*
G01*
X104478000Y-78925560D02*
X104302000Y-78925560D01*
G75*
G02*
X104214000Y-78837560I0J88000D01*
G01*
X104214000Y-78036560D01*
G75*
G02*
X104302000Y-77948560I88000J0D01*
G01*
X104478000Y-77948560D01*
G75*
G02*
X104566000Y-78036560I0J-88000D01*
G01*
X104566000Y-78837560D01*
G75*
G02*
X104478000Y-78925560I-88000J0D01*
G01*
G37*
G36*
G01*
X104978000Y-78925560D02*
X104802000Y-78925560D01*
G75*
G02*
X104714000Y-78837560I0J88000D01*
G01*
X104714000Y-78036560D01*
G75*
G02*
X104802000Y-77948560I88000J0D01*
G01*
X104978000Y-77948560D01*
G75*
G02*
X105066000Y-78036560I0J-88000D01*
G01*
X105066000Y-78837560D01*
G75*
G02*
X104978000Y-78925560I-88000J0D01*
G01*
G37*
G36*
G01*
X105478000Y-78925560D02*
X105302000Y-78925560D01*
G75*
G02*
X105214000Y-78837560I0J88000D01*
G01*
X105214000Y-78036560D01*
G75*
G02*
X105302000Y-77948560I88000J0D01*
G01*
X105478000Y-77948560D01*
G75*
G02*
X105566000Y-78036560I0J-88000D01*
G01*
X105566000Y-78837560D01*
G75*
G02*
X105478000Y-78925560I-88000J0D01*
G01*
G37*
G36*
G01*
X105978000Y-78925560D02*
X105802000Y-78925560D01*
G75*
G02*
X105714000Y-78837560I0J88000D01*
G01*
X105714000Y-78036560D01*
G75*
G02*
X105802000Y-77948560I88000J0D01*
G01*
X105978000Y-77948560D01*
G75*
G02*
X106066000Y-78036560I0J-88000D01*
G01*
X106066000Y-78837560D01*
G75*
G02*
X105978000Y-78925560I-88000J0D01*
G01*
G37*
G36*
G01*
X106478000Y-78925560D02*
X106302000Y-78925560D01*
G75*
G02*
X106214000Y-78837560I0J88000D01*
G01*
X106214000Y-78036560D01*
G75*
G02*
X106302000Y-77948560I88000J0D01*
G01*
X106478000Y-77948560D01*
G75*
G02*
X106566000Y-78036560I0J-88000D01*
G01*
X106566000Y-78837560D01*
G75*
G02*
X106478000Y-78925560I-88000J0D01*
G01*
G37*
G36*
G01*
X107478000Y-79300560D02*
X106677000Y-79300560D01*
G75*
G02*
X106589000Y-79212560I0J88000D01*
G01*
X106589000Y-79036560D01*
G75*
G02*
X106677000Y-78948560I88000J0D01*
G01*
X107478000Y-78948560D01*
G75*
G02*
X107566000Y-79036560I0J-88000D01*
G01*
X107566000Y-79212560D01*
G75*
G02*
X107478000Y-79300560I-88000J0D01*
G01*
G37*
G36*
G01*
X107478000Y-79800560D02*
X106677000Y-79800560D01*
G75*
G02*
X106589000Y-79712560I0J88000D01*
G01*
X106589000Y-79536560D01*
G75*
G02*
X106677000Y-79448560I88000J0D01*
G01*
X107478000Y-79448560D01*
G75*
G02*
X107566000Y-79536560I0J-88000D01*
G01*
X107566000Y-79712560D01*
G75*
G02*
X107478000Y-79800560I-88000J0D01*
G01*
G37*
G36*
G01*
X107478000Y-80300560D02*
X106677000Y-80300560D01*
G75*
G02*
X106589000Y-80212560I0J88000D01*
G01*
X106589000Y-80036560D01*
G75*
G02*
X106677000Y-79948560I88000J0D01*
G01*
X107478000Y-79948560D01*
G75*
G02*
X107566000Y-80036560I0J-88000D01*
G01*
X107566000Y-80212560D01*
G75*
G02*
X107478000Y-80300560I-88000J0D01*
G01*
G37*
G36*
G01*
X107478000Y-80800560D02*
X106677000Y-80800560D01*
G75*
G02*
X106589000Y-80712560I0J88000D01*
G01*
X106589000Y-80536560D01*
G75*
G02*
X106677000Y-80448560I88000J0D01*
G01*
X107478000Y-80448560D01*
G75*
G02*
X107566000Y-80536560I0J-88000D01*
G01*
X107566000Y-80712560D01*
G75*
G02*
X107478000Y-80800560I-88000J0D01*
G01*
G37*
G36*
G01*
X107478000Y-81300560D02*
X106677000Y-81300560D01*
G75*
G02*
X106589000Y-81212560I0J88000D01*
G01*
X106589000Y-81036560D01*
G75*
G02*
X106677000Y-80948560I88000J0D01*
G01*
X107478000Y-80948560D01*
G75*
G02*
X107566000Y-81036560I0J-88000D01*
G01*
X107566000Y-81212560D01*
G75*
G02*
X107478000Y-81300560I-88000J0D01*
G01*
G37*
G36*
G01*
X107478000Y-81800560D02*
X106677000Y-81800560D01*
G75*
G02*
X106589000Y-81712560I0J88000D01*
G01*
X106589000Y-81536560D01*
G75*
G02*
X106677000Y-81448560I88000J0D01*
G01*
X107478000Y-81448560D01*
G75*
G02*
X107566000Y-81536560I0J-88000D01*
G01*
X107566000Y-81712560D01*
G75*
G02*
X107478000Y-81800560I-88000J0D01*
G01*
G37*
G36*
G01*
X107478000Y-82300560D02*
X106677000Y-82300560D01*
G75*
G02*
X106589000Y-82212560I0J88000D01*
G01*
X106589000Y-82036560D01*
G75*
G02*
X106677000Y-81948560I88000J0D01*
G01*
X107478000Y-81948560D01*
G75*
G02*
X107566000Y-82036560I0J-88000D01*
G01*
X107566000Y-82212560D01*
G75*
G02*
X107478000Y-82300560I-88000J0D01*
G01*
G37*
G36*
G01*
X107478000Y-82800560D02*
X106677000Y-82800560D01*
G75*
G02*
X106589000Y-82712560I0J88000D01*
G01*
X106589000Y-82536560D01*
G75*
G02*
X106677000Y-82448560I88000J0D01*
G01*
X107478000Y-82448560D01*
G75*
G02*
X107566000Y-82536560I0J-88000D01*
G01*
X107566000Y-82712560D01*
G75*
G02*
X107478000Y-82800560I-88000J0D01*
G01*
G37*
G36*
G01*
X107478000Y-83300560D02*
X106677000Y-83300560D01*
G75*
G02*
X106589000Y-83212560I0J88000D01*
G01*
X106589000Y-83036560D01*
G75*
G02*
X106677000Y-82948560I88000J0D01*
G01*
X107478000Y-82948560D01*
G75*
G02*
X107566000Y-83036560I0J-88000D01*
G01*
X107566000Y-83212560D01*
G75*
G02*
X107478000Y-83300560I-88000J0D01*
G01*
G37*
G36*
G01*
X107478000Y-83800560D02*
X106677000Y-83800560D01*
G75*
G02*
X106589000Y-83712560I0J88000D01*
G01*
X106589000Y-83536560D01*
G75*
G02*
X106677000Y-83448560I88000J0D01*
G01*
X107478000Y-83448560D01*
G75*
G02*
X107566000Y-83536560I0J-88000D01*
G01*
X107566000Y-83712560D01*
G75*
G02*
X107478000Y-83800560I-88000J0D01*
G01*
G37*
G36*
G01*
X107478000Y-84300560D02*
X106677000Y-84300560D01*
G75*
G02*
X106589000Y-84212560I0J88000D01*
G01*
X106589000Y-84036560D01*
G75*
G02*
X106677000Y-83948560I88000J0D01*
G01*
X107478000Y-83948560D01*
G75*
G02*
X107566000Y-84036560I0J-88000D01*
G01*
X107566000Y-84212560D01*
G75*
G02*
X107478000Y-84300560I-88000J0D01*
G01*
G37*
G36*
G01*
X107478000Y-84800560D02*
X106677000Y-84800560D01*
G75*
G02*
X106589000Y-84712560I0J88000D01*
G01*
X106589000Y-84536560D01*
G75*
G02*
X106677000Y-84448560I88000J0D01*
G01*
X107478000Y-84448560D01*
G75*
G02*
X107566000Y-84536560I0J-88000D01*
G01*
X107566000Y-84712560D01*
G75*
G02*
X107478000Y-84800560I-88000J0D01*
G01*
G37*
G36*
G01*
X106478000Y-85800560D02*
X106302000Y-85800560D01*
G75*
G02*
X106214000Y-85712560I0J88000D01*
G01*
X106214000Y-84911560D01*
G75*
G02*
X106302000Y-84823560I88000J0D01*
G01*
X106478000Y-84823560D01*
G75*
G02*
X106566000Y-84911560I0J-88000D01*
G01*
X106566000Y-85712560D01*
G75*
G02*
X106478000Y-85800560I-88000J0D01*
G01*
G37*
G36*
G01*
X105978000Y-85800560D02*
X105802000Y-85800560D01*
G75*
G02*
X105714000Y-85712560I0J88000D01*
G01*
X105714000Y-84911560D01*
G75*
G02*
X105802000Y-84823560I88000J0D01*
G01*
X105978000Y-84823560D01*
G75*
G02*
X106066000Y-84911560I0J-88000D01*
G01*
X106066000Y-85712560D01*
G75*
G02*
X105978000Y-85800560I-88000J0D01*
G01*
G37*
G36*
G01*
X105478000Y-85800560D02*
X105302000Y-85800560D01*
G75*
G02*
X105214000Y-85712560I0J88000D01*
G01*
X105214000Y-84911560D01*
G75*
G02*
X105302000Y-84823560I88000J0D01*
G01*
X105478000Y-84823560D01*
G75*
G02*
X105566000Y-84911560I0J-88000D01*
G01*
X105566000Y-85712560D01*
G75*
G02*
X105478000Y-85800560I-88000J0D01*
G01*
G37*
G36*
G01*
X104978000Y-85800560D02*
X104802000Y-85800560D01*
G75*
G02*
X104714000Y-85712560I0J88000D01*
G01*
X104714000Y-84911560D01*
G75*
G02*
X104802000Y-84823560I88000J0D01*
G01*
X104978000Y-84823560D01*
G75*
G02*
X105066000Y-84911560I0J-88000D01*
G01*
X105066000Y-85712560D01*
G75*
G02*
X104978000Y-85800560I-88000J0D01*
G01*
G37*
G36*
G01*
X104478000Y-85800560D02*
X104302000Y-85800560D01*
G75*
G02*
X104214000Y-85712560I0J88000D01*
G01*
X104214000Y-84911560D01*
G75*
G02*
X104302000Y-84823560I88000J0D01*
G01*
X104478000Y-84823560D01*
G75*
G02*
X104566000Y-84911560I0J-88000D01*
G01*
X104566000Y-85712560D01*
G75*
G02*
X104478000Y-85800560I-88000J0D01*
G01*
G37*
G36*
G01*
X103978000Y-85800560D02*
X103802000Y-85800560D01*
G75*
G02*
X103714000Y-85712560I0J88000D01*
G01*
X103714000Y-84911560D01*
G75*
G02*
X103802000Y-84823560I88000J0D01*
G01*
X103978000Y-84823560D01*
G75*
G02*
X104066000Y-84911560I0J-88000D01*
G01*
X104066000Y-85712560D01*
G75*
G02*
X103978000Y-85800560I-88000J0D01*
G01*
G37*
G36*
G01*
X103478000Y-85800560D02*
X103302000Y-85800560D01*
G75*
G02*
X103214000Y-85712560I0J88000D01*
G01*
X103214000Y-84911560D01*
G75*
G02*
X103302000Y-84823560I88000J0D01*
G01*
X103478000Y-84823560D01*
G75*
G02*
X103566000Y-84911560I0J-88000D01*
G01*
X103566000Y-85712560D01*
G75*
G02*
X103478000Y-85800560I-88000J0D01*
G01*
G37*
G36*
G01*
X102978000Y-85800560D02*
X102802000Y-85800560D01*
G75*
G02*
X102714000Y-85712560I0J88000D01*
G01*
X102714000Y-84911560D01*
G75*
G02*
X102802000Y-84823560I88000J0D01*
G01*
X102978000Y-84823560D01*
G75*
G02*
X103066000Y-84911560I0J-88000D01*
G01*
X103066000Y-85712560D01*
G75*
G02*
X102978000Y-85800560I-88000J0D01*
G01*
G37*
G36*
G01*
X102478000Y-85800560D02*
X102302000Y-85800560D01*
G75*
G02*
X102214000Y-85712560I0J88000D01*
G01*
X102214000Y-84911560D01*
G75*
G02*
X102302000Y-84823560I88000J0D01*
G01*
X102478000Y-84823560D01*
G75*
G02*
X102566000Y-84911560I0J-88000D01*
G01*
X102566000Y-85712560D01*
G75*
G02*
X102478000Y-85800560I-88000J0D01*
G01*
G37*
G36*
G01*
X101978000Y-85800560D02*
X101802000Y-85800560D01*
G75*
G02*
X101714000Y-85712560I0J88000D01*
G01*
X101714000Y-84911560D01*
G75*
G02*
X101802000Y-84823560I88000J0D01*
G01*
X101978000Y-84823560D01*
G75*
G02*
X102066000Y-84911560I0J-88000D01*
G01*
X102066000Y-85712560D01*
G75*
G02*
X101978000Y-85800560I-88000J0D01*
G01*
G37*
G36*
G01*
X101478000Y-85800560D02*
X101302000Y-85800560D01*
G75*
G02*
X101214000Y-85712560I0J88000D01*
G01*
X101214000Y-84911560D01*
G75*
G02*
X101302000Y-84823560I88000J0D01*
G01*
X101478000Y-84823560D01*
G75*
G02*
X101566000Y-84911560I0J-88000D01*
G01*
X101566000Y-85712560D01*
G75*
G02*
X101478000Y-85800560I-88000J0D01*
G01*
G37*
G36*
G01*
X100978000Y-85800560D02*
X100802000Y-85800560D01*
G75*
G02*
X100714000Y-85712560I0J88000D01*
G01*
X100714000Y-84911560D01*
G75*
G02*
X100802000Y-84823560I88000J0D01*
G01*
X100978000Y-84823560D01*
G75*
G02*
X101066000Y-84911560I0J-88000D01*
G01*
X101066000Y-85712560D01*
G75*
G02*
X100978000Y-85800560I-88000J0D01*
G01*
G37*
G36*
G01*
X97405800Y-92017100D02*
X97405800Y-92438100D01*
G75*
G02*
X97245300Y-92598600I-160500J0D01*
G01*
X96924300Y-92598600D01*
G75*
G02*
X96763800Y-92438100I0J160500D01*
G01*
X96763800Y-92017100D01*
G75*
G02*
X96924300Y-91856600I160500J0D01*
G01*
X97245300Y-91856600D01*
G75*
G02*
X97405800Y-92017100I0J-160500D01*
G01*
G37*
G36*
G01*
X98425800Y-92017100D02*
X98425800Y-92438100D01*
G75*
G02*
X98265300Y-92598600I-160500J0D01*
G01*
X97944300Y-92598600D01*
G75*
G02*
X97783800Y-92438100I0J160500D01*
G01*
X97783800Y-92017100D01*
G75*
G02*
X97944300Y-91856600I160500J0D01*
G01*
X98265300Y-91856600D01*
G75*
G02*
X98425800Y-92017100I0J-160500D01*
G01*
G37*
G36*
G01*
X101647600Y-90975700D02*
X101647600Y-91396700D01*
G75*
G02*
X101487100Y-91557200I-160500J0D01*
G01*
X101166100Y-91557200D01*
G75*
G02*
X101005600Y-91396700I0J160500D01*
G01*
X101005600Y-90975700D01*
G75*
G02*
X101166100Y-90815200I160500J0D01*
G01*
X101487100Y-90815200D01*
G75*
G02*
X101647600Y-90975700I0J-160500D01*
G01*
G37*
G36*
G01*
X102667600Y-90975700D02*
X102667600Y-91396700D01*
G75*
G02*
X102507100Y-91557200I-160500J0D01*
G01*
X102186100Y-91557200D01*
G75*
G02*
X102025600Y-91396700I0J160500D01*
G01*
X102025600Y-90975700D01*
G75*
G02*
X102186100Y-90815200I160500J0D01*
G01*
X102507100Y-90815200D01*
G75*
G02*
X102667600Y-90975700I0J-160500D01*
G01*
G37*
G36*
G01*
X101168900Y-75068400D02*
X101589900Y-75068400D01*
G75*
G02*
X101750400Y-75228900I0J-160500D01*
G01*
X101750400Y-75549900D01*
G75*
G02*
X101589900Y-75710400I-160500J0D01*
G01*
X101168900Y-75710400D01*
G75*
G02*
X101008400Y-75549900I0J160500D01*
G01*
X101008400Y-75228900D01*
G75*
G02*
X101168900Y-75068400I160500J0D01*
G01*
G37*
G36*
G01*
X101168900Y-74048400D02*
X101589900Y-74048400D01*
G75*
G02*
X101750400Y-74208900I0J-160500D01*
G01*
X101750400Y-74529900D01*
G75*
G02*
X101589900Y-74690400I-160500J0D01*
G01*
X101168900Y-74690400D01*
G75*
G02*
X101008400Y-74529900I0J160500D01*
G01*
X101008400Y-74208900D01*
G75*
G02*
X101168900Y-74048400I160500J0D01*
G01*
G37*
G36*
G01*
X103621900Y-74690400D02*
X103200900Y-74690400D01*
G75*
G02*
X103040400Y-74529900I0J160500D01*
G01*
X103040400Y-74208900D01*
G75*
G02*
X103200900Y-74048400I160500J0D01*
G01*
X103621900Y-74048400D01*
G75*
G02*
X103782400Y-74208900I0J-160500D01*
G01*
X103782400Y-74529900D01*
G75*
G02*
X103621900Y-74690400I-160500J0D01*
G01*
G37*
G36*
G01*
X103621900Y-75710400D02*
X103200900Y-75710400D01*
G75*
G02*
X103040400Y-75549900I0J160500D01*
G01*
X103040400Y-75228900D01*
G75*
G02*
X103200900Y-75068400I160500J0D01*
G01*
X103621900Y-75068400D01*
G75*
G02*
X103782400Y-75228900I0J-160500D01*
G01*
X103782400Y-75549900D01*
G75*
G02*
X103621900Y-75710400I-160500J0D01*
G01*
G37*
G36*
G01*
X102605900Y-74690400D02*
X102184900Y-74690400D01*
G75*
G02*
X102024400Y-74529900I0J160500D01*
G01*
X102024400Y-74208900D01*
G75*
G02*
X102184900Y-74048400I160500J0D01*
G01*
X102605900Y-74048400D01*
G75*
G02*
X102766400Y-74208900I0J-160500D01*
G01*
X102766400Y-74529900D01*
G75*
G02*
X102605900Y-74690400I-160500J0D01*
G01*
G37*
G36*
G01*
X102605900Y-75710400D02*
X102184900Y-75710400D01*
G75*
G02*
X102024400Y-75549900I0J160500D01*
G01*
X102024400Y-75228900D01*
G75*
G02*
X102184900Y-75068400I160500J0D01*
G01*
X102605900Y-75068400D01*
G75*
G02*
X102766400Y-75228900I0J-160500D01*
G01*
X102766400Y-75549900D01*
G75*
G02*
X102605900Y-75710400I-160500J0D01*
G01*
G37*
G36*
G01*
X101671180Y-67232960D02*
X101250180Y-67232960D01*
G75*
G02*
X101089680Y-67072460I0J160500D01*
G01*
X101089680Y-66751460D01*
G75*
G02*
X101250180Y-66590960I160500J0D01*
G01*
X101671180Y-66590960D01*
G75*
G02*
X101831680Y-66751460I0J-160500D01*
G01*
X101831680Y-67072460D01*
G75*
G02*
X101671180Y-67232960I-160500J0D01*
G01*
G37*
G36*
G01*
X101671180Y-68252960D02*
X101250180Y-68252960D01*
G75*
G02*
X101089680Y-68092460I0J160500D01*
G01*
X101089680Y-67771460D01*
G75*
G02*
X101250180Y-67610960I160500J0D01*
G01*
X101671180Y-67610960D01*
G75*
G02*
X101831680Y-67771460I0J-160500D01*
G01*
X101831680Y-68092460D01*
G75*
G02*
X101671180Y-68252960I-160500J0D01*
G01*
G37*
G36*
G01*
X105105260Y-66760520D02*
X104684260Y-66760520D01*
G75*
G02*
X104523760Y-66600020I0J160500D01*
G01*
X104523760Y-66279020D01*
G75*
G02*
X104684260Y-66118520I160500J0D01*
G01*
X105105260Y-66118520D01*
G75*
G02*
X105265760Y-66279020I0J-160500D01*
G01*
X105265760Y-66600020D01*
G75*
G02*
X105105260Y-66760520I-160500J0D01*
G01*
G37*
G36*
G01*
X105105260Y-67780520D02*
X104684260Y-67780520D01*
G75*
G02*
X104523760Y-67620020I0J160500D01*
G01*
X104523760Y-67299020D01*
G75*
G02*
X104684260Y-67138520I160500J0D01*
G01*
X105105260Y-67138520D01*
G75*
G02*
X105265760Y-67299020I0J-160500D01*
G01*
X105265760Y-67620020D01*
G75*
G02*
X105105260Y-67780520I-160500J0D01*
G01*
G37*
G36*
G01*
X110068550Y-59696000D02*
X109505050Y-59696000D01*
G75*
G02*
X109260800Y-59451750I0J244250D01*
G01*
X109260800Y-58963250D01*
G75*
G02*
X109505050Y-58719000I244250J0D01*
G01*
X110068550Y-58719000D01*
G75*
G02*
X110312800Y-58963250I0J-244250D01*
G01*
X110312800Y-59451750D01*
G75*
G02*
X110068550Y-59696000I-244250J0D01*
G01*
G37*
G36*
G01*
X110068550Y-61271000D02*
X109505050Y-61271000D01*
G75*
G02*
X109260800Y-61026750I0J244250D01*
G01*
X109260800Y-60538250D01*
G75*
G02*
X109505050Y-60294000I244250J0D01*
G01*
X110068550Y-60294000D01*
G75*
G02*
X110312800Y-60538250I0J-244250D01*
G01*
X110312800Y-61026750D01*
G75*
G02*
X110068550Y-61271000I-244250J0D01*
G01*
G37*
G36*
G01*
X103470680Y-86621900D02*
X103470680Y-87012900D01*
G75*
G02*
X103305180Y-87178400I-165500J0D01*
G01*
X102974180Y-87178400D01*
G75*
G02*
X102808680Y-87012900I0J165500D01*
G01*
X102808680Y-86621900D01*
G75*
G02*
X102974180Y-86456400I165500J0D01*
G01*
X103305180Y-86456400D01*
G75*
G02*
X103470680Y-86621900I0J-165500D01*
G01*
G37*
G36*
G01*
X104430680Y-86621900D02*
X104430680Y-87012900D01*
G75*
G02*
X104265180Y-87178400I-165500J0D01*
G01*
X103934180Y-87178400D01*
G75*
G02*
X103768680Y-87012900I0J165500D01*
G01*
X103768680Y-86621900D01*
G75*
G02*
X103934180Y-86456400I165500J0D01*
G01*
X104265180Y-86456400D01*
G75*
G02*
X104430680Y-86621900I0J-165500D01*
G01*
G37*
G36*
G01*
X97115600Y-82430900D02*
X97115600Y-82821900D01*
G75*
G02*
X96950100Y-82987400I-165500J0D01*
G01*
X96619100Y-82987400D01*
G75*
G02*
X96453600Y-82821900I0J165500D01*
G01*
X96453600Y-82430900D01*
G75*
G02*
X96619100Y-82265400I165500J0D01*
G01*
X96950100Y-82265400D01*
G75*
G02*
X97115600Y-82430900I0J-165500D01*
G01*
G37*
G36*
G01*
X98075600Y-82430900D02*
X98075600Y-82821900D01*
G75*
G02*
X97910100Y-82987400I-165500J0D01*
G01*
X97579100Y-82987400D01*
G75*
G02*
X97413600Y-82821900I0J165500D01*
G01*
X97413600Y-82430900D01*
G75*
G02*
X97579100Y-82265400I165500J0D01*
G01*
X97910100Y-82265400D01*
G75*
G02*
X98075600Y-82430900I0J-165500D01*
G01*
G37*
G36*
G01*
X108143500Y-78686000D02*
X108534500Y-78686000D01*
G75*
G02*
X108700000Y-78851500I0J-165500D01*
G01*
X108700000Y-79182500D01*
G75*
G02*
X108534500Y-79348000I-165500J0D01*
G01*
X108143500Y-79348000D01*
G75*
G02*
X107978000Y-79182500I0J165500D01*
G01*
X107978000Y-78851500D01*
G75*
G02*
X108143500Y-78686000I165500J0D01*
G01*
G37*
G36*
G01*
X108143500Y-77726000D02*
X108534500Y-77726000D01*
G75*
G02*
X108700000Y-77891500I0J-165500D01*
G01*
X108700000Y-78222500D01*
G75*
G02*
X108534500Y-78388000I-165500J0D01*
G01*
X108143500Y-78388000D01*
G75*
G02*
X107978000Y-78222500I0J165500D01*
G01*
X107978000Y-77891500D01*
G75*
G02*
X108143500Y-77726000I165500J0D01*
G01*
G37*
G36*
G01*
X99280500Y-67594600D02*
X99280500Y-67203600D01*
G75*
G02*
X99446000Y-67038100I165500J0D01*
G01*
X99777000Y-67038100D01*
G75*
G02*
X99942500Y-67203600I0J-165500D01*
G01*
X99942500Y-67594600D01*
G75*
G02*
X99777000Y-67760100I-165500J0D01*
G01*
X99446000Y-67760100D01*
G75*
G02*
X99280500Y-67594600I0J165500D01*
G01*
G37*
G36*
G01*
X98320500Y-67594600D02*
X98320500Y-67203600D01*
G75*
G02*
X98486000Y-67038100I165500J0D01*
G01*
X98817000Y-67038100D01*
G75*
G02*
X98982500Y-67203600I0J-165500D01*
G01*
X98982500Y-67594600D01*
G75*
G02*
X98817000Y-67760100I-165500J0D01*
G01*
X98486000Y-67760100D01*
G75*
G02*
X98320500Y-67594600I0J165500D01*
G01*
G37*
G36*
G01*
X98717238Y-85107841D02*
X98440759Y-84831362D01*
G75*
G02*
X98440759Y-84597310I117026J117026D01*
G01*
X98674812Y-84363257D01*
G75*
G02*
X98908864Y-84363257I117026J-117026D01*
G01*
X99185343Y-84639736D01*
G75*
G02*
X99185343Y-84873788I-117026J-117026D01*
G01*
X98951290Y-85107841D01*
G75*
G02*
X98717238Y-85107841I-117026J117026D01*
G01*
G37*
G36*
G01*
X98038416Y-85786663D02*
X97761937Y-85510184D01*
G75*
G02*
X97761937Y-85276132I117026J117026D01*
G01*
X97995990Y-85042079D01*
G75*
G02*
X98230042Y-85042079I117026J-117026D01*
G01*
X98506521Y-85318558D01*
G75*
G02*
X98506521Y-85552610I-117026J-117026D01*
G01*
X98272468Y-85786663D01*
G75*
G02*
X98038416Y-85786663I-117026J117026D01*
G01*
G37*
G36*
G01*
X100011200Y-76995300D02*
X100011200Y-77386300D01*
G75*
G02*
X99845700Y-77551800I-165500J0D01*
G01*
X99514700Y-77551800D01*
G75*
G02*
X99349200Y-77386300I0J165500D01*
G01*
X99349200Y-76995300D01*
G75*
G02*
X99514700Y-76829800I165500J0D01*
G01*
X99845700Y-76829800D01*
G75*
G02*
X100011200Y-76995300I0J-165500D01*
G01*
G37*
G36*
G01*
X100971200Y-76995300D02*
X100971200Y-77386300D01*
G75*
G02*
X100805700Y-77551800I-165500J0D01*
G01*
X100474700Y-77551800D01*
G75*
G02*
X100309200Y-77386300I0J165500D01*
G01*
X100309200Y-76995300D01*
G75*
G02*
X100474700Y-76829800I165500J0D01*
G01*
X100805700Y-76829800D01*
G75*
G02*
X100971200Y-76995300I0J-165500D01*
G01*
G37*
G36*
G01*
X100182200Y-72611100D02*
X100182200Y-72220100D01*
G75*
G02*
X100347700Y-72054600I165500J0D01*
G01*
X100678700Y-72054600D01*
G75*
G02*
X100844200Y-72220100I0J-165500D01*
G01*
X100844200Y-72611100D01*
G75*
G02*
X100678700Y-72776600I-165500J0D01*
G01*
X100347700Y-72776600D01*
G75*
G02*
X100182200Y-72611100I0J165500D01*
G01*
G37*
G36*
G01*
X99222200Y-72611100D02*
X99222200Y-72220100D01*
G75*
G02*
X99387700Y-72054600I165500J0D01*
G01*
X99718700Y-72054600D01*
G75*
G02*
X99884200Y-72220100I0J-165500D01*
G01*
X99884200Y-72611100D01*
G75*
G02*
X99718700Y-72776600I-165500J0D01*
G01*
X99387700Y-72776600D01*
G75*
G02*
X99222200Y-72611100I0J165500D01*
G01*
G37*
G36*
G01*
X105668600Y-87241500D02*
X105668600Y-86850500D01*
G75*
G02*
X105834100Y-86685000I165500J0D01*
G01*
X106165100Y-86685000D01*
G75*
G02*
X106330600Y-86850500I0J-165500D01*
G01*
X106330600Y-87241500D01*
G75*
G02*
X106165100Y-87407000I-165500J0D01*
G01*
X105834100Y-87407000D01*
G75*
G02*
X105668600Y-87241500I0J165500D01*
G01*
G37*
G36*
G01*
X104708600Y-87241500D02*
X104708600Y-86850500D01*
G75*
G02*
X104874100Y-86685000I165500J0D01*
G01*
X105205100Y-86685000D01*
G75*
G02*
X105370600Y-86850500I0J-165500D01*
G01*
X105370600Y-87241500D01*
G75*
G02*
X105205100Y-87407000I-165500J0D01*
G01*
X104874100Y-87407000D01*
G75*
G02*
X104708600Y-87241500I0J165500D01*
G01*
G37*
G36*
G01*
X108596400Y-79789300D02*
X108596400Y-80180300D01*
G75*
G02*
X108430900Y-80345800I-165500J0D01*
G01*
X108099900Y-80345800D01*
G75*
G02*
X107934400Y-80180300I0J165500D01*
G01*
X107934400Y-79789300D01*
G75*
G02*
X108099900Y-79623800I165500J0D01*
G01*
X108430900Y-79623800D01*
G75*
G02*
X108596400Y-79789300I0J-165500D01*
G01*
G37*
G36*
G01*
X109556400Y-79789300D02*
X109556400Y-80180300D01*
G75*
G02*
X109390900Y-80345800I-165500J0D01*
G01*
X109059900Y-80345800D01*
G75*
G02*
X108894400Y-80180300I0J165500D01*
G01*
X108894400Y-79789300D01*
G75*
G02*
X109059900Y-79623800I165500J0D01*
G01*
X109390900Y-79623800D01*
G75*
G02*
X109556400Y-79789300I0J-165500D01*
G01*
G37*
D15*
X112550000Y-106985000D03*
X112550000Y-104445000D03*
G36*
G01*
X113451000Y-101055000D02*
X113451000Y-102755000D01*
G75*
G02*
X113400000Y-102806000I-51000J0D01*
G01*
X111700000Y-102806000D01*
G75*
G02*
X111649000Y-102755000I0J51000D01*
G01*
X111649000Y-101055000D01*
G75*
G02*
X111700000Y-101004000I51000J0D01*
G01*
X113400000Y-101004000D01*
G75*
G02*
X113451000Y-101055000I0J-51000D01*
G01*
G37*
X112550000Y-99365000D03*
X112550000Y-96825000D03*
X112550000Y-94285000D03*
X112550000Y-91745000D03*
G36*
G01*
X113451000Y-88355000D02*
X113451000Y-90055000D01*
G75*
G02*
X113400000Y-90106000I-51000J0D01*
G01*
X111700000Y-90106000D01*
G75*
G02*
X111649000Y-90055000I0J51000D01*
G01*
X111649000Y-88355000D01*
G75*
G02*
X111700000Y-88304000I51000J0D01*
G01*
X113400000Y-88304000D01*
G75*
G02*
X113451000Y-88355000I0J-51000D01*
G01*
G37*
X112550000Y-86665000D03*
X112550000Y-84125000D03*
X112550000Y-81585000D03*
X112550000Y-79045000D03*
G36*
G01*
X113451000Y-75655000D02*
X113451000Y-77355000D01*
G75*
G02*
X113400000Y-77406000I-51000J0D01*
G01*
X111700000Y-77406000D01*
G75*
G02*
X111649000Y-77355000I0J51000D01*
G01*
X111649000Y-75655000D01*
G75*
G02*
X111700000Y-75604000I51000J0D01*
G01*
X113400000Y-75604000D01*
G75*
G02*
X113451000Y-75655000I0J-51000D01*
G01*
G37*
X112550000Y-73965000D03*
X112550000Y-71425000D03*
X112550000Y-68885000D03*
X112550000Y-66345000D03*
G36*
G01*
X113451000Y-62955000D02*
X113451000Y-64655000D01*
G75*
G02*
X113400000Y-64706000I-51000J0D01*
G01*
X111700000Y-64706000D01*
G75*
G02*
X111649000Y-64655000I0J51000D01*
G01*
X111649000Y-62955000D01*
G75*
G02*
X111700000Y-62904000I51000J0D01*
G01*
X113400000Y-62904000D01*
G75*
G02*
X113451000Y-62955000I0J-51000D01*
G01*
G37*
X112550000Y-61265000D03*
G36*
G01*
X113451000Y-57875000D02*
X113451000Y-59575000D01*
G75*
G02*
X113400000Y-59626000I-51000J0D01*
G01*
X111700000Y-59626000D01*
G75*
G02*
X111649000Y-59575000I0J51000D01*
G01*
X111649000Y-57875000D01*
G75*
G02*
X111700000Y-57824000I51000J0D01*
G01*
X113400000Y-57824000D01*
G75*
G02*
X113451000Y-57875000I0J-51000D01*
G01*
G37*
G36*
G01*
X116051000Y-98515000D02*
X116051000Y-100215000D01*
G75*
G02*
X116000000Y-100266000I-51000J0D01*
G01*
X112500000Y-100266000D01*
G75*
G02*
X112449000Y-100215000I0J51000D01*
G01*
X112449000Y-98515000D01*
G75*
G02*
X112500000Y-98464000I51000J0D01*
G01*
X116000000Y-98464000D01*
G75*
G02*
X116051000Y-98515000I0J-51000D01*
G01*
G37*
G36*
G01*
X116051000Y-101055000D02*
X116051000Y-102755000D01*
G75*
G02*
X116000000Y-102806000I-51000J0D01*
G01*
X112500000Y-102806000D01*
G75*
G02*
X112449000Y-102755000I0J51000D01*
G01*
X112449000Y-101055000D01*
G75*
G02*
X112500000Y-101004000I51000J0D01*
G01*
X116000000Y-101004000D01*
G75*
G02*
X116051000Y-101055000I0J-51000D01*
G01*
G37*
G36*
G01*
X116051000Y-95975000D02*
X116051000Y-97675000D01*
G75*
G02*
X116000000Y-97726000I-51000J0D01*
G01*
X112500000Y-97726000D01*
G75*
G02*
X112449000Y-97675000I0J51000D01*
G01*
X112449000Y-95975000D01*
G75*
G02*
X112500000Y-95924000I51000J0D01*
G01*
X116000000Y-95924000D01*
G75*
G02*
X116051000Y-95975000I0J-51000D01*
G01*
G37*
G36*
G01*
X116051000Y-103595000D02*
X116051000Y-105295000D01*
G75*
G02*
X116000000Y-105346000I-51000J0D01*
G01*
X112500000Y-105346000D01*
G75*
G02*
X112449000Y-105295000I0J51000D01*
G01*
X112449000Y-103595000D01*
G75*
G02*
X112500000Y-103544000I51000J0D01*
G01*
X116000000Y-103544000D01*
G75*
G02*
X116051000Y-103595000I0J-51000D01*
G01*
G37*
G36*
G01*
X116051000Y-93435000D02*
X116051000Y-95135000D01*
G75*
G02*
X116000000Y-95186000I-51000J0D01*
G01*
X112500000Y-95186000D01*
G75*
G02*
X112449000Y-95135000I0J51000D01*
G01*
X112449000Y-93435000D01*
G75*
G02*
X112500000Y-93384000I51000J0D01*
G01*
X116000000Y-93384000D01*
G75*
G02*
X116051000Y-93435000I0J-51000D01*
G01*
G37*
G36*
G01*
X116051000Y-106135000D02*
X116051000Y-107835000D01*
G75*
G02*
X116000000Y-107886000I-51000J0D01*
G01*
X112500000Y-107886000D01*
G75*
G02*
X112449000Y-107835000I0J51000D01*
G01*
X112449000Y-106135000D01*
G75*
G02*
X112500000Y-106084000I51000J0D01*
G01*
X116000000Y-106084000D01*
G75*
G02*
X116051000Y-106135000I0J-51000D01*
G01*
G37*
G36*
G01*
X116051000Y-85815000D02*
X116051000Y-87515000D01*
G75*
G02*
X116000000Y-87566000I-51000J0D01*
G01*
X112500000Y-87566000D01*
G75*
G02*
X112449000Y-87515000I0J51000D01*
G01*
X112449000Y-85815000D01*
G75*
G02*
X112500000Y-85764000I51000J0D01*
G01*
X116000000Y-85764000D01*
G75*
G02*
X116051000Y-85815000I0J-51000D01*
G01*
G37*
G36*
G01*
X116051000Y-90895000D02*
X116051000Y-92595000D01*
G75*
G02*
X116000000Y-92646000I-51000J0D01*
G01*
X112500000Y-92646000D01*
G75*
G02*
X112449000Y-92595000I0J51000D01*
G01*
X112449000Y-90895000D01*
G75*
G02*
X112500000Y-90844000I51000J0D01*
G01*
X116000000Y-90844000D01*
G75*
G02*
X116051000Y-90895000I0J-51000D01*
G01*
G37*
G36*
G01*
X116051000Y-83275000D02*
X116051000Y-84975000D01*
G75*
G02*
X116000000Y-85026000I-51000J0D01*
G01*
X112500000Y-85026000D01*
G75*
G02*
X112449000Y-84975000I0J51000D01*
G01*
X112449000Y-83275000D01*
G75*
G02*
X112500000Y-83224000I51000J0D01*
G01*
X116000000Y-83224000D01*
G75*
G02*
X116051000Y-83275000I0J-51000D01*
G01*
G37*
G36*
G01*
X116051000Y-73115000D02*
X116051000Y-74815000D01*
G75*
G02*
X116000000Y-74866000I-51000J0D01*
G01*
X112500000Y-74866000D01*
G75*
G02*
X112449000Y-74815000I0J51000D01*
G01*
X112449000Y-73115000D01*
G75*
G02*
X112500000Y-73064000I51000J0D01*
G01*
X116000000Y-73064000D01*
G75*
G02*
X116051000Y-73115000I0J-51000D01*
G01*
G37*
G36*
G01*
X116051000Y-70575000D02*
X116051000Y-72275000D01*
G75*
G02*
X116000000Y-72326000I-51000J0D01*
G01*
X112500000Y-72326000D01*
G75*
G02*
X112449000Y-72275000I0J51000D01*
G01*
X112449000Y-70575000D01*
G75*
G02*
X112500000Y-70524000I51000J0D01*
G01*
X116000000Y-70524000D01*
G75*
G02*
X116051000Y-70575000I0J-51000D01*
G01*
G37*
G36*
G01*
X116051000Y-68035000D02*
X116051000Y-69735000D01*
G75*
G02*
X116000000Y-69786000I-51000J0D01*
G01*
X112500000Y-69786000D01*
G75*
G02*
X112449000Y-69735000I0J51000D01*
G01*
X112449000Y-68035000D01*
G75*
G02*
X112500000Y-67984000I51000J0D01*
G01*
X116000000Y-67984000D01*
G75*
G02*
X116051000Y-68035000I0J-51000D01*
G01*
G37*
G36*
G01*
X116051000Y-60415000D02*
X116051000Y-62115000D01*
G75*
G02*
X116000000Y-62166000I-51000J0D01*
G01*
X112500000Y-62166000D01*
G75*
G02*
X112449000Y-62115000I0J51000D01*
G01*
X112449000Y-60415000D01*
G75*
G02*
X112500000Y-60364000I51000J0D01*
G01*
X116000000Y-60364000D01*
G75*
G02*
X116051000Y-60415000I0J-51000D01*
G01*
G37*
G36*
G01*
X116051000Y-88355000D02*
X116051000Y-90055000D01*
G75*
G02*
X116000000Y-90106000I-51000J0D01*
G01*
X112500000Y-90106000D01*
G75*
G02*
X112449000Y-90055000I0J51000D01*
G01*
X112449000Y-88355000D01*
G75*
G02*
X112500000Y-88304000I51000J0D01*
G01*
X116000000Y-88304000D01*
G75*
G02*
X116051000Y-88355000I0J-51000D01*
G01*
G37*
G36*
G01*
X116051000Y-75655000D02*
X116051000Y-77355000D01*
G75*
G02*
X116000000Y-77406000I-51000J0D01*
G01*
X112500000Y-77406000D01*
G75*
G02*
X112449000Y-77355000I0J51000D01*
G01*
X112449000Y-75655000D01*
G75*
G02*
X112500000Y-75604000I51000J0D01*
G01*
X116000000Y-75604000D01*
G75*
G02*
X116051000Y-75655000I0J-51000D01*
G01*
G37*
G36*
G01*
X116051000Y-62955000D02*
X116051000Y-64655000D01*
G75*
G02*
X116000000Y-64706000I-51000J0D01*
G01*
X112500000Y-64706000D01*
G75*
G02*
X112449000Y-64655000I0J51000D01*
G01*
X112449000Y-62955000D01*
G75*
G02*
X112500000Y-62904000I51000J0D01*
G01*
X116000000Y-62904000D01*
G75*
G02*
X116051000Y-62955000I0J-51000D01*
G01*
G37*
G36*
G01*
X116051000Y-57875000D02*
X116051000Y-59575000D01*
G75*
G02*
X116000000Y-59626000I-51000J0D01*
G01*
X112500000Y-59626000D01*
G75*
G02*
X112449000Y-59575000I0J51000D01*
G01*
X112449000Y-57875000D01*
G75*
G02*
X112500000Y-57824000I51000J0D01*
G01*
X116000000Y-57824000D01*
G75*
G02*
X116051000Y-57875000I0J-51000D01*
G01*
G37*
G36*
G01*
X116051000Y-78195000D02*
X116051000Y-79895000D01*
G75*
G02*
X116000000Y-79946000I-51000J0D01*
G01*
X112500000Y-79946000D01*
G75*
G02*
X112449000Y-79895000I0J51000D01*
G01*
X112449000Y-78195000D01*
G75*
G02*
X112500000Y-78144000I51000J0D01*
G01*
X116000000Y-78144000D01*
G75*
G02*
X116051000Y-78195000I0J-51000D01*
G01*
G37*
G36*
G01*
X116051000Y-65495000D02*
X116051000Y-67195000D01*
G75*
G02*
X116000000Y-67246000I-51000J0D01*
G01*
X112500000Y-67246000D01*
G75*
G02*
X112449000Y-67195000I0J51000D01*
G01*
X112449000Y-65495000D01*
G75*
G02*
X112500000Y-65444000I51000J0D01*
G01*
X116000000Y-65444000D01*
G75*
G02*
X116051000Y-65495000I0J-51000D01*
G01*
G37*
G36*
G01*
X116051000Y-80735000D02*
X116051000Y-82435000D01*
G75*
G02*
X116000000Y-82486000I-51000J0D01*
G01*
X112500000Y-82486000D01*
G75*
G02*
X112449000Y-82435000I0J51000D01*
G01*
X112449000Y-80735000D01*
G75*
G02*
X112500000Y-80684000I51000J0D01*
G01*
X116000000Y-80684000D01*
G75*
G02*
X116051000Y-80735000I0J-51000D01*
G01*
G37*
X94750000Y-58725000D03*
X94750000Y-61265000D03*
G36*
G01*
X93849000Y-64655000D02*
X93849000Y-62955000D01*
G75*
G02*
X93900000Y-62904000I51000J0D01*
G01*
X95600000Y-62904000D01*
G75*
G02*
X95651000Y-62955000I0J-51000D01*
G01*
X95651000Y-64655000D01*
G75*
G02*
X95600000Y-64706000I-51000J0D01*
G01*
X93900000Y-64706000D01*
G75*
G02*
X93849000Y-64655000I0J51000D01*
G01*
G37*
X94750000Y-66345000D03*
X94750000Y-68885000D03*
X94750000Y-71425000D03*
X94750000Y-73965000D03*
G36*
G01*
X93849000Y-77355000D02*
X93849000Y-75655000D01*
G75*
G02*
X93900000Y-75604000I51000J0D01*
G01*
X95600000Y-75604000D01*
G75*
G02*
X95651000Y-75655000I0J-51000D01*
G01*
X95651000Y-77355000D01*
G75*
G02*
X95600000Y-77406000I-51000J0D01*
G01*
X93900000Y-77406000D01*
G75*
G02*
X93849000Y-77355000I0J51000D01*
G01*
G37*
X94750000Y-79045000D03*
X94750000Y-81585000D03*
X94750000Y-84125000D03*
X94750000Y-86665000D03*
G36*
G01*
X93849000Y-90055000D02*
X93849000Y-88355000D01*
G75*
G02*
X93900000Y-88304000I51000J0D01*
G01*
X95600000Y-88304000D01*
G75*
G02*
X95651000Y-88355000I0J-51000D01*
G01*
X95651000Y-90055000D01*
G75*
G02*
X95600000Y-90106000I-51000J0D01*
G01*
X93900000Y-90106000D01*
G75*
G02*
X93849000Y-90055000I0J51000D01*
G01*
G37*
X94750000Y-91745000D03*
X94750000Y-94285000D03*
X94750000Y-96825000D03*
X94750000Y-99365000D03*
G36*
G01*
X93849000Y-102755000D02*
X93849000Y-101055000D01*
G75*
G02*
X93900000Y-101004000I51000J0D01*
G01*
X95600000Y-101004000D01*
G75*
G02*
X95651000Y-101055000I0J-51000D01*
G01*
X95651000Y-102755000D01*
G75*
G02*
X95600000Y-102806000I-51000J0D01*
G01*
X93900000Y-102806000D01*
G75*
G02*
X93849000Y-102755000I0J51000D01*
G01*
G37*
X94750000Y-104445000D03*
D16*
X94750000Y-106985000D03*
G36*
G01*
X91249000Y-105295000D02*
X91249000Y-103595000D01*
G75*
G02*
X91300000Y-103544000I51000J0D01*
G01*
X94800000Y-103544000D01*
G75*
G02*
X94851000Y-103595000I0J-51000D01*
G01*
X94851000Y-105295000D01*
G75*
G02*
X94800000Y-105346000I-51000J0D01*
G01*
X91300000Y-105346000D01*
G75*
G02*
X91249000Y-105295000I0J51000D01*
G01*
G37*
G36*
G01*
X91249000Y-74815000D02*
X91249000Y-73115000D01*
G75*
G02*
X91300000Y-73064000I51000J0D01*
G01*
X94800000Y-73064000D01*
G75*
G02*
X94851000Y-73115000I0J-51000D01*
G01*
X94851000Y-74815000D01*
G75*
G02*
X94800000Y-74866000I-51000J0D01*
G01*
X91300000Y-74866000D01*
G75*
G02*
X91249000Y-74815000I0J51000D01*
G01*
G37*
G36*
G01*
X91249000Y-100215000D02*
X91249000Y-98515000D01*
G75*
G02*
X91300000Y-98464000I51000J0D01*
G01*
X94800000Y-98464000D01*
G75*
G02*
X94851000Y-98515000I0J-51000D01*
G01*
X94851000Y-100215000D01*
G75*
G02*
X94800000Y-100266000I-51000J0D01*
G01*
X91300000Y-100266000D01*
G75*
G02*
X91249000Y-100215000I0J51000D01*
G01*
G37*
G36*
G01*
X91249000Y-95135000D02*
X91249000Y-93435000D01*
G75*
G02*
X91300000Y-93384000I51000J0D01*
G01*
X94800000Y-93384000D01*
G75*
G02*
X94851000Y-93435000I0J-51000D01*
G01*
X94851000Y-95135000D01*
G75*
G02*
X94800000Y-95186000I-51000J0D01*
G01*
X91300000Y-95186000D01*
G75*
G02*
X91249000Y-95135000I0J51000D01*
G01*
G37*
G36*
G01*
X91249000Y-90055000D02*
X91249000Y-88355000D01*
G75*
G02*
X91300000Y-88304000I51000J0D01*
G01*
X94800000Y-88304000D01*
G75*
G02*
X94851000Y-88355000I0J-51000D01*
G01*
X94851000Y-90055000D01*
G75*
G02*
X94800000Y-90106000I-51000J0D01*
G01*
X91300000Y-90106000D01*
G75*
G02*
X91249000Y-90055000I0J51000D01*
G01*
G37*
G36*
G01*
X91249000Y-87515000D02*
X91249000Y-85815000D01*
G75*
G02*
X91300000Y-85764000I51000J0D01*
G01*
X94800000Y-85764000D01*
G75*
G02*
X94851000Y-85815000I0J-51000D01*
G01*
X94851000Y-87515000D01*
G75*
G02*
X94800000Y-87566000I-51000J0D01*
G01*
X91300000Y-87566000D01*
G75*
G02*
X91249000Y-87515000I0J51000D01*
G01*
G37*
G36*
G01*
X91249000Y-72275000D02*
X91249000Y-70575000D01*
G75*
G02*
X91300000Y-70524000I51000J0D01*
G01*
X94800000Y-70524000D01*
G75*
G02*
X94851000Y-70575000I0J-51000D01*
G01*
X94851000Y-72275000D01*
G75*
G02*
X94800000Y-72326000I-51000J0D01*
G01*
X91300000Y-72326000D01*
G75*
G02*
X91249000Y-72275000I0J51000D01*
G01*
G37*
G36*
G01*
X91259000Y-79895000D02*
X91259000Y-78195000D01*
G75*
G02*
X91310000Y-78144000I51000J0D01*
G01*
X94810000Y-78144000D01*
G75*
G02*
X94861000Y-78195000I0J-51000D01*
G01*
X94861000Y-79895000D01*
G75*
G02*
X94810000Y-79946000I-51000J0D01*
G01*
X91310000Y-79946000D01*
G75*
G02*
X91259000Y-79895000I0J51000D01*
G01*
G37*
G36*
G01*
X91249000Y-69735000D02*
X91249000Y-68035000D01*
G75*
G02*
X91300000Y-67984000I51000J0D01*
G01*
X94800000Y-67984000D01*
G75*
G02*
X94851000Y-68035000I0J-51000D01*
G01*
X94851000Y-69735000D01*
G75*
G02*
X94800000Y-69786000I-51000J0D01*
G01*
X91300000Y-69786000D01*
G75*
G02*
X91249000Y-69735000I0J51000D01*
G01*
G37*
G36*
G01*
X91249000Y-62105000D02*
X91249000Y-60405000D01*
G75*
G02*
X91300000Y-60354000I51000J0D01*
G01*
X94800000Y-60354000D01*
G75*
G02*
X94851000Y-60405000I0J-51000D01*
G01*
X94851000Y-62105000D01*
G75*
G02*
X94800000Y-62156000I-51000J0D01*
G01*
X91300000Y-62156000D01*
G75*
G02*
X91249000Y-62105000I0J51000D01*
G01*
G37*
G36*
G01*
X91249000Y-67185000D02*
X91249000Y-65485000D01*
G75*
G02*
X91300000Y-65434000I51000J0D01*
G01*
X94800000Y-65434000D01*
G75*
G02*
X94851000Y-65485000I0J-51000D01*
G01*
X94851000Y-67185000D01*
G75*
G02*
X94800000Y-67236000I-51000J0D01*
G01*
X91300000Y-67236000D01*
G75*
G02*
X91249000Y-67185000I0J51000D01*
G01*
G37*
G36*
G01*
X91239000Y-92595000D02*
X91239000Y-90895000D01*
G75*
G02*
X91290000Y-90844000I51000J0D01*
G01*
X94790000Y-90844000D01*
G75*
G02*
X94841000Y-90895000I0J-51000D01*
G01*
X94841000Y-92595000D01*
G75*
G02*
X94790000Y-92646000I-51000J0D01*
G01*
X91290000Y-92646000D01*
G75*
G02*
X91239000Y-92595000I0J51000D01*
G01*
G37*
G36*
G01*
X91249000Y-97675000D02*
X91249000Y-95975000D01*
G75*
G02*
X91300000Y-95924000I51000J0D01*
G01*
X94800000Y-95924000D01*
G75*
G02*
X94851000Y-95975000I0J-51000D01*
G01*
X94851000Y-97675000D01*
G75*
G02*
X94800000Y-97726000I-51000J0D01*
G01*
X91300000Y-97726000D01*
G75*
G02*
X91249000Y-97675000I0J51000D01*
G01*
G37*
G36*
G01*
X91249000Y-82435000D02*
X91249000Y-80735000D01*
G75*
G02*
X91300000Y-80684000I51000J0D01*
G01*
X94800000Y-80684000D01*
G75*
G02*
X94851000Y-80735000I0J-51000D01*
G01*
X94851000Y-82435000D01*
G75*
G02*
X94800000Y-82486000I-51000J0D01*
G01*
X91300000Y-82486000D01*
G75*
G02*
X91249000Y-82435000I0J51000D01*
G01*
G37*
G36*
G01*
X91249000Y-77355000D02*
X91249000Y-75655000D01*
G75*
G02*
X91300000Y-75604000I51000J0D01*
G01*
X94800000Y-75604000D01*
G75*
G02*
X94851000Y-75655000I0J-51000D01*
G01*
X94851000Y-77355000D01*
G75*
G02*
X94800000Y-77406000I-51000J0D01*
G01*
X91300000Y-77406000D01*
G75*
G02*
X91249000Y-77355000I0J51000D01*
G01*
G37*
G36*
G01*
X91249000Y-107835000D02*
X91249000Y-106135000D01*
G75*
G02*
X91300000Y-106084000I51000J0D01*
G01*
X94800000Y-106084000D01*
G75*
G02*
X94851000Y-106135000I0J-51000D01*
G01*
X94851000Y-107835000D01*
G75*
G02*
X94800000Y-107886000I-51000J0D01*
G01*
X91300000Y-107886000D01*
G75*
G02*
X91249000Y-107835000I0J51000D01*
G01*
G37*
G36*
G01*
X91249000Y-84975000D02*
X91249000Y-83275000D01*
G75*
G02*
X91300000Y-83224000I51000J0D01*
G01*
X94800000Y-83224000D01*
G75*
G02*
X94851000Y-83275000I0J-51000D01*
G01*
X94851000Y-84975000D01*
G75*
G02*
X94800000Y-85026000I-51000J0D01*
G01*
X91300000Y-85026000D01*
G75*
G02*
X91249000Y-84975000I0J51000D01*
G01*
G37*
G36*
G01*
X91249000Y-64655000D02*
X91249000Y-62955000D01*
G75*
G02*
X91300000Y-62904000I51000J0D01*
G01*
X94800000Y-62904000D01*
G75*
G02*
X94851000Y-62955000I0J-51000D01*
G01*
X94851000Y-64655000D01*
G75*
G02*
X94800000Y-64706000I-51000J0D01*
G01*
X91300000Y-64706000D01*
G75*
G02*
X91249000Y-64655000I0J51000D01*
G01*
G37*
G36*
G01*
X91249000Y-102755000D02*
X91249000Y-101055000D01*
G75*
G02*
X91300000Y-101004000I51000J0D01*
G01*
X94800000Y-101004000D01*
G75*
G02*
X94851000Y-101055000I0J-51000D01*
G01*
X94851000Y-102755000D01*
G75*
G02*
X94800000Y-102806000I-51000J0D01*
G01*
X91300000Y-102806000D01*
G75*
G02*
X91249000Y-102755000I0J51000D01*
G01*
G37*
G36*
G01*
X91249000Y-59575000D02*
X91249000Y-57875000D01*
G75*
G02*
X91300000Y-57824000I51000J0D01*
G01*
X94800000Y-57824000D01*
G75*
G02*
X94851000Y-57875000I0J-51000D01*
G01*
X94851000Y-59575000D01*
G75*
G02*
X94800000Y-59626000I-51000J0D01*
G01*
X91300000Y-59626000D01*
G75*
G02*
X91249000Y-59575000I0J51000D01*
G01*
G37*
M02*
