G04 #@! TF.GenerationSoftware,KiCad,Pcbnew,(5.1.10)-1*
G04 #@! TF.CreationDate,2021-07-31T08:12:49+01:00*
G04 #@! TF.ProjectId,STM32Pico,53544d33-3250-4696-936f-2e6b69636164,REV1*
G04 #@! TF.SameCoordinates,Original*
G04 #@! TF.FileFunction,Copper,L1,Top*
G04 #@! TF.FilePolarity,Positive*
%FSLAX46Y46*%
G04 Gerber Fmt 4.6, Leading zero omitted, Abs format (unit mm)*
G04 Created by KiCad (PCBNEW (5.1.10)-1) date 2021-07-31 08:12:49*
%MOMM*%
%LPD*%
G01*
G04 APERTURE LIST*
G04 #@! TA.AperFunction,SMDPad,CuDef*
%ADD10R,0.600000X1.450000*%
G04 #@! TD*
G04 #@! TA.AperFunction,SMDPad,CuDef*
%ADD11R,0.300000X1.450000*%
G04 #@! TD*
G04 #@! TA.AperFunction,ComponentPad*
%ADD12O,1.000000X2.100000*%
G04 #@! TD*
G04 #@! TA.AperFunction,ComponentPad*
%ADD13O,1.000000X1.600000*%
G04 #@! TD*
G04 #@! TA.AperFunction,SMDPad,CuDef*
%ADD14R,0.800000X0.900000*%
G04 #@! TD*
G04 #@! TA.AperFunction,SMDPad,CuDef*
%ADD15R,5.600000X5.600000*%
G04 #@! TD*
G04 #@! TA.AperFunction,ComponentPad*
%ADD16O,1.700000X1.700000*%
G04 #@! TD*
G04 #@! TA.AperFunction,ComponentPad*
%ADD17R,1.700000X1.700000*%
G04 #@! TD*
G04 #@! TA.AperFunction,ComponentPad*
%ADD18R,3.500000X1.700000*%
G04 #@! TD*
G04 #@! TA.AperFunction,ComponentPad*
%ADD19C,1.700000*%
G04 #@! TD*
G04 #@! TA.AperFunction,ViaPad*
%ADD20C,0.600000*%
G04 #@! TD*
G04 #@! TA.AperFunction,ViaPad*
%ADD21C,0.400000*%
G04 #@! TD*
G04 #@! TA.AperFunction,Conductor*
%ADD22C,0.150000*%
G04 #@! TD*
G04 #@! TA.AperFunction,Conductor*
%ADD23C,0.600000*%
G04 #@! TD*
G04 #@! TA.AperFunction,Conductor*
%ADD24C,0.800000*%
G04 #@! TD*
G04 #@! TA.AperFunction,Conductor*
%ADD25C,0.300000*%
G04 #@! TD*
G04 #@! TA.AperFunction,Conductor*
%ADD26C,0.250000*%
G04 #@! TD*
G04 #@! TA.AperFunction,Conductor*
%ADD27C,0.254000*%
G04 #@! TD*
G04 APERTURE END LIST*
D10*
X100415000Y-64972200D03*
X106865000Y-64972200D03*
X101190000Y-64972200D03*
X106090000Y-64972200D03*
D11*
X105390000Y-64972200D03*
X101890000Y-64972200D03*
X104890000Y-64972200D03*
X102390000Y-64972200D03*
X104390000Y-64972200D03*
X102890000Y-64972200D03*
X103390000Y-64972200D03*
X103890000Y-64972200D03*
D12*
X107960000Y-64057200D03*
X99320000Y-64057200D03*
D13*
X107960000Y-59877200D03*
X99320000Y-59877200D03*
G04 #@! TA.AperFunction,SMDPad,CuDef*
G36*
G01*
X106284040Y-93005480D02*
X104684040Y-93005480D01*
G75*
G02*
X104484040Y-92805480I0J200000D01*
G01*
X104484040Y-92405480D01*
G75*
G02*
X104684040Y-92205480I200000J0D01*
G01*
X106284040Y-92205480D01*
G75*
G02*
X106484040Y-92405480I0J-200000D01*
G01*
X106484040Y-92805480D01*
G75*
G02*
X106284040Y-93005480I-200000J0D01*
G01*
G37*
G04 #@! TD.AperFunction*
G04 #@! TA.AperFunction,SMDPad,CuDef*
G36*
G01*
X106284040Y-88805480D02*
X104684040Y-88805480D01*
G75*
G02*
X104484040Y-88605480I0J200000D01*
G01*
X104484040Y-88205480D01*
G75*
G02*
X104684040Y-88005480I200000J0D01*
G01*
X106284040Y-88005480D01*
G75*
G02*
X106484040Y-88205480I0J-200000D01*
G01*
X106484040Y-88605480D01*
G75*
G02*
X106284040Y-88805480I-200000J0D01*
G01*
G37*
G04 #@! TD.AperFunction*
G04 #@! TA.AperFunction,SMDPad,CuDef*
G36*
G01*
X97429800Y-86362100D02*
X99029800Y-86362100D01*
G75*
G02*
X99229800Y-86562100I0J-200000D01*
G01*
X99229800Y-86962100D01*
G75*
G02*
X99029800Y-87162100I-200000J0D01*
G01*
X97429800Y-87162100D01*
G75*
G02*
X97229800Y-86962100I0J200000D01*
G01*
X97229800Y-86562100D01*
G75*
G02*
X97429800Y-86362100I200000J0D01*
G01*
G37*
G04 #@! TD.AperFunction*
G04 #@! TA.AperFunction,SMDPad,CuDef*
G36*
G01*
X97429800Y-90562100D02*
X99029800Y-90562100D01*
G75*
G02*
X99229800Y-90762100I0J-200000D01*
G01*
X99229800Y-91162100D01*
G75*
G02*
X99029800Y-91362100I-200000J0D01*
G01*
X97429800Y-91362100D01*
G75*
G02*
X97229800Y-91162100I0J200000D01*
G01*
X97229800Y-90762100D01*
G75*
G02*
X97429800Y-90562100I200000J0D01*
G01*
G37*
G04 #@! TD.AperFunction*
G04 #@! TA.AperFunction,SMDPad,CuDef*
G36*
G01*
X101968800Y-87829340D02*
X101968800Y-88329340D01*
G75*
G02*
X101768800Y-88529340I-200000J0D01*
G01*
X101368800Y-88529340D01*
G75*
G02*
X101168800Y-88329340I0J200000D01*
G01*
X101168800Y-87829340D01*
G75*
G02*
X101368800Y-87629340I200000J0D01*
G01*
X101768800Y-87629340D01*
G75*
G02*
X101968800Y-87829340I0J-200000D01*
G01*
G37*
G04 #@! TD.AperFunction*
G04 #@! TA.AperFunction,SMDPad,CuDef*
G36*
G01*
X103418800Y-87829340D02*
X103418800Y-88329340D01*
G75*
G02*
X103218800Y-88529340I-200000J0D01*
G01*
X102818800Y-88529340D01*
G75*
G02*
X102618800Y-88329340I0J200000D01*
G01*
X102618800Y-87829340D01*
G75*
G02*
X102818800Y-87629340I200000J0D01*
G01*
X103218800Y-87629340D01*
G75*
G02*
X103418800Y-87829340I0J-200000D01*
G01*
G37*
G04 #@! TD.AperFunction*
G04 #@! TA.AperFunction,SMDPad,CuDef*
G36*
G01*
X101968800Y-89679340D02*
X101968800Y-90179340D01*
G75*
G02*
X101768800Y-90379340I-200000J0D01*
G01*
X101368800Y-90379340D01*
G75*
G02*
X101168800Y-90179340I0J200000D01*
G01*
X101168800Y-89679340D01*
G75*
G02*
X101368800Y-89479340I200000J0D01*
G01*
X101768800Y-89479340D01*
G75*
G02*
X101968800Y-89679340I0J-200000D01*
G01*
G37*
G04 #@! TD.AperFunction*
G04 #@! TA.AperFunction,SMDPad,CuDef*
G36*
G01*
X103418800Y-89679340D02*
X103418800Y-90179340D01*
G75*
G02*
X103218800Y-90379340I-200000J0D01*
G01*
X102818800Y-90379340D01*
G75*
G02*
X102618800Y-90179340I0J200000D01*
G01*
X102618800Y-89679340D01*
G75*
G02*
X102818800Y-89479340I200000J0D01*
G01*
X103218800Y-89479340D01*
G75*
G02*
X103418800Y-89679340I0J-200000D01*
G01*
G37*
G04 #@! TD.AperFunction*
D14*
X99855400Y-69193100D03*
X100805400Y-71193100D03*
X98905400Y-71193100D03*
D15*
X103640000Y-81874560D03*
G04 #@! TA.AperFunction,SMDPad,CuDef*
G36*
G01*
X100577500Y-84749560D02*
X99827500Y-84749560D01*
G75*
G02*
X99765000Y-84687060I0J62500D01*
G01*
X99765000Y-84562060D01*
G75*
G02*
X99827500Y-84499560I62500J0D01*
G01*
X100577500Y-84499560D01*
G75*
G02*
X100640000Y-84562060I0J-62500D01*
G01*
X100640000Y-84687060D01*
G75*
G02*
X100577500Y-84749560I-62500J0D01*
G01*
G37*
G04 #@! TD.AperFunction*
G04 #@! TA.AperFunction,SMDPad,CuDef*
G36*
G01*
X100577500Y-84249560D02*
X99827500Y-84249560D01*
G75*
G02*
X99765000Y-84187060I0J62500D01*
G01*
X99765000Y-84062060D01*
G75*
G02*
X99827500Y-83999560I62500J0D01*
G01*
X100577500Y-83999560D01*
G75*
G02*
X100640000Y-84062060I0J-62500D01*
G01*
X100640000Y-84187060D01*
G75*
G02*
X100577500Y-84249560I-62500J0D01*
G01*
G37*
G04 #@! TD.AperFunction*
G04 #@! TA.AperFunction,SMDPad,CuDef*
G36*
G01*
X100577500Y-83749560D02*
X99827500Y-83749560D01*
G75*
G02*
X99765000Y-83687060I0J62500D01*
G01*
X99765000Y-83562060D01*
G75*
G02*
X99827500Y-83499560I62500J0D01*
G01*
X100577500Y-83499560D01*
G75*
G02*
X100640000Y-83562060I0J-62500D01*
G01*
X100640000Y-83687060D01*
G75*
G02*
X100577500Y-83749560I-62500J0D01*
G01*
G37*
G04 #@! TD.AperFunction*
G04 #@! TA.AperFunction,SMDPad,CuDef*
G36*
G01*
X100577500Y-83249560D02*
X99827500Y-83249560D01*
G75*
G02*
X99765000Y-83187060I0J62500D01*
G01*
X99765000Y-83062060D01*
G75*
G02*
X99827500Y-82999560I62500J0D01*
G01*
X100577500Y-82999560D01*
G75*
G02*
X100640000Y-83062060I0J-62500D01*
G01*
X100640000Y-83187060D01*
G75*
G02*
X100577500Y-83249560I-62500J0D01*
G01*
G37*
G04 #@! TD.AperFunction*
G04 #@! TA.AperFunction,SMDPad,CuDef*
G36*
G01*
X100577500Y-82749560D02*
X99827500Y-82749560D01*
G75*
G02*
X99765000Y-82687060I0J62500D01*
G01*
X99765000Y-82562060D01*
G75*
G02*
X99827500Y-82499560I62500J0D01*
G01*
X100577500Y-82499560D01*
G75*
G02*
X100640000Y-82562060I0J-62500D01*
G01*
X100640000Y-82687060D01*
G75*
G02*
X100577500Y-82749560I-62500J0D01*
G01*
G37*
G04 #@! TD.AperFunction*
G04 #@! TA.AperFunction,SMDPad,CuDef*
G36*
G01*
X100577500Y-82249560D02*
X99827500Y-82249560D01*
G75*
G02*
X99765000Y-82187060I0J62500D01*
G01*
X99765000Y-82062060D01*
G75*
G02*
X99827500Y-81999560I62500J0D01*
G01*
X100577500Y-81999560D01*
G75*
G02*
X100640000Y-82062060I0J-62500D01*
G01*
X100640000Y-82187060D01*
G75*
G02*
X100577500Y-82249560I-62500J0D01*
G01*
G37*
G04 #@! TD.AperFunction*
G04 #@! TA.AperFunction,SMDPad,CuDef*
G36*
G01*
X100577500Y-81749560D02*
X99827500Y-81749560D01*
G75*
G02*
X99765000Y-81687060I0J62500D01*
G01*
X99765000Y-81562060D01*
G75*
G02*
X99827500Y-81499560I62500J0D01*
G01*
X100577500Y-81499560D01*
G75*
G02*
X100640000Y-81562060I0J-62500D01*
G01*
X100640000Y-81687060D01*
G75*
G02*
X100577500Y-81749560I-62500J0D01*
G01*
G37*
G04 #@! TD.AperFunction*
G04 #@! TA.AperFunction,SMDPad,CuDef*
G36*
G01*
X100577500Y-81249560D02*
X99827500Y-81249560D01*
G75*
G02*
X99765000Y-81187060I0J62500D01*
G01*
X99765000Y-81062060D01*
G75*
G02*
X99827500Y-80999560I62500J0D01*
G01*
X100577500Y-80999560D01*
G75*
G02*
X100640000Y-81062060I0J-62500D01*
G01*
X100640000Y-81187060D01*
G75*
G02*
X100577500Y-81249560I-62500J0D01*
G01*
G37*
G04 #@! TD.AperFunction*
G04 #@! TA.AperFunction,SMDPad,CuDef*
G36*
G01*
X100577500Y-80749560D02*
X99827500Y-80749560D01*
G75*
G02*
X99765000Y-80687060I0J62500D01*
G01*
X99765000Y-80562060D01*
G75*
G02*
X99827500Y-80499560I62500J0D01*
G01*
X100577500Y-80499560D01*
G75*
G02*
X100640000Y-80562060I0J-62500D01*
G01*
X100640000Y-80687060D01*
G75*
G02*
X100577500Y-80749560I-62500J0D01*
G01*
G37*
G04 #@! TD.AperFunction*
G04 #@! TA.AperFunction,SMDPad,CuDef*
G36*
G01*
X100577500Y-80249560D02*
X99827500Y-80249560D01*
G75*
G02*
X99765000Y-80187060I0J62500D01*
G01*
X99765000Y-80062060D01*
G75*
G02*
X99827500Y-79999560I62500J0D01*
G01*
X100577500Y-79999560D01*
G75*
G02*
X100640000Y-80062060I0J-62500D01*
G01*
X100640000Y-80187060D01*
G75*
G02*
X100577500Y-80249560I-62500J0D01*
G01*
G37*
G04 #@! TD.AperFunction*
G04 #@! TA.AperFunction,SMDPad,CuDef*
G36*
G01*
X100577500Y-79749560D02*
X99827500Y-79749560D01*
G75*
G02*
X99765000Y-79687060I0J62500D01*
G01*
X99765000Y-79562060D01*
G75*
G02*
X99827500Y-79499560I62500J0D01*
G01*
X100577500Y-79499560D01*
G75*
G02*
X100640000Y-79562060I0J-62500D01*
G01*
X100640000Y-79687060D01*
G75*
G02*
X100577500Y-79749560I-62500J0D01*
G01*
G37*
G04 #@! TD.AperFunction*
G04 #@! TA.AperFunction,SMDPad,CuDef*
G36*
G01*
X100577500Y-79249560D02*
X99827500Y-79249560D01*
G75*
G02*
X99765000Y-79187060I0J62500D01*
G01*
X99765000Y-79062060D01*
G75*
G02*
X99827500Y-78999560I62500J0D01*
G01*
X100577500Y-78999560D01*
G75*
G02*
X100640000Y-79062060I0J-62500D01*
G01*
X100640000Y-79187060D01*
G75*
G02*
X100577500Y-79249560I-62500J0D01*
G01*
G37*
G04 #@! TD.AperFunction*
G04 #@! TA.AperFunction,SMDPad,CuDef*
G36*
G01*
X100952500Y-78874560D02*
X100827500Y-78874560D01*
G75*
G02*
X100765000Y-78812060I0J62500D01*
G01*
X100765000Y-78062060D01*
G75*
G02*
X100827500Y-77999560I62500J0D01*
G01*
X100952500Y-77999560D01*
G75*
G02*
X101015000Y-78062060I0J-62500D01*
G01*
X101015000Y-78812060D01*
G75*
G02*
X100952500Y-78874560I-62500J0D01*
G01*
G37*
G04 #@! TD.AperFunction*
G04 #@! TA.AperFunction,SMDPad,CuDef*
G36*
G01*
X101452500Y-78874560D02*
X101327500Y-78874560D01*
G75*
G02*
X101265000Y-78812060I0J62500D01*
G01*
X101265000Y-78062060D01*
G75*
G02*
X101327500Y-77999560I62500J0D01*
G01*
X101452500Y-77999560D01*
G75*
G02*
X101515000Y-78062060I0J-62500D01*
G01*
X101515000Y-78812060D01*
G75*
G02*
X101452500Y-78874560I-62500J0D01*
G01*
G37*
G04 #@! TD.AperFunction*
G04 #@! TA.AperFunction,SMDPad,CuDef*
G36*
G01*
X101952500Y-78874560D02*
X101827500Y-78874560D01*
G75*
G02*
X101765000Y-78812060I0J62500D01*
G01*
X101765000Y-78062060D01*
G75*
G02*
X101827500Y-77999560I62500J0D01*
G01*
X101952500Y-77999560D01*
G75*
G02*
X102015000Y-78062060I0J-62500D01*
G01*
X102015000Y-78812060D01*
G75*
G02*
X101952500Y-78874560I-62500J0D01*
G01*
G37*
G04 #@! TD.AperFunction*
G04 #@! TA.AperFunction,SMDPad,CuDef*
G36*
G01*
X102452500Y-78874560D02*
X102327500Y-78874560D01*
G75*
G02*
X102265000Y-78812060I0J62500D01*
G01*
X102265000Y-78062060D01*
G75*
G02*
X102327500Y-77999560I62500J0D01*
G01*
X102452500Y-77999560D01*
G75*
G02*
X102515000Y-78062060I0J-62500D01*
G01*
X102515000Y-78812060D01*
G75*
G02*
X102452500Y-78874560I-62500J0D01*
G01*
G37*
G04 #@! TD.AperFunction*
G04 #@! TA.AperFunction,SMDPad,CuDef*
G36*
G01*
X102952500Y-78874560D02*
X102827500Y-78874560D01*
G75*
G02*
X102765000Y-78812060I0J62500D01*
G01*
X102765000Y-78062060D01*
G75*
G02*
X102827500Y-77999560I62500J0D01*
G01*
X102952500Y-77999560D01*
G75*
G02*
X103015000Y-78062060I0J-62500D01*
G01*
X103015000Y-78812060D01*
G75*
G02*
X102952500Y-78874560I-62500J0D01*
G01*
G37*
G04 #@! TD.AperFunction*
G04 #@! TA.AperFunction,SMDPad,CuDef*
G36*
G01*
X103452500Y-78874560D02*
X103327500Y-78874560D01*
G75*
G02*
X103265000Y-78812060I0J62500D01*
G01*
X103265000Y-78062060D01*
G75*
G02*
X103327500Y-77999560I62500J0D01*
G01*
X103452500Y-77999560D01*
G75*
G02*
X103515000Y-78062060I0J-62500D01*
G01*
X103515000Y-78812060D01*
G75*
G02*
X103452500Y-78874560I-62500J0D01*
G01*
G37*
G04 #@! TD.AperFunction*
G04 #@! TA.AperFunction,SMDPad,CuDef*
G36*
G01*
X103952500Y-78874560D02*
X103827500Y-78874560D01*
G75*
G02*
X103765000Y-78812060I0J62500D01*
G01*
X103765000Y-78062060D01*
G75*
G02*
X103827500Y-77999560I62500J0D01*
G01*
X103952500Y-77999560D01*
G75*
G02*
X104015000Y-78062060I0J-62500D01*
G01*
X104015000Y-78812060D01*
G75*
G02*
X103952500Y-78874560I-62500J0D01*
G01*
G37*
G04 #@! TD.AperFunction*
G04 #@! TA.AperFunction,SMDPad,CuDef*
G36*
G01*
X104452500Y-78874560D02*
X104327500Y-78874560D01*
G75*
G02*
X104265000Y-78812060I0J62500D01*
G01*
X104265000Y-78062060D01*
G75*
G02*
X104327500Y-77999560I62500J0D01*
G01*
X104452500Y-77999560D01*
G75*
G02*
X104515000Y-78062060I0J-62500D01*
G01*
X104515000Y-78812060D01*
G75*
G02*
X104452500Y-78874560I-62500J0D01*
G01*
G37*
G04 #@! TD.AperFunction*
G04 #@! TA.AperFunction,SMDPad,CuDef*
G36*
G01*
X104952500Y-78874560D02*
X104827500Y-78874560D01*
G75*
G02*
X104765000Y-78812060I0J62500D01*
G01*
X104765000Y-78062060D01*
G75*
G02*
X104827500Y-77999560I62500J0D01*
G01*
X104952500Y-77999560D01*
G75*
G02*
X105015000Y-78062060I0J-62500D01*
G01*
X105015000Y-78812060D01*
G75*
G02*
X104952500Y-78874560I-62500J0D01*
G01*
G37*
G04 #@! TD.AperFunction*
G04 #@! TA.AperFunction,SMDPad,CuDef*
G36*
G01*
X105452500Y-78874560D02*
X105327500Y-78874560D01*
G75*
G02*
X105265000Y-78812060I0J62500D01*
G01*
X105265000Y-78062060D01*
G75*
G02*
X105327500Y-77999560I62500J0D01*
G01*
X105452500Y-77999560D01*
G75*
G02*
X105515000Y-78062060I0J-62500D01*
G01*
X105515000Y-78812060D01*
G75*
G02*
X105452500Y-78874560I-62500J0D01*
G01*
G37*
G04 #@! TD.AperFunction*
G04 #@! TA.AperFunction,SMDPad,CuDef*
G36*
G01*
X105952500Y-78874560D02*
X105827500Y-78874560D01*
G75*
G02*
X105765000Y-78812060I0J62500D01*
G01*
X105765000Y-78062060D01*
G75*
G02*
X105827500Y-77999560I62500J0D01*
G01*
X105952500Y-77999560D01*
G75*
G02*
X106015000Y-78062060I0J-62500D01*
G01*
X106015000Y-78812060D01*
G75*
G02*
X105952500Y-78874560I-62500J0D01*
G01*
G37*
G04 #@! TD.AperFunction*
G04 #@! TA.AperFunction,SMDPad,CuDef*
G36*
G01*
X106452500Y-78874560D02*
X106327500Y-78874560D01*
G75*
G02*
X106265000Y-78812060I0J62500D01*
G01*
X106265000Y-78062060D01*
G75*
G02*
X106327500Y-77999560I62500J0D01*
G01*
X106452500Y-77999560D01*
G75*
G02*
X106515000Y-78062060I0J-62500D01*
G01*
X106515000Y-78812060D01*
G75*
G02*
X106452500Y-78874560I-62500J0D01*
G01*
G37*
G04 #@! TD.AperFunction*
G04 #@! TA.AperFunction,SMDPad,CuDef*
G36*
G01*
X107452500Y-79249560D02*
X106702500Y-79249560D01*
G75*
G02*
X106640000Y-79187060I0J62500D01*
G01*
X106640000Y-79062060D01*
G75*
G02*
X106702500Y-78999560I62500J0D01*
G01*
X107452500Y-78999560D01*
G75*
G02*
X107515000Y-79062060I0J-62500D01*
G01*
X107515000Y-79187060D01*
G75*
G02*
X107452500Y-79249560I-62500J0D01*
G01*
G37*
G04 #@! TD.AperFunction*
G04 #@! TA.AperFunction,SMDPad,CuDef*
G36*
G01*
X107452500Y-79749560D02*
X106702500Y-79749560D01*
G75*
G02*
X106640000Y-79687060I0J62500D01*
G01*
X106640000Y-79562060D01*
G75*
G02*
X106702500Y-79499560I62500J0D01*
G01*
X107452500Y-79499560D01*
G75*
G02*
X107515000Y-79562060I0J-62500D01*
G01*
X107515000Y-79687060D01*
G75*
G02*
X107452500Y-79749560I-62500J0D01*
G01*
G37*
G04 #@! TD.AperFunction*
G04 #@! TA.AperFunction,SMDPad,CuDef*
G36*
G01*
X107452500Y-80249560D02*
X106702500Y-80249560D01*
G75*
G02*
X106640000Y-80187060I0J62500D01*
G01*
X106640000Y-80062060D01*
G75*
G02*
X106702500Y-79999560I62500J0D01*
G01*
X107452500Y-79999560D01*
G75*
G02*
X107515000Y-80062060I0J-62500D01*
G01*
X107515000Y-80187060D01*
G75*
G02*
X107452500Y-80249560I-62500J0D01*
G01*
G37*
G04 #@! TD.AperFunction*
G04 #@! TA.AperFunction,SMDPad,CuDef*
G36*
G01*
X107452500Y-80749560D02*
X106702500Y-80749560D01*
G75*
G02*
X106640000Y-80687060I0J62500D01*
G01*
X106640000Y-80562060D01*
G75*
G02*
X106702500Y-80499560I62500J0D01*
G01*
X107452500Y-80499560D01*
G75*
G02*
X107515000Y-80562060I0J-62500D01*
G01*
X107515000Y-80687060D01*
G75*
G02*
X107452500Y-80749560I-62500J0D01*
G01*
G37*
G04 #@! TD.AperFunction*
G04 #@! TA.AperFunction,SMDPad,CuDef*
G36*
G01*
X107452500Y-81249560D02*
X106702500Y-81249560D01*
G75*
G02*
X106640000Y-81187060I0J62500D01*
G01*
X106640000Y-81062060D01*
G75*
G02*
X106702500Y-80999560I62500J0D01*
G01*
X107452500Y-80999560D01*
G75*
G02*
X107515000Y-81062060I0J-62500D01*
G01*
X107515000Y-81187060D01*
G75*
G02*
X107452500Y-81249560I-62500J0D01*
G01*
G37*
G04 #@! TD.AperFunction*
G04 #@! TA.AperFunction,SMDPad,CuDef*
G36*
G01*
X107452500Y-81749560D02*
X106702500Y-81749560D01*
G75*
G02*
X106640000Y-81687060I0J62500D01*
G01*
X106640000Y-81562060D01*
G75*
G02*
X106702500Y-81499560I62500J0D01*
G01*
X107452500Y-81499560D01*
G75*
G02*
X107515000Y-81562060I0J-62500D01*
G01*
X107515000Y-81687060D01*
G75*
G02*
X107452500Y-81749560I-62500J0D01*
G01*
G37*
G04 #@! TD.AperFunction*
G04 #@! TA.AperFunction,SMDPad,CuDef*
G36*
G01*
X107452500Y-82249560D02*
X106702500Y-82249560D01*
G75*
G02*
X106640000Y-82187060I0J62500D01*
G01*
X106640000Y-82062060D01*
G75*
G02*
X106702500Y-81999560I62500J0D01*
G01*
X107452500Y-81999560D01*
G75*
G02*
X107515000Y-82062060I0J-62500D01*
G01*
X107515000Y-82187060D01*
G75*
G02*
X107452500Y-82249560I-62500J0D01*
G01*
G37*
G04 #@! TD.AperFunction*
G04 #@! TA.AperFunction,SMDPad,CuDef*
G36*
G01*
X107452500Y-82749560D02*
X106702500Y-82749560D01*
G75*
G02*
X106640000Y-82687060I0J62500D01*
G01*
X106640000Y-82562060D01*
G75*
G02*
X106702500Y-82499560I62500J0D01*
G01*
X107452500Y-82499560D01*
G75*
G02*
X107515000Y-82562060I0J-62500D01*
G01*
X107515000Y-82687060D01*
G75*
G02*
X107452500Y-82749560I-62500J0D01*
G01*
G37*
G04 #@! TD.AperFunction*
G04 #@! TA.AperFunction,SMDPad,CuDef*
G36*
G01*
X107452500Y-83249560D02*
X106702500Y-83249560D01*
G75*
G02*
X106640000Y-83187060I0J62500D01*
G01*
X106640000Y-83062060D01*
G75*
G02*
X106702500Y-82999560I62500J0D01*
G01*
X107452500Y-82999560D01*
G75*
G02*
X107515000Y-83062060I0J-62500D01*
G01*
X107515000Y-83187060D01*
G75*
G02*
X107452500Y-83249560I-62500J0D01*
G01*
G37*
G04 #@! TD.AperFunction*
G04 #@! TA.AperFunction,SMDPad,CuDef*
G36*
G01*
X107452500Y-83749560D02*
X106702500Y-83749560D01*
G75*
G02*
X106640000Y-83687060I0J62500D01*
G01*
X106640000Y-83562060D01*
G75*
G02*
X106702500Y-83499560I62500J0D01*
G01*
X107452500Y-83499560D01*
G75*
G02*
X107515000Y-83562060I0J-62500D01*
G01*
X107515000Y-83687060D01*
G75*
G02*
X107452500Y-83749560I-62500J0D01*
G01*
G37*
G04 #@! TD.AperFunction*
G04 #@! TA.AperFunction,SMDPad,CuDef*
G36*
G01*
X107452500Y-84249560D02*
X106702500Y-84249560D01*
G75*
G02*
X106640000Y-84187060I0J62500D01*
G01*
X106640000Y-84062060D01*
G75*
G02*
X106702500Y-83999560I62500J0D01*
G01*
X107452500Y-83999560D01*
G75*
G02*
X107515000Y-84062060I0J-62500D01*
G01*
X107515000Y-84187060D01*
G75*
G02*
X107452500Y-84249560I-62500J0D01*
G01*
G37*
G04 #@! TD.AperFunction*
G04 #@! TA.AperFunction,SMDPad,CuDef*
G36*
G01*
X107452500Y-84749560D02*
X106702500Y-84749560D01*
G75*
G02*
X106640000Y-84687060I0J62500D01*
G01*
X106640000Y-84562060D01*
G75*
G02*
X106702500Y-84499560I62500J0D01*
G01*
X107452500Y-84499560D01*
G75*
G02*
X107515000Y-84562060I0J-62500D01*
G01*
X107515000Y-84687060D01*
G75*
G02*
X107452500Y-84749560I-62500J0D01*
G01*
G37*
G04 #@! TD.AperFunction*
G04 #@! TA.AperFunction,SMDPad,CuDef*
G36*
G01*
X106452500Y-85749560D02*
X106327500Y-85749560D01*
G75*
G02*
X106265000Y-85687060I0J62500D01*
G01*
X106265000Y-84937060D01*
G75*
G02*
X106327500Y-84874560I62500J0D01*
G01*
X106452500Y-84874560D01*
G75*
G02*
X106515000Y-84937060I0J-62500D01*
G01*
X106515000Y-85687060D01*
G75*
G02*
X106452500Y-85749560I-62500J0D01*
G01*
G37*
G04 #@! TD.AperFunction*
G04 #@! TA.AperFunction,SMDPad,CuDef*
G36*
G01*
X105952500Y-85749560D02*
X105827500Y-85749560D01*
G75*
G02*
X105765000Y-85687060I0J62500D01*
G01*
X105765000Y-84937060D01*
G75*
G02*
X105827500Y-84874560I62500J0D01*
G01*
X105952500Y-84874560D01*
G75*
G02*
X106015000Y-84937060I0J-62500D01*
G01*
X106015000Y-85687060D01*
G75*
G02*
X105952500Y-85749560I-62500J0D01*
G01*
G37*
G04 #@! TD.AperFunction*
G04 #@! TA.AperFunction,SMDPad,CuDef*
G36*
G01*
X105452500Y-85749560D02*
X105327500Y-85749560D01*
G75*
G02*
X105265000Y-85687060I0J62500D01*
G01*
X105265000Y-84937060D01*
G75*
G02*
X105327500Y-84874560I62500J0D01*
G01*
X105452500Y-84874560D01*
G75*
G02*
X105515000Y-84937060I0J-62500D01*
G01*
X105515000Y-85687060D01*
G75*
G02*
X105452500Y-85749560I-62500J0D01*
G01*
G37*
G04 #@! TD.AperFunction*
G04 #@! TA.AperFunction,SMDPad,CuDef*
G36*
G01*
X104952500Y-85749560D02*
X104827500Y-85749560D01*
G75*
G02*
X104765000Y-85687060I0J62500D01*
G01*
X104765000Y-84937060D01*
G75*
G02*
X104827500Y-84874560I62500J0D01*
G01*
X104952500Y-84874560D01*
G75*
G02*
X105015000Y-84937060I0J-62500D01*
G01*
X105015000Y-85687060D01*
G75*
G02*
X104952500Y-85749560I-62500J0D01*
G01*
G37*
G04 #@! TD.AperFunction*
G04 #@! TA.AperFunction,SMDPad,CuDef*
G36*
G01*
X104452500Y-85749560D02*
X104327500Y-85749560D01*
G75*
G02*
X104265000Y-85687060I0J62500D01*
G01*
X104265000Y-84937060D01*
G75*
G02*
X104327500Y-84874560I62500J0D01*
G01*
X104452500Y-84874560D01*
G75*
G02*
X104515000Y-84937060I0J-62500D01*
G01*
X104515000Y-85687060D01*
G75*
G02*
X104452500Y-85749560I-62500J0D01*
G01*
G37*
G04 #@! TD.AperFunction*
G04 #@! TA.AperFunction,SMDPad,CuDef*
G36*
G01*
X103952500Y-85749560D02*
X103827500Y-85749560D01*
G75*
G02*
X103765000Y-85687060I0J62500D01*
G01*
X103765000Y-84937060D01*
G75*
G02*
X103827500Y-84874560I62500J0D01*
G01*
X103952500Y-84874560D01*
G75*
G02*
X104015000Y-84937060I0J-62500D01*
G01*
X104015000Y-85687060D01*
G75*
G02*
X103952500Y-85749560I-62500J0D01*
G01*
G37*
G04 #@! TD.AperFunction*
G04 #@! TA.AperFunction,SMDPad,CuDef*
G36*
G01*
X103452500Y-85749560D02*
X103327500Y-85749560D01*
G75*
G02*
X103265000Y-85687060I0J62500D01*
G01*
X103265000Y-84937060D01*
G75*
G02*
X103327500Y-84874560I62500J0D01*
G01*
X103452500Y-84874560D01*
G75*
G02*
X103515000Y-84937060I0J-62500D01*
G01*
X103515000Y-85687060D01*
G75*
G02*
X103452500Y-85749560I-62500J0D01*
G01*
G37*
G04 #@! TD.AperFunction*
G04 #@! TA.AperFunction,SMDPad,CuDef*
G36*
G01*
X102952500Y-85749560D02*
X102827500Y-85749560D01*
G75*
G02*
X102765000Y-85687060I0J62500D01*
G01*
X102765000Y-84937060D01*
G75*
G02*
X102827500Y-84874560I62500J0D01*
G01*
X102952500Y-84874560D01*
G75*
G02*
X103015000Y-84937060I0J-62500D01*
G01*
X103015000Y-85687060D01*
G75*
G02*
X102952500Y-85749560I-62500J0D01*
G01*
G37*
G04 #@! TD.AperFunction*
G04 #@! TA.AperFunction,SMDPad,CuDef*
G36*
G01*
X102452500Y-85749560D02*
X102327500Y-85749560D01*
G75*
G02*
X102265000Y-85687060I0J62500D01*
G01*
X102265000Y-84937060D01*
G75*
G02*
X102327500Y-84874560I62500J0D01*
G01*
X102452500Y-84874560D01*
G75*
G02*
X102515000Y-84937060I0J-62500D01*
G01*
X102515000Y-85687060D01*
G75*
G02*
X102452500Y-85749560I-62500J0D01*
G01*
G37*
G04 #@! TD.AperFunction*
G04 #@! TA.AperFunction,SMDPad,CuDef*
G36*
G01*
X101952500Y-85749560D02*
X101827500Y-85749560D01*
G75*
G02*
X101765000Y-85687060I0J62500D01*
G01*
X101765000Y-84937060D01*
G75*
G02*
X101827500Y-84874560I62500J0D01*
G01*
X101952500Y-84874560D01*
G75*
G02*
X102015000Y-84937060I0J-62500D01*
G01*
X102015000Y-85687060D01*
G75*
G02*
X101952500Y-85749560I-62500J0D01*
G01*
G37*
G04 #@! TD.AperFunction*
G04 #@! TA.AperFunction,SMDPad,CuDef*
G36*
G01*
X101452500Y-85749560D02*
X101327500Y-85749560D01*
G75*
G02*
X101265000Y-85687060I0J62500D01*
G01*
X101265000Y-84937060D01*
G75*
G02*
X101327500Y-84874560I62500J0D01*
G01*
X101452500Y-84874560D01*
G75*
G02*
X101515000Y-84937060I0J-62500D01*
G01*
X101515000Y-85687060D01*
G75*
G02*
X101452500Y-85749560I-62500J0D01*
G01*
G37*
G04 #@! TD.AperFunction*
G04 #@! TA.AperFunction,SMDPad,CuDef*
G36*
G01*
X100952500Y-85749560D02*
X100827500Y-85749560D01*
G75*
G02*
X100765000Y-85687060I0J62500D01*
G01*
X100765000Y-84937060D01*
G75*
G02*
X100827500Y-84874560I62500J0D01*
G01*
X100952500Y-84874560D01*
G75*
G02*
X101015000Y-84937060I0J-62500D01*
G01*
X101015000Y-85687060D01*
G75*
G02*
X100952500Y-85749560I-62500J0D01*
G01*
G37*
G04 #@! TD.AperFunction*
G04 #@! TA.AperFunction,SMDPad,CuDef*
G36*
G01*
X97354800Y-92042600D02*
X97354800Y-92412600D01*
G75*
G02*
X97219800Y-92547600I-135000J0D01*
G01*
X96949800Y-92547600D01*
G75*
G02*
X96814800Y-92412600I0J135000D01*
G01*
X96814800Y-92042600D01*
G75*
G02*
X96949800Y-91907600I135000J0D01*
G01*
X97219800Y-91907600D01*
G75*
G02*
X97354800Y-92042600I0J-135000D01*
G01*
G37*
G04 #@! TD.AperFunction*
G04 #@! TA.AperFunction,SMDPad,CuDef*
G36*
G01*
X98374800Y-92042600D02*
X98374800Y-92412600D01*
G75*
G02*
X98239800Y-92547600I-135000J0D01*
G01*
X97969800Y-92547600D01*
G75*
G02*
X97834800Y-92412600I0J135000D01*
G01*
X97834800Y-92042600D01*
G75*
G02*
X97969800Y-91907600I135000J0D01*
G01*
X98239800Y-91907600D01*
G75*
G02*
X98374800Y-92042600I0J-135000D01*
G01*
G37*
G04 #@! TD.AperFunction*
G04 #@! TA.AperFunction,SMDPad,CuDef*
G36*
G01*
X101596600Y-91001200D02*
X101596600Y-91371200D01*
G75*
G02*
X101461600Y-91506200I-135000J0D01*
G01*
X101191600Y-91506200D01*
G75*
G02*
X101056600Y-91371200I0J135000D01*
G01*
X101056600Y-91001200D01*
G75*
G02*
X101191600Y-90866200I135000J0D01*
G01*
X101461600Y-90866200D01*
G75*
G02*
X101596600Y-91001200I0J-135000D01*
G01*
G37*
G04 #@! TD.AperFunction*
G04 #@! TA.AperFunction,SMDPad,CuDef*
G36*
G01*
X102616600Y-91001200D02*
X102616600Y-91371200D01*
G75*
G02*
X102481600Y-91506200I-135000J0D01*
G01*
X102211600Y-91506200D01*
G75*
G02*
X102076600Y-91371200I0J135000D01*
G01*
X102076600Y-91001200D01*
G75*
G02*
X102211600Y-90866200I135000J0D01*
G01*
X102481600Y-90866200D01*
G75*
G02*
X102616600Y-91001200I0J-135000D01*
G01*
G37*
G04 #@! TD.AperFunction*
G04 #@! TA.AperFunction,SMDPad,CuDef*
G36*
G01*
X101194400Y-75119400D02*
X101564400Y-75119400D01*
G75*
G02*
X101699400Y-75254400I0J-135000D01*
G01*
X101699400Y-75524400D01*
G75*
G02*
X101564400Y-75659400I-135000J0D01*
G01*
X101194400Y-75659400D01*
G75*
G02*
X101059400Y-75524400I0J135000D01*
G01*
X101059400Y-75254400D01*
G75*
G02*
X101194400Y-75119400I135000J0D01*
G01*
G37*
G04 #@! TD.AperFunction*
G04 #@! TA.AperFunction,SMDPad,CuDef*
G36*
G01*
X101194400Y-74099400D02*
X101564400Y-74099400D01*
G75*
G02*
X101699400Y-74234400I0J-135000D01*
G01*
X101699400Y-74504400D01*
G75*
G02*
X101564400Y-74639400I-135000J0D01*
G01*
X101194400Y-74639400D01*
G75*
G02*
X101059400Y-74504400I0J135000D01*
G01*
X101059400Y-74234400D01*
G75*
G02*
X101194400Y-74099400I135000J0D01*
G01*
G37*
G04 #@! TD.AperFunction*
G04 #@! TA.AperFunction,SMDPad,CuDef*
G36*
G01*
X103596400Y-74639400D02*
X103226400Y-74639400D01*
G75*
G02*
X103091400Y-74504400I0J135000D01*
G01*
X103091400Y-74234400D01*
G75*
G02*
X103226400Y-74099400I135000J0D01*
G01*
X103596400Y-74099400D01*
G75*
G02*
X103731400Y-74234400I0J-135000D01*
G01*
X103731400Y-74504400D01*
G75*
G02*
X103596400Y-74639400I-135000J0D01*
G01*
G37*
G04 #@! TD.AperFunction*
G04 #@! TA.AperFunction,SMDPad,CuDef*
G36*
G01*
X103596400Y-75659400D02*
X103226400Y-75659400D01*
G75*
G02*
X103091400Y-75524400I0J135000D01*
G01*
X103091400Y-75254400D01*
G75*
G02*
X103226400Y-75119400I135000J0D01*
G01*
X103596400Y-75119400D01*
G75*
G02*
X103731400Y-75254400I0J-135000D01*
G01*
X103731400Y-75524400D01*
G75*
G02*
X103596400Y-75659400I-135000J0D01*
G01*
G37*
G04 #@! TD.AperFunction*
G04 #@! TA.AperFunction,SMDPad,CuDef*
G36*
G01*
X102580400Y-74639400D02*
X102210400Y-74639400D01*
G75*
G02*
X102075400Y-74504400I0J135000D01*
G01*
X102075400Y-74234400D01*
G75*
G02*
X102210400Y-74099400I135000J0D01*
G01*
X102580400Y-74099400D01*
G75*
G02*
X102715400Y-74234400I0J-135000D01*
G01*
X102715400Y-74504400D01*
G75*
G02*
X102580400Y-74639400I-135000J0D01*
G01*
G37*
G04 #@! TD.AperFunction*
G04 #@! TA.AperFunction,SMDPad,CuDef*
G36*
G01*
X102580400Y-75659400D02*
X102210400Y-75659400D01*
G75*
G02*
X102075400Y-75524400I0J135000D01*
G01*
X102075400Y-75254400D01*
G75*
G02*
X102210400Y-75119400I135000J0D01*
G01*
X102580400Y-75119400D01*
G75*
G02*
X102715400Y-75254400I0J-135000D01*
G01*
X102715400Y-75524400D01*
G75*
G02*
X102580400Y-75659400I-135000J0D01*
G01*
G37*
G04 #@! TD.AperFunction*
G04 #@! TA.AperFunction,SMDPad,CuDef*
G36*
G01*
X101645680Y-67181960D02*
X101275680Y-67181960D01*
G75*
G02*
X101140680Y-67046960I0J135000D01*
G01*
X101140680Y-66776960D01*
G75*
G02*
X101275680Y-66641960I135000J0D01*
G01*
X101645680Y-66641960D01*
G75*
G02*
X101780680Y-66776960I0J-135000D01*
G01*
X101780680Y-67046960D01*
G75*
G02*
X101645680Y-67181960I-135000J0D01*
G01*
G37*
G04 #@! TD.AperFunction*
G04 #@! TA.AperFunction,SMDPad,CuDef*
G36*
G01*
X101645680Y-68201960D02*
X101275680Y-68201960D01*
G75*
G02*
X101140680Y-68066960I0J135000D01*
G01*
X101140680Y-67796960D01*
G75*
G02*
X101275680Y-67661960I135000J0D01*
G01*
X101645680Y-67661960D01*
G75*
G02*
X101780680Y-67796960I0J-135000D01*
G01*
X101780680Y-68066960D01*
G75*
G02*
X101645680Y-68201960I-135000J0D01*
G01*
G37*
G04 #@! TD.AperFunction*
G04 #@! TA.AperFunction,SMDPad,CuDef*
G36*
G01*
X105079760Y-66709520D02*
X104709760Y-66709520D01*
G75*
G02*
X104574760Y-66574520I0J135000D01*
G01*
X104574760Y-66304520D01*
G75*
G02*
X104709760Y-66169520I135000J0D01*
G01*
X105079760Y-66169520D01*
G75*
G02*
X105214760Y-66304520I0J-135000D01*
G01*
X105214760Y-66574520D01*
G75*
G02*
X105079760Y-66709520I-135000J0D01*
G01*
G37*
G04 #@! TD.AperFunction*
G04 #@! TA.AperFunction,SMDPad,CuDef*
G36*
G01*
X105079760Y-67729520D02*
X104709760Y-67729520D01*
G75*
G02*
X104574760Y-67594520I0J135000D01*
G01*
X104574760Y-67324520D01*
G75*
G02*
X104709760Y-67189520I135000J0D01*
G01*
X105079760Y-67189520D01*
G75*
G02*
X105214760Y-67324520I0J-135000D01*
G01*
X105214760Y-67594520D01*
G75*
G02*
X105079760Y-67729520I-135000J0D01*
G01*
G37*
G04 #@! TD.AperFunction*
G04 #@! TA.AperFunction,SMDPad,CuDef*
G36*
G01*
X110043050Y-59645000D02*
X109530550Y-59645000D01*
G75*
G02*
X109311800Y-59426250I0J218750D01*
G01*
X109311800Y-58988750D01*
G75*
G02*
X109530550Y-58770000I218750J0D01*
G01*
X110043050Y-58770000D01*
G75*
G02*
X110261800Y-58988750I0J-218750D01*
G01*
X110261800Y-59426250D01*
G75*
G02*
X110043050Y-59645000I-218750J0D01*
G01*
G37*
G04 #@! TD.AperFunction*
G04 #@! TA.AperFunction,SMDPad,CuDef*
G36*
G01*
X110043050Y-61220000D02*
X109530550Y-61220000D01*
G75*
G02*
X109311800Y-61001250I0J218750D01*
G01*
X109311800Y-60563750D01*
G75*
G02*
X109530550Y-60345000I218750J0D01*
G01*
X110043050Y-60345000D01*
G75*
G02*
X110261800Y-60563750I0J-218750D01*
G01*
X110261800Y-61001250D01*
G75*
G02*
X110043050Y-61220000I-218750J0D01*
G01*
G37*
G04 #@! TD.AperFunction*
G04 #@! TA.AperFunction,SMDPad,CuDef*
G36*
G01*
X103419680Y-86647400D02*
X103419680Y-86987400D01*
G75*
G02*
X103279680Y-87127400I-140000J0D01*
G01*
X102999680Y-87127400D01*
G75*
G02*
X102859680Y-86987400I0J140000D01*
G01*
X102859680Y-86647400D01*
G75*
G02*
X102999680Y-86507400I140000J0D01*
G01*
X103279680Y-86507400D01*
G75*
G02*
X103419680Y-86647400I0J-140000D01*
G01*
G37*
G04 #@! TD.AperFunction*
G04 #@! TA.AperFunction,SMDPad,CuDef*
G36*
G01*
X104379680Y-86647400D02*
X104379680Y-86987400D01*
G75*
G02*
X104239680Y-87127400I-140000J0D01*
G01*
X103959680Y-87127400D01*
G75*
G02*
X103819680Y-86987400I0J140000D01*
G01*
X103819680Y-86647400D01*
G75*
G02*
X103959680Y-86507400I140000J0D01*
G01*
X104239680Y-86507400D01*
G75*
G02*
X104379680Y-86647400I0J-140000D01*
G01*
G37*
G04 #@! TD.AperFunction*
G04 #@! TA.AperFunction,SMDPad,CuDef*
G36*
G01*
X97064600Y-82456400D02*
X97064600Y-82796400D01*
G75*
G02*
X96924600Y-82936400I-140000J0D01*
G01*
X96644600Y-82936400D01*
G75*
G02*
X96504600Y-82796400I0J140000D01*
G01*
X96504600Y-82456400D01*
G75*
G02*
X96644600Y-82316400I140000J0D01*
G01*
X96924600Y-82316400D01*
G75*
G02*
X97064600Y-82456400I0J-140000D01*
G01*
G37*
G04 #@! TD.AperFunction*
G04 #@! TA.AperFunction,SMDPad,CuDef*
G36*
G01*
X98024600Y-82456400D02*
X98024600Y-82796400D01*
G75*
G02*
X97884600Y-82936400I-140000J0D01*
G01*
X97604600Y-82936400D01*
G75*
G02*
X97464600Y-82796400I0J140000D01*
G01*
X97464600Y-82456400D01*
G75*
G02*
X97604600Y-82316400I140000J0D01*
G01*
X97884600Y-82316400D01*
G75*
G02*
X98024600Y-82456400I0J-140000D01*
G01*
G37*
G04 #@! TD.AperFunction*
G04 #@! TA.AperFunction,SMDPad,CuDef*
G36*
G01*
X108169000Y-78737000D02*
X108509000Y-78737000D01*
G75*
G02*
X108649000Y-78877000I0J-140000D01*
G01*
X108649000Y-79157000D01*
G75*
G02*
X108509000Y-79297000I-140000J0D01*
G01*
X108169000Y-79297000D01*
G75*
G02*
X108029000Y-79157000I0J140000D01*
G01*
X108029000Y-78877000D01*
G75*
G02*
X108169000Y-78737000I140000J0D01*
G01*
G37*
G04 #@! TD.AperFunction*
G04 #@! TA.AperFunction,SMDPad,CuDef*
G36*
G01*
X108169000Y-77777000D02*
X108509000Y-77777000D01*
G75*
G02*
X108649000Y-77917000I0J-140000D01*
G01*
X108649000Y-78197000D01*
G75*
G02*
X108509000Y-78337000I-140000J0D01*
G01*
X108169000Y-78337000D01*
G75*
G02*
X108029000Y-78197000I0J140000D01*
G01*
X108029000Y-77917000D01*
G75*
G02*
X108169000Y-77777000I140000J0D01*
G01*
G37*
G04 #@! TD.AperFunction*
G04 #@! TA.AperFunction,SMDPad,CuDef*
G36*
G01*
X99331500Y-67569100D02*
X99331500Y-67229100D01*
G75*
G02*
X99471500Y-67089100I140000J0D01*
G01*
X99751500Y-67089100D01*
G75*
G02*
X99891500Y-67229100I0J-140000D01*
G01*
X99891500Y-67569100D01*
G75*
G02*
X99751500Y-67709100I-140000J0D01*
G01*
X99471500Y-67709100D01*
G75*
G02*
X99331500Y-67569100I0J140000D01*
G01*
G37*
G04 #@! TD.AperFunction*
G04 #@! TA.AperFunction,SMDPad,CuDef*
G36*
G01*
X98371500Y-67569100D02*
X98371500Y-67229100D01*
G75*
G02*
X98511500Y-67089100I140000J0D01*
G01*
X98791500Y-67089100D01*
G75*
G02*
X98931500Y-67229100I0J-140000D01*
G01*
X98931500Y-67569100D01*
G75*
G02*
X98791500Y-67709100I-140000J0D01*
G01*
X98511500Y-67709100D01*
G75*
G02*
X98371500Y-67569100I0J140000D01*
G01*
G37*
G04 #@! TD.AperFunction*
G04 #@! TA.AperFunction,SMDPad,CuDef*
G36*
G01*
X98735269Y-85053747D02*
X98494853Y-84813331D01*
G75*
G02*
X98494853Y-84615341I98995J98995D01*
G01*
X98692843Y-84417351D01*
G75*
G02*
X98890833Y-84417351I98995J-98995D01*
G01*
X99131249Y-84657767D01*
G75*
G02*
X99131249Y-84855757I-98995J-98995D01*
G01*
X98933259Y-85053747D01*
G75*
G02*
X98735269Y-85053747I-98995J98995D01*
G01*
G37*
G04 #@! TD.AperFunction*
G04 #@! TA.AperFunction,SMDPad,CuDef*
G36*
G01*
X98056447Y-85732569D02*
X97816031Y-85492153D01*
G75*
G02*
X97816031Y-85294163I98995J98995D01*
G01*
X98014021Y-85096173D01*
G75*
G02*
X98212011Y-85096173I98995J-98995D01*
G01*
X98452427Y-85336589D01*
G75*
G02*
X98452427Y-85534579I-98995J-98995D01*
G01*
X98254437Y-85732569D01*
G75*
G02*
X98056447Y-85732569I-98995J98995D01*
G01*
G37*
G04 #@! TD.AperFunction*
G04 #@! TA.AperFunction,SMDPad,CuDef*
G36*
G01*
X99960200Y-77020800D02*
X99960200Y-77360800D01*
G75*
G02*
X99820200Y-77500800I-140000J0D01*
G01*
X99540200Y-77500800D01*
G75*
G02*
X99400200Y-77360800I0J140000D01*
G01*
X99400200Y-77020800D01*
G75*
G02*
X99540200Y-76880800I140000J0D01*
G01*
X99820200Y-76880800D01*
G75*
G02*
X99960200Y-77020800I0J-140000D01*
G01*
G37*
G04 #@! TD.AperFunction*
G04 #@! TA.AperFunction,SMDPad,CuDef*
G36*
G01*
X100920200Y-77020800D02*
X100920200Y-77360800D01*
G75*
G02*
X100780200Y-77500800I-140000J0D01*
G01*
X100500200Y-77500800D01*
G75*
G02*
X100360200Y-77360800I0J140000D01*
G01*
X100360200Y-77020800D01*
G75*
G02*
X100500200Y-76880800I140000J0D01*
G01*
X100780200Y-76880800D01*
G75*
G02*
X100920200Y-77020800I0J-140000D01*
G01*
G37*
G04 #@! TD.AperFunction*
G04 #@! TA.AperFunction,SMDPad,CuDef*
G36*
G01*
X100233200Y-72585600D02*
X100233200Y-72245600D01*
G75*
G02*
X100373200Y-72105600I140000J0D01*
G01*
X100653200Y-72105600D01*
G75*
G02*
X100793200Y-72245600I0J-140000D01*
G01*
X100793200Y-72585600D01*
G75*
G02*
X100653200Y-72725600I-140000J0D01*
G01*
X100373200Y-72725600D01*
G75*
G02*
X100233200Y-72585600I0J140000D01*
G01*
G37*
G04 #@! TD.AperFunction*
G04 #@! TA.AperFunction,SMDPad,CuDef*
G36*
G01*
X99273200Y-72585600D02*
X99273200Y-72245600D01*
G75*
G02*
X99413200Y-72105600I140000J0D01*
G01*
X99693200Y-72105600D01*
G75*
G02*
X99833200Y-72245600I0J-140000D01*
G01*
X99833200Y-72585600D01*
G75*
G02*
X99693200Y-72725600I-140000J0D01*
G01*
X99413200Y-72725600D01*
G75*
G02*
X99273200Y-72585600I0J140000D01*
G01*
G37*
G04 #@! TD.AperFunction*
G04 #@! TA.AperFunction,SMDPad,CuDef*
G36*
G01*
X105719600Y-87216000D02*
X105719600Y-86876000D01*
G75*
G02*
X105859600Y-86736000I140000J0D01*
G01*
X106139600Y-86736000D01*
G75*
G02*
X106279600Y-86876000I0J-140000D01*
G01*
X106279600Y-87216000D01*
G75*
G02*
X106139600Y-87356000I-140000J0D01*
G01*
X105859600Y-87356000D01*
G75*
G02*
X105719600Y-87216000I0J140000D01*
G01*
G37*
G04 #@! TD.AperFunction*
G04 #@! TA.AperFunction,SMDPad,CuDef*
G36*
G01*
X104759600Y-87216000D02*
X104759600Y-86876000D01*
G75*
G02*
X104899600Y-86736000I140000J0D01*
G01*
X105179600Y-86736000D01*
G75*
G02*
X105319600Y-86876000I0J-140000D01*
G01*
X105319600Y-87216000D01*
G75*
G02*
X105179600Y-87356000I-140000J0D01*
G01*
X104899600Y-87356000D01*
G75*
G02*
X104759600Y-87216000I0J140000D01*
G01*
G37*
G04 #@! TD.AperFunction*
G04 #@! TA.AperFunction,SMDPad,CuDef*
G36*
G01*
X108545400Y-79814800D02*
X108545400Y-80154800D01*
G75*
G02*
X108405400Y-80294800I-140000J0D01*
G01*
X108125400Y-80294800D01*
G75*
G02*
X107985400Y-80154800I0J140000D01*
G01*
X107985400Y-79814800D01*
G75*
G02*
X108125400Y-79674800I140000J0D01*
G01*
X108405400Y-79674800D01*
G75*
G02*
X108545400Y-79814800I0J-140000D01*
G01*
G37*
G04 #@! TD.AperFunction*
G04 #@! TA.AperFunction,SMDPad,CuDef*
G36*
G01*
X109505400Y-79814800D02*
X109505400Y-80154800D01*
G75*
G02*
X109365400Y-80294800I-140000J0D01*
G01*
X109085400Y-80294800D01*
G75*
G02*
X108945400Y-80154800I0J140000D01*
G01*
X108945400Y-79814800D01*
G75*
G02*
X109085400Y-79674800I140000J0D01*
G01*
X109365400Y-79674800D01*
G75*
G02*
X109505400Y-79814800I0J-140000D01*
G01*
G37*
G04 #@! TD.AperFunction*
D16*
X112550000Y-106985000D03*
X112550000Y-104445000D03*
D17*
X112550000Y-101905000D03*
D16*
X112550000Y-99365000D03*
X112550000Y-96825000D03*
X112550000Y-94285000D03*
X112550000Y-91745000D03*
D17*
X112550000Y-89205000D03*
D16*
X112550000Y-86665000D03*
X112550000Y-84125000D03*
X112550000Y-81585000D03*
X112550000Y-79045000D03*
D17*
X112550000Y-76505000D03*
D16*
X112550000Y-73965000D03*
X112550000Y-71425000D03*
X112550000Y-68885000D03*
X112550000Y-66345000D03*
D17*
X112550000Y-63805000D03*
D16*
X112550000Y-61265000D03*
D17*
X112550000Y-58725000D03*
D18*
X114250000Y-99365000D03*
X114250000Y-101905000D03*
X114250000Y-96825000D03*
X114250000Y-104445000D03*
X114250000Y-94285000D03*
X114250000Y-106985000D03*
X114250000Y-86665000D03*
X114250000Y-91745000D03*
X114250000Y-84125000D03*
X114250000Y-73965000D03*
X114250000Y-71425000D03*
X114250000Y-68885000D03*
X114250000Y-61265000D03*
X114250000Y-89205000D03*
X114250000Y-76505000D03*
X114250000Y-63805000D03*
X114250000Y-58725000D03*
X114250000Y-79045000D03*
X114250000Y-66345000D03*
X114250000Y-81585000D03*
D16*
X94750000Y-58725000D03*
X94750000Y-61265000D03*
D17*
X94750000Y-63805000D03*
D16*
X94750000Y-66345000D03*
X94750000Y-68885000D03*
X94750000Y-71425000D03*
X94750000Y-73965000D03*
D17*
X94750000Y-76505000D03*
D16*
X94750000Y-79045000D03*
X94750000Y-81585000D03*
X94750000Y-84125000D03*
X94750000Y-86665000D03*
D17*
X94750000Y-89205000D03*
D16*
X94750000Y-91745000D03*
X94750000Y-94285000D03*
X94750000Y-96825000D03*
X94750000Y-99365000D03*
D17*
X94750000Y-101905000D03*
D16*
X94750000Y-104445000D03*
D19*
X94750000Y-106985000D03*
D18*
X93050000Y-104445000D03*
X93050000Y-73965000D03*
X93050000Y-99365000D03*
X93050000Y-94285000D03*
X93050000Y-89205000D03*
X93050000Y-86665000D03*
X93050000Y-71425000D03*
X93060000Y-79045000D03*
X93050000Y-68885000D03*
X93050000Y-61255000D03*
X93050000Y-66335000D03*
X93040000Y-91745000D03*
X93050000Y-96825000D03*
X93050000Y-81585000D03*
X93050000Y-76505000D03*
X93050000Y-106985000D03*
X93050000Y-84125000D03*
X93050000Y-63805000D03*
X93050000Y-101905000D03*
X93050000Y-58725000D03*
D20*
X98671760Y-67376240D03*
X98930840Y-71191320D03*
X101491160Y-67955360D03*
X108339000Y-78054400D03*
X109253400Y-79984800D03*
X103040560Y-88107720D03*
X96779460Y-82616240D03*
X103645080Y-81879640D03*
X97061400Y-92202200D03*
X96395920Y-83967520D03*
X96639760Y-80576620D03*
X106002200Y-87071400D03*
X110421800Y-104013200D03*
X110625000Y-96317000D03*
X110752000Y-94158000D03*
X110752000Y-91440200D03*
X99423600Y-89662200D03*
X110269400Y-72822000D03*
X96248600Y-73050600D03*
X96502600Y-69367600D03*
X109482000Y-69697800D03*
X107462700Y-85280700D03*
X107312840Y-105638800D03*
X99906200Y-93553480D03*
X96624520Y-65542360D03*
X96307020Y-60294720D03*
X101354000Y-91186200D03*
X105062400Y-86538000D03*
X107196000Y-78283000D03*
X100172900Y-85496600D03*
X100261800Y-78435400D03*
X101379400Y-74384100D03*
X100805400Y-71193100D03*
X108337700Y-79018300D03*
X97744600Y-82626400D03*
X98229800Y-90962100D03*
D21*
X103894000Y-64973400D03*
X102890700Y-64973400D03*
X104402000Y-64973400D03*
X103391080Y-64973400D03*
D22*
X104390000Y-82624560D02*
X103640000Y-81874560D01*
X104390000Y-85312060D02*
X104390000Y-82624560D01*
X105890000Y-79624560D02*
X103640000Y-81874560D01*
X107077500Y-79624560D02*
X105890000Y-79624560D01*
X101390000Y-79624560D02*
X103640000Y-81874560D01*
X101390000Y-78437060D02*
X101390000Y-79624560D01*
X101390000Y-84124560D02*
X103640000Y-81874560D01*
X100202500Y-84124560D02*
X101390000Y-84124560D01*
X101390000Y-77940600D02*
X100640200Y-77190800D01*
X101390000Y-78437060D02*
X101390000Y-77940600D01*
D23*
X101190000Y-65035800D02*
X101176200Y-65049600D01*
X101190000Y-64972200D02*
X101190000Y-65035800D01*
X101176200Y-65049600D02*
X101176200Y-66040200D01*
D22*
X100202500Y-84789400D02*
X100202500Y-84624560D01*
X98229800Y-86762100D02*
X100202500Y-84789400D01*
X100805400Y-71193100D02*
X100805400Y-71193100D01*
X100888340Y-78435400D02*
X100890000Y-78437060D01*
X100261800Y-78435400D02*
X100888340Y-78435400D01*
X99974671Y-84852389D02*
X100202500Y-84624560D01*
X99001011Y-84852389D02*
X99974671Y-84852389D01*
X104890000Y-86365600D02*
X104890000Y-85312060D01*
X105062400Y-86538000D02*
X104890000Y-86365600D01*
X105039600Y-86560800D02*
X105062400Y-86538000D01*
X105039600Y-87046000D02*
X105039600Y-86560800D01*
X100513200Y-71485300D02*
X100805400Y-71193100D01*
X100513200Y-72415600D02*
X100513200Y-71485300D01*
X99680200Y-77853800D02*
X99680200Y-77190800D01*
X100261800Y-78435400D02*
X99680200Y-77853800D01*
X108231440Y-79124560D02*
X108337700Y-79018300D01*
X107077500Y-79124560D02*
X108231440Y-79124560D01*
X108337700Y-79018300D02*
X108339000Y-79017000D01*
X107366240Y-80124560D02*
X107077500Y-80124560D01*
X107368720Y-80127040D02*
X107366240Y-80124560D01*
X108125640Y-80124560D02*
X107077500Y-80124560D01*
X108265400Y-79984800D02*
X108125640Y-80124560D01*
X97746440Y-82624560D02*
X97744600Y-82626400D01*
X100202500Y-82624560D02*
X97746440Y-82624560D01*
X97744600Y-82626400D02*
X97744600Y-82626400D01*
X98104800Y-91087100D02*
X98229800Y-90962100D01*
X98104800Y-92227600D02*
X98104800Y-91087100D01*
X102346600Y-91186200D02*
X103520522Y-91186200D01*
X105484040Y-89222682D02*
X105484040Y-88405480D01*
X103520522Y-91186200D02*
X105484040Y-89222682D01*
X104099680Y-86817400D02*
X104086980Y-86830100D01*
X103894000Y-85316060D02*
X103890000Y-85312060D01*
X103894000Y-86611720D02*
X103894000Y-85316060D01*
X104099680Y-86817400D02*
X103894000Y-86611720D01*
X104099680Y-87658080D02*
X104099680Y-86817400D01*
X104847080Y-88405480D02*
X104099680Y-87658080D01*
X105484040Y-88405480D02*
X104847080Y-88405480D01*
X104894760Y-64976960D02*
X104890000Y-64972200D01*
X104894760Y-66439520D02*
X104894760Y-64976960D01*
X101890000Y-66212640D02*
X101890000Y-64972200D01*
X101460680Y-66641960D02*
X101890000Y-66212640D01*
X101460680Y-66911960D02*
X101460680Y-66641960D01*
D24*
X102395400Y-74369400D02*
X102395400Y-66837760D01*
D25*
X102890000Y-66343160D02*
X102395400Y-66837760D01*
X102890000Y-64972200D02*
X102890000Y-66343160D01*
D22*
X102390000Y-75394800D02*
X102395400Y-75389400D01*
X102390000Y-78437060D02*
X102390000Y-75394800D01*
X102395400Y-75389400D02*
X101379400Y-75389400D01*
X103390000Y-67263400D02*
X103411400Y-67284800D01*
D25*
X103390000Y-64972200D02*
X103390000Y-66041280D01*
D24*
X103700960Y-66919040D02*
X103665400Y-66883480D01*
X103700960Y-74079840D02*
X103700960Y-66919040D01*
X103411400Y-74369400D02*
X103700960Y-74079840D01*
D22*
X103390000Y-66608080D02*
X103700960Y-66919040D01*
X103390000Y-66041280D02*
X103390000Y-66608080D01*
X102890000Y-75910800D02*
X102890000Y-78437060D01*
X103411400Y-75389400D02*
X102890000Y-75910800D01*
X102890000Y-85987520D02*
X102890000Y-85312060D01*
X101843120Y-87034400D02*
X102890000Y-85987520D01*
X101843120Y-88478120D02*
X101843120Y-87034400D01*
X100064989Y-83762071D02*
X97652929Y-83762071D01*
X100202500Y-83624560D02*
X100064989Y-83762071D01*
X95599999Y-85815001D02*
X94750000Y-86665000D01*
X97652929Y-83762071D02*
X95599999Y-85815001D01*
X99181980Y-83124560D02*
X100202500Y-83124560D01*
X98961320Y-83345220D02*
X99181980Y-83124560D01*
X95529780Y-83345220D02*
X98961320Y-83345220D01*
X94750000Y-84125000D02*
X95529780Y-83345220D01*
X100202500Y-82124560D02*
X98987800Y-82124560D01*
X98448240Y-81585000D02*
X94750000Y-81585000D01*
X98987800Y-82124560D02*
X98448240Y-81585000D01*
X100202500Y-81624560D02*
X99498426Y-81624560D01*
X96918866Y-79045000D02*
X94750000Y-79045000D01*
X99498426Y-81624560D02*
X96918866Y-79045000D01*
X100202500Y-81124560D02*
X99422704Y-81124560D01*
X99422704Y-81124560D02*
X97804750Y-79506606D01*
X97804750Y-79506606D02*
X97804750Y-74383230D01*
X97804750Y-74383230D02*
X97386520Y-73965000D01*
X97386520Y-73965000D02*
X94750000Y-73965000D01*
X98104760Y-73718432D02*
X95811328Y-71425000D01*
X98104760Y-79382338D02*
X98104760Y-73718432D01*
X99346982Y-80624560D02*
X98104760Y-79382338D01*
X95811328Y-71425000D02*
X94750000Y-71425000D01*
X100202500Y-80624560D02*
X99346982Y-80624560D01*
X97144350Y-72333744D02*
X97144350Y-71279350D01*
X98404770Y-73594164D02*
X97144350Y-72333744D01*
X98404770Y-79258070D02*
X98404770Y-73594164D01*
X99271260Y-80124560D02*
X98404770Y-79258070D01*
X100202500Y-80124560D02*
X99271260Y-80124560D01*
X97144350Y-71279350D02*
X94750000Y-68885000D01*
X97444360Y-69039360D02*
X94750000Y-66345000D01*
X97444360Y-72209476D02*
X97444360Y-69039360D01*
X98704780Y-78788460D02*
X98704780Y-73469896D01*
X99540880Y-79624560D02*
X98704780Y-78788460D01*
X100202500Y-79624560D02*
X99540880Y-79624560D01*
X98704780Y-73469896D02*
X97444360Y-72209476D01*
X96423860Y-61265000D02*
X94750000Y-61265000D01*
X97744370Y-72085208D02*
X97744370Y-62585510D01*
X99014660Y-73355498D02*
X97744370Y-72085208D01*
X97744370Y-62585510D02*
X96423860Y-61265000D01*
X99014660Y-78559860D02*
X99014660Y-73355498D01*
X99579360Y-79124560D02*
X99014660Y-78559860D01*
X100202500Y-79124560D02*
X99579360Y-79124560D01*
X101890000Y-78437060D02*
X101890000Y-77371200D01*
X101890000Y-77371200D02*
X99347400Y-74828600D01*
X99347400Y-74828600D02*
X99347400Y-73263960D01*
X98044380Y-71960940D02*
X98044380Y-60668100D01*
X99347400Y-73263960D02*
X98044380Y-71960940D01*
X96101280Y-58725000D02*
X93350010Y-58725000D01*
X98044380Y-60668100D02*
X96101280Y-58725000D01*
X109532800Y-71425000D02*
X112550000Y-71425000D01*
X103390000Y-77567800D02*
X109532800Y-71425000D01*
X103390000Y-78437060D02*
X103390000Y-77567800D01*
X103890000Y-78437060D02*
X103890000Y-77525000D01*
X107450000Y-73965000D02*
X112550000Y-73965000D01*
X103890000Y-77525000D02*
X107450000Y-73965000D01*
X104390000Y-78437060D02*
X104390000Y-77449278D01*
X104390000Y-77449278D02*
X106172478Y-75666800D01*
X106172478Y-75666800D02*
X109634400Y-75666800D01*
X112550000Y-78582400D02*
X112550000Y-79045000D01*
X109634400Y-75666800D02*
X112550000Y-78582400D01*
X104890000Y-78437060D02*
X104890000Y-77373556D01*
X104890000Y-77373556D02*
X106296746Y-75966810D01*
X106296746Y-75966810D02*
X109510132Y-75966810D01*
X109510132Y-75966810D02*
X111183800Y-77640478D01*
X111183800Y-80218800D02*
X112550000Y-81585000D01*
X111183800Y-77640478D02*
X111183800Y-80218800D01*
X110883790Y-77764746D02*
X110883790Y-82458790D01*
X110883790Y-82458790D02*
X112550000Y-84125000D01*
X109385864Y-76266820D02*
X110883790Y-77764746D01*
X106421014Y-76266820D02*
X109385864Y-76266820D01*
X105390000Y-77297834D02*
X106421014Y-76266820D01*
X105390000Y-78437060D02*
X105390000Y-77297834D01*
X105890000Y-78437060D02*
X105890000Y-77222112D01*
X109228000Y-76581200D02*
X109242370Y-76566830D01*
X106530912Y-76581200D02*
X109228000Y-76581200D01*
X105890000Y-77222112D02*
X106530912Y-76581200D01*
X109242370Y-76566830D02*
X110583780Y-77908240D01*
X110583780Y-84698780D02*
X112550000Y-86665000D01*
X110583780Y-77908240D02*
X110583780Y-84698780D01*
X106390000Y-78437060D02*
X106390000Y-77146390D01*
X106390000Y-77146390D02*
X106655180Y-76881210D01*
X106655180Y-76881210D02*
X109132472Y-76881210D01*
X109132472Y-76881210D02*
X110283770Y-78032508D01*
X110283770Y-89478770D02*
X112550000Y-91745000D01*
X110283770Y-78032508D02*
X110283770Y-89478770D01*
X107077500Y-80624560D02*
X108216760Y-80624560D01*
X108216760Y-80624560D02*
X109983760Y-82391560D01*
X109983760Y-91718760D02*
X112550000Y-94285000D01*
X109983760Y-82391560D02*
X109983760Y-91718760D01*
X107077500Y-81124560D02*
X108266040Y-81124560D01*
X108269280Y-81127800D02*
X108295722Y-81127800D01*
X108266040Y-81124560D02*
X108269280Y-81127800D01*
X108266040Y-81124560D02*
X108292482Y-81124560D01*
X108292482Y-81124560D02*
X109683750Y-82515828D01*
X109683750Y-93958750D02*
X112550000Y-96825000D01*
X109683750Y-82515828D02*
X109683750Y-93958750D01*
X109380400Y-82636756D02*
X109380400Y-96195400D01*
X109380400Y-96195400D02*
X112550000Y-99365000D01*
X108368204Y-81624560D02*
X109380400Y-82636756D01*
X107077500Y-81624560D02*
X108368204Y-81624560D01*
X109080390Y-100975390D02*
X112550000Y-104445000D01*
X109080390Y-82761024D02*
X109080390Y-100975390D01*
X108443926Y-82124560D02*
X109080390Y-82761024D01*
X107077500Y-82124560D02*
X108443926Y-82124560D01*
X107077500Y-82624560D02*
X108295940Y-82624560D01*
X108295940Y-82624560D02*
X108780380Y-83109000D01*
X108780380Y-83109000D02*
X108780380Y-104708580D01*
X111056800Y-106985000D02*
X113939990Y-106985000D01*
X108780380Y-104708580D02*
X111056800Y-106985000D01*
X104596998Y-91473802D02*
X96810231Y-99260569D01*
X106724539Y-85312060D02*
X107577582Y-86165103D01*
X107577582Y-89052216D02*
X105155996Y-91473802D01*
X96810230Y-104924770D02*
X94750000Y-106985000D01*
X96810231Y-99260569D02*
X96810230Y-104924770D01*
X107577582Y-86165103D02*
X107577582Y-89052216D01*
X106390000Y-85312060D02*
X106724539Y-85312060D01*
X105155996Y-91473802D02*
X104596998Y-91473802D01*
X107048390Y-86060190D02*
X105956190Y-86060190D01*
X107277571Y-86289371D02*
X107048390Y-86060190D01*
X107277571Y-88927948D02*
X107277571Y-86289371D01*
X105890000Y-85994000D02*
X105890000Y-85312060D01*
X94750000Y-104445000D02*
X96510220Y-102684780D01*
X105956190Y-86060190D02*
X105890000Y-85994000D01*
X104439809Y-91173791D02*
X105031728Y-91173791D01*
X105031728Y-91173791D02*
X107277571Y-88927948D01*
X96510220Y-102684780D02*
X96510220Y-99103380D01*
X96510220Y-99103380D02*
X104439809Y-91173791D01*
X104257220Y-90873780D02*
X95766000Y-99365000D01*
X104907460Y-90873780D02*
X104257220Y-90873780D01*
X106977560Y-86522760D02*
X106977560Y-88803680D01*
X106815000Y-86360200D02*
X106977560Y-86522760D01*
X106977560Y-88803680D02*
X104907460Y-90873780D01*
X105773600Y-86360200D02*
X106815000Y-86360200D01*
X105390000Y-85976600D02*
X105773600Y-86360200D01*
X95766000Y-99365000D02*
X94750000Y-99365000D01*
X105390000Y-85312060D02*
X105390000Y-85976600D01*
X101390000Y-85312060D02*
X101390000Y-85867000D01*
X101390000Y-85867000D02*
X99062920Y-88194080D01*
X99062920Y-88194080D02*
X97843720Y-88194080D01*
X97843720Y-88194080D02*
X96261300Y-89776500D01*
X96261300Y-90233700D02*
X94750000Y-91745000D01*
X96261300Y-89776500D02*
X96261300Y-90233700D01*
X101890000Y-85312060D02*
X101890000Y-85791278D01*
X101890000Y-85791278D02*
X97683798Y-89997480D01*
X97683798Y-89997480D02*
X97104580Y-89997480D01*
X97104580Y-89997480D02*
X96190180Y-90911880D01*
X96190180Y-92844820D02*
X94750000Y-94285000D01*
X96190180Y-90911880D02*
X96190180Y-92844820D01*
X99954460Y-91427500D02*
X94750000Y-96631960D01*
X99954460Y-88151096D02*
X99954460Y-91427500D01*
X102390000Y-85715556D02*
X99954460Y-88151096D01*
X94750000Y-96631960D02*
X94750000Y-96825000D01*
X102390000Y-85312060D02*
X102390000Y-85715556D01*
D26*
X108330380Y-83295396D02*
X108330381Y-104686476D01*
X108328204Y-104708580D01*
X108336892Y-104796795D01*
X108362623Y-104881620D01*
X108404409Y-104959796D01*
X108446552Y-105011147D01*
X108446557Y-105011152D01*
X108460644Y-105028317D01*
X108477809Y-105042404D01*
X110722976Y-107287572D01*
X110737063Y-107304737D01*
X110754228Y-107318824D01*
X110754232Y-107318828D01*
X110805583Y-107360971D01*
X110883759Y-107402757D01*
X110968585Y-107428489D01*
X111034695Y-107435000D01*
X111034705Y-107435000D01*
X111056799Y-107437176D01*
X111078894Y-107435000D01*
X111410466Y-107435000D01*
X111464419Y-107565255D01*
X111598481Y-107765892D01*
X111769108Y-107936519D01*
X111969745Y-108070581D01*
X112101124Y-108125000D01*
X95198876Y-108125000D01*
X95330255Y-108070581D01*
X95530892Y-107936519D01*
X95701519Y-107765892D01*
X95835581Y-107565255D01*
X95927924Y-107342319D01*
X95975000Y-107105652D01*
X95975000Y-106864348D01*
X95927924Y-106627681D01*
X95873970Y-106497425D01*
X97112806Y-105258590D01*
X97129966Y-105244507D01*
X97144049Y-105227347D01*
X97144058Y-105227338D01*
X97186201Y-105175987D01*
X97227987Y-105097811D01*
X97253718Y-105012986D01*
X97262406Y-104924771D01*
X97260229Y-104902667D01*
X97260231Y-99446964D01*
X104783394Y-91923802D01*
X105133902Y-91923802D01*
X105155996Y-91925978D01*
X105178090Y-91923802D01*
X105178101Y-91923802D01*
X105244211Y-91917291D01*
X105329037Y-91891559D01*
X105407212Y-91849773D01*
X105475733Y-91793539D01*
X105489825Y-91776368D01*
X107880154Y-89386040D01*
X107897319Y-89371953D01*
X107911406Y-89354788D01*
X107911410Y-89354784D01*
X107953553Y-89303433D01*
X107995339Y-89225257D01*
X107996498Y-89221437D01*
X108021071Y-89140431D01*
X108027582Y-89074321D01*
X108027582Y-89074310D01*
X108029758Y-89052216D01*
X108027582Y-89030122D01*
X108027582Y-86187197D01*
X108029758Y-86165103D01*
X108027582Y-86143008D01*
X108027582Y-86142998D01*
X108021071Y-86076888D01*
X107995339Y-85992062D01*
X107975644Y-85955215D01*
X107953553Y-85913886D01*
X107911410Y-85862535D01*
X107911406Y-85862531D01*
X107897319Y-85845366D01*
X107880155Y-85831280D01*
X107175248Y-85126374D01*
X107452500Y-85126374D01*
X107538206Y-85117933D01*
X107620618Y-85092933D01*
X107696570Y-85052336D01*
X107763142Y-84997702D01*
X107817776Y-84931130D01*
X107858373Y-84855178D01*
X107883373Y-84772766D01*
X107891814Y-84687060D01*
X107891814Y-84562060D01*
X107883373Y-84476354D01*
X107858373Y-84393942D01*
X107848013Y-84374560D01*
X107858373Y-84355178D01*
X107883373Y-84272766D01*
X107891814Y-84187060D01*
X107891814Y-84062060D01*
X107883373Y-83976354D01*
X107858373Y-83893942D01*
X107848013Y-83874560D01*
X107858373Y-83855178D01*
X107883373Y-83772766D01*
X107891814Y-83687060D01*
X107891814Y-83562060D01*
X107883373Y-83476354D01*
X107858373Y-83393942D01*
X107848013Y-83374560D01*
X107858373Y-83355178D01*
X107883373Y-83272766D01*
X107891814Y-83187060D01*
X107891814Y-83074560D01*
X108109545Y-83074560D01*
X108330380Y-83295396D01*
G04 #@! TA.AperFunction,Conductor*
D22*
G36*
X108330380Y-83295396D02*
G01*
X108330381Y-104686476D01*
X108328204Y-104708580D01*
X108336892Y-104796795D01*
X108362623Y-104881620D01*
X108404409Y-104959796D01*
X108446552Y-105011147D01*
X108446557Y-105011152D01*
X108460644Y-105028317D01*
X108477809Y-105042404D01*
X110722976Y-107287572D01*
X110737063Y-107304737D01*
X110754228Y-107318824D01*
X110754232Y-107318828D01*
X110805583Y-107360971D01*
X110883759Y-107402757D01*
X110968585Y-107428489D01*
X111034695Y-107435000D01*
X111034705Y-107435000D01*
X111056799Y-107437176D01*
X111078894Y-107435000D01*
X111410466Y-107435000D01*
X111464419Y-107565255D01*
X111598481Y-107765892D01*
X111769108Y-107936519D01*
X111969745Y-108070581D01*
X112101124Y-108125000D01*
X95198876Y-108125000D01*
X95330255Y-108070581D01*
X95530892Y-107936519D01*
X95701519Y-107765892D01*
X95835581Y-107565255D01*
X95927924Y-107342319D01*
X95975000Y-107105652D01*
X95975000Y-106864348D01*
X95927924Y-106627681D01*
X95873970Y-106497425D01*
X97112806Y-105258590D01*
X97129966Y-105244507D01*
X97144049Y-105227347D01*
X97144058Y-105227338D01*
X97186201Y-105175987D01*
X97227987Y-105097811D01*
X97253718Y-105012986D01*
X97262406Y-104924771D01*
X97260229Y-104902667D01*
X97260231Y-99446964D01*
X104783394Y-91923802D01*
X105133902Y-91923802D01*
X105155996Y-91925978D01*
X105178090Y-91923802D01*
X105178101Y-91923802D01*
X105244211Y-91917291D01*
X105329037Y-91891559D01*
X105407212Y-91849773D01*
X105475733Y-91793539D01*
X105489825Y-91776368D01*
X107880154Y-89386040D01*
X107897319Y-89371953D01*
X107911406Y-89354788D01*
X107911410Y-89354784D01*
X107953553Y-89303433D01*
X107995339Y-89225257D01*
X107996498Y-89221437D01*
X108021071Y-89140431D01*
X108027582Y-89074321D01*
X108027582Y-89074310D01*
X108029758Y-89052216D01*
X108027582Y-89030122D01*
X108027582Y-86187197D01*
X108029758Y-86165103D01*
X108027582Y-86143008D01*
X108027582Y-86142998D01*
X108021071Y-86076888D01*
X107995339Y-85992062D01*
X107975644Y-85955215D01*
X107953553Y-85913886D01*
X107911410Y-85862535D01*
X107911406Y-85862531D01*
X107897319Y-85845366D01*
X107880155Y-85831280D01*
X107175248Y-85126374D01*
X107452500Y-85126374D01*
X107538206Y-85117933D01*
X107620618Y-85092933D01*
X107696570Y-85052336D01*
X107763142Y-84997702D01*
X107817776Y-84931130D01*
X107858373Y-84855178D01*
X107883373Y-84772766D01*
X107891814Y-84687060D01*
X107891814Y-84562060D01*
X107883373Y-84476354D01*
X107858373Y-84393942D01*
X107848013Y-84374560D01*
X107858373Y-84355178D01*
X107883373Y-84272766D01*
X107891814Y-84187060D01*
X107891814Y-84062060D01*
X107883373Y-83976354D01*
X107858373Y-83893942D01*
X107848013Y-83874560D01*
X107858373Y-83855178D01*
X107883373Y-83772766D01*
X107891814Y-83687060D01*
X107891814Y-83562060D01*
X107883373Y-83476354D01*
X107858373Y-83393942D01*
X107848013Y-83374560D01*
X107858373Y-83355178D01*
X107883373Y-83272766D01*
X107891814Y-83187060D01*
X107891814Y-83074560D01*
X108109545Y-83074560D01*
X108330380Y-83295396D01*
G37*
G04 #@! TD.AperFunction*
D26*
X111426030Y-103957425D02*
X111372076Y-104087681D01*
X111325000Y-104324348D01*
X111325000Y-104565652D01*
X111372076Y-104802319D01*
X111464419Y-105025255D01*
X111598481Y-105225892D01*
X111769108Y-105396519D01*
X111969745Y-105530581D01*
X112192681Y-105622924D01*
X112429348Y-105670000D01*
X112481581Y-105670000D01*
X112500000Y-105671814D01*
X113790000Y-105671814D01*
X113790000Y-105758186D01*
X112500000Y-105758186D01*
X112481581Y-105760000D01*
X112429348Y-105760000D01*
X112192681Y-105807076D01*
X111969745Y-105899419D01*
X111769108Y-106033481D01*
X111598481Y-106204108D01*
X111464419Y-106404745D01*
X111410466Y-106535000D01*
X111243196Y-106535000D01*
X109230380Y-104522185D01*
X109230380Y-101761775D01*
X111426030Y-103957425D01*
G04 #@! TA.AperFunction,Conductor*
D22*
G36*
X111426030Y-103957425D02*
G01*
X111372076Y-104087681D01*
X111325000Y-104324348D01*
X111325000Y-104565652D01*
X111372076Y-104802319D01*
X111464419Y-105025255D01*
X111598481Y-105225892D01*
X111769108Y-105396519D01*
X111969745Y-105530581D01*
X112192681Y-105622924D01*
X112429348Y-105670000D01*
X112481581Y-105670000D01*
X112500000Y-105671814D01*
X113790000Y-105671814D01*
X113790000Y-105758186D01*
X112500000Y-105758186D01*
X112481581Y-105760000D01*
X112429348Y-105760000D01*
X112192681Y-105807076D01*
X111969745Y-105899419D01*
X111769108Y-106033481D01*
X111598481Y-106204108D01*
X111464419Y-106404745D01*
X111410466Y-106535000D01*
X111243196Y-106535000D01*
X109230380Y-104522185D01*
X109230380Y-101761775D01*
X111426030Y-103957425D01*
G37*
G04 #@! TD.AperFunction*
D26*
X96060220Y-102498384D02*
X95237575Y-103321030D01*
X95107319Y-103267076D01*
X94870652Y-103220000D01*
X94818419Y-103220000D01*
X94800000Y-103218186D01*
X93500000Y-103218186D01*
X93500000Y-100591814D01*
X94800000Y-100591814D01*
X94818419Y-100590000D01*
X94870652Y-100590000D01*
X95107319Y-100542924D01*
X95330255Y-100450581D01*
X95530892Y-100316519D01*
X95701519Y-100145892D01*
X95835581Y-99945255D01*
X95897695Y-99795299D01*
X95939041Y-99782757D01*
X96017216Y-99740971D01*
X96060221Y-99705678D01*
X96060220Y-102498384D01*
G04 #@! TA.AperFunction,Conductor*
D22*
G36*
X96060220Y-102498384D02*
G01*
X95237575Y-103321030D01*
X95107319Y-103267076D01*
X94870652Y-103220000D01*
X94818419Y-103220000D01*
X94800000Y-103218186D01*
X93500000Y-103218186D01*
X93500000Y-100591814D01*
X94800000Y-100591814D01*
X94818419Y-100590000D01*
X94870652Y-100590000D01*
X95107319Y-100542924D01*
X95330255Y-100450581D01*
X95530892Y-100316519D01*
X95701519Y-100145892D01*
X95835581Y-99945255D01*
X95897695Y-99795299D01*
X95939041Y-99782757D01*
X96017216Y-99740971D01*
X96060221Y-99705678D01*
X96060220Y-102498384D01*
G37*
G04 #@! TD.AperFunction*
D26*
X111426030Y-98877425D02*
X111372076Y-99007681D01*
X111325000Y-99244348D01*
X111325000Y-99485652D01*
X111372076Y-99722319D01*
X111464419Y-99945255D01*
X111598481Y-100145892D01*
X111769108Y-100316519D01*
X111969745Y-100450581D01*
X112192681Y-100542924D01*
X112429348Y-100590000D01*
X112481581Y-100590000D01*
X112500000Y-100591814D01*
X113790000Y-100591814D01*
X113790000Y-103218186D01*
X112500000Y-103218186D01*
X112481581Y-103220000D01*
X112429348Y-103220000D01*
X112192681Y-103267076D01*
X112062425Y-103321030D01*
X109530390Y-100788995D01*
X109530390Y-96981785D01*
X111426030Y-98877425D01*
G04 #@! TA.AperFunction,Conductor*
D22*
G36*
X111426030Y-98877425D02*
G01*
X111372076Y-99007681D01*
X111325000Y-99244348D01*
X111325000Y-99485652D01*
X111372076Y-99722319D01*
X111464419Y-99945255D01*
X111598481Y-100145892D01*
X111769108Y-100316519D01*
X111969745Y-100450581D01*
X112192681Y-100542924D01*
X112429348Y-100590000D01*
X112481581Y-100590000D01*
X112500000Y-100591814D01*
X113790000Y-100591814D01*
X113790000Y-103218186D01*
X112500000Y-103218186D01*
X112481581Y-103220000D01*
X112429348Y-103220000D01*
X112192681Y-103267076D01*
X112062425Y-103321030D01*
X109530390Y-100788995D01*
X109530390Y-96981785D01*
X111426030Y-98877425D01*
G37*
G04 #@! TD.AperFunction*
D26*
X103327500Y-86126374D02*
X103444000Y-86126374D01*
X103444000Y-86589625D01*
X103441824Y-86611720D01*
X103444000Y-86633814D01*
X103444000Y-86633824D01*
X103444102Y-86634855D01*
X103442866Y-86647400D01*
X103442866Y-86987400D01*
X103452796Y-87088225D01*
X103482206Y-87185176D01*
X103529965Y-87274526D01*
X103594237Y-87352843D01*
X103649680Y-87398343D01*
X103649680Y-87635985D01*
X103647504Y-87658080D01*
X103649680Y-87680174D01*
X103649680Y-87680184D01*
X103656191Y-87746294D01*
X103666855Y-87781448D01*
X103681923Y-87831120D01*
X103723709Y-87909296D01*
X103751258Y-87942864D01*
X103779943Y-87977817D01*
X103797113Y-87991908D01*
X104107226Y-88302021D01*
X104107226Y-88605480D01*
X104118309Y-88718011D01*
X104151133Y-88826217D01*
X104204437Y-88925941D01*
X104276171Y-89013349D01*
X104363579Y-89085083D01*
X104463303Y-89138387D01*
X104571509Y-89171211D01*
X104684040Y-89182294D01*
X104888032Y-89182294D01*
X103785195Y-90285132D01*
X103795614Y-90179340D01*
X103795614Y-89679340D01*
X103784531Y-89566809D01*
X103751707Y-89458603D01*
X103698403Y-89358879D01*
X103626669Y-89271471D01*
X103539261Y-89199737D01*
X103439537Y-89146433D01*
X103331331Y-89113609D01*
X103218800Y-89102526D01*
X102818800Y-89102526D01*
X102706269Y-89113609D01*
X102598063Y-89146433D01*
X102498339Y-89199737D01*
X102410931Y-89271471D01*
X102339197Y-89358879D01*
X102293800Y-89443810D01*
X102248403Y-89358879D01*
X102176669Y-89271471D01*
X102089261Y-89199737D01*
X101989537Y-89146433D01*
X101881331Y-89113609D01*
X101768800Y-89102526D01*
X101368800Y-89102526D01*
X101256269Y-89113609D01*
X101148063Y-89146433D01*
X101048339Y-89199737D01*
X100960931Y-89271471D01*
X100889197Y-89358879D01*
X100835893Y-89458603D01*
X100803069Y-89566809D01*
X100791986Y-89679340D01*
X100791986Y-90179340D01*
X100803069Y-90291871D01*
X100835893Y-90400077D01*
X100889197Y-90499801D01*
X100937965Y-90559225D01*
X100907251Y-90575642D01*
X100829693Y-90639293D01*
X100766042Y-90716851D01*
X100718746Y-90805337D01*
X100689620Y-90901350D01*
X100679786Y-91001200D01*
X100679786Y-91115767D01*
X100679000Y-91119718D01*
X100679000Y-91252682D01*
X100679786Y-91256633D01*
X100679786Y-91371200D01*
X100689620Y-91471050D01*
X100718746Y-91567063D01*
X100766042Y-91655549D01*
X100829693Y-91733107D01*
X100907251Y-91796758D01*
X100995737Y-91844054D01*
X101091750Y-91873180D01*
X101191600Y-91883014D01*
X101461600Y-91883014D01*
X101561450Y-91873180D01*
X101657463Y-91844054D01*
X101745949Y-91796758D01*
X101823507Y-91733107D01*
X101836600Y-91717153D01*
X101849693Y-91733107D01*
X101927251Y-91796758D01*
X102015737Y-91844054D01*
X102111750Y-91873180D01*
X102211600Y-91883014D01*
X102481600Y-91883014D01*
X102581450Y-91873180D01*
X102638831Y-91855773D01*
X95785224Y-98709381D01*
X95701519Y-98584108D01*
X95530892Y-98413481D01*
X95330255Y-98279419D01*
X95107319Y-98187076D01*
X94870652Y-98140000D01*
X94818419Y-98140000D01*
X94800000Y-98138186D01*
X93500000Y-98138186D01*
X93500000Y-98051814D01*
X94800000Y-98051814D01*
X94818419Y-98050000D01*
X94870652Y-98050000D01*
X95107319Y-98002924D01*
X95330255Y-97910581D01*
X95530892Y-97776519D01*
X95701519Y-97605892D01*
X95835581Y-97405255D01*
X95927924Y-97182319D01*
X95975000Y-96945652D01*
X95975000Y-96704348D01*
X95927924Y-96467681D01*
X95835581Y-96244745D01*
X95810759Y-96207596D01*
X100257032Y-91761324D01*
X100274197Y-91747237D01*
X100288284Y-91730072D01*
X100288288Y-91730068D01*
X100330431Y-91678717D01*
X100372217Y-91600541D01*
X100381491Y-91569969D01*
X100397949Y-91515715D01*
X100404460Y-91449605D01*
X100404460Y-91449595D01*
X100406636Y-91427500D01*
X100404460Y-91405406D01*
X100404460Y-88337491D01*
X100791986Y-87949965D01*
X100791986Y-88329340D01*
X100803069Y-88441871D01*
X100835893Y-88550077D01*
X100889197Y-88649801D01*
X100960931Y-88737209D01*
X101048339Y-88808943D01*
X101148063Y-88862247D01*
X101256269Y-88895071D01*
X101368800Y-88906154D01*
X101703957Y-88906154D01*
X101754905Y-88921609D01*
X101843120Y-88930297D01*
X101931334Y-88921609D01*
X102016160Y-88895877D01*
X102094335Y-88854091D01*
X102162857Y-88797857D01*
X102219091Y-88729336D01*
X102260877Y-88651161D01*
X102278200Y-88594055D01*
X102301707Y-88550077D01*
X102334531Y-88441871D01*
X102345614Y-88329340D01*
X102345614Y-87829340D01*
X102334531Y-87716809D01*
X102301707Y-87608603D01*
X102293120Y-87592538D01*
X102293120Y-87220795D01*
X103192573Y-86321343D01*
X103209737Y-86307257D01*
X103223824Y-86290092D01*
X103223828Y-86290088D01*
X103265971Y-86238737D01*
X103307757Y-86160561D01*
X103307757Y-86160560D01*
X103318400Y-86125478D01*
X103327500Y-86126374D01*
G04 #@! TA.AperFunction,Conductor*
D22*
G36*
X103327500Y-86126374D02*
G01*
X103444000Y-86126374D01*
X103444000Y-86589625D01*
X103441824Y-86611720D01*
X103444000Y-86633814D01*
X103444000Y-86633824D01*
X103444102Y-86634855D01*
X103442866Y-86647400D01*
X103442866Y-86987400D01*
X103452796Y-87088225D01*
X103482206Y-87185176D01*
X103529965Y-87274526D01*
X103594237Y-87352843D01*
X103649680Y-87398343D01*
X103649680Y-87635985D01*
X103647504Y-87658080D01*
X103649680Y-87680174D01*
X103649680Y-87680184D01*
X103656191Y-87746294D01*
X103666855Y-87781448D01*
X103681923Y-87831120D01*
X103723709Y-87909296D01*
X103751258Y-87942864D01*
X103779943Y-87977817D01*
X103797113Y-87991908D01*
X104107226Y-88302021D01*
X104107226Y-88605480D01*
X104118309Y-88718011D01*
X104151133Y-88826217D01*
X104204437Y-88925941D01*
X104276171Y-89013349D01*
X104363579Y-89085083D01*
X104463303Y-89138387D01*
X104571509Y-89171211D01*
X104684040Y-89182294D01*
X104888032Y-89182294D01*
X103785195Y-90285132D01*
X103795614Y-90179340D01*
X103795614Y-89679340D01*
X103784531Y-89566809D01*
X103751707Y-89458603D01*
X103698403Y-89358879D01*
X103626669Y-89271471D01*
X103539261Y-89199737D01*
X103439537Y-89146433D01*
X103331331Y-89113609D01*
X103218800Y-89102526D01*
X102818800Y-89102526D01*
X102706269Y-89113609D01*
X102598063Y-89146433D01*
X102498339Y-89199737D01*
X102410931Y-89271471D01*
X102339197Y-89358879D01*
X102293800Y-89443810D01*
X102248403Y-89358879D01*
X102176669Y-89271471D01*
X102089261Y-89199737D01*
X101989537Y-89146433D01*
X101881331Y-89113609D01*
X101768800Y-89102526D01*
X101368800Y-89102526D01*
X101256269Y-89113609D01*
X101148063Y-89146433D01*
X101048339Y-89199737D01*
X100960931Y-89271471D01*
X100889197Y-89358879D01*
X100835893Y-89458603D01*
X100803069Y-89566809D01*
X100791986Y-89679340D01*
X100791986Y-90179340D01*
X100803069Y-90291871D01*
X100835893Y-90400077D01*
X100889197Y-90499801D01*
X100937965Y-90559225D01*
X100907251Y-90575642D01*
X100829693Y-90639293D01*
X100766042Y-90716851D01*
X100718746Y-90805337D01*
X100689620Y-90901350D01*
X100679786Y-91001200D01*
X100679786Y-91115767D01*
X100679000Y-91119718D01*
X100679000Y-91252682D01*
X100679786Y-91256633D01*
X100679786Y-91371200D01*
X100689620Y-91471050D01*
X100718746Y-91567063D01*
X100766042Y-91655549D01*
X100829693Y-91733107D01*
X100907251Y-91796758D01*
X100995737Y-91844054D01*
X101091750Y-91873180D01*
X101191600Y-91883014D01*
X101461600Y-91883014D01*
X101561450Y-91873180D01*
X101657463Y-91844054D01*
X101745949Y-91796758D01*
X101823507Y-91733107D01*
X101836600Y-91717153D01*
X101849693Y-91733107D01*
X101927251Y-91796758D01*
X102015737Y-91844054D01*
X102111750Y-91873180D01*
X102211600Y-91883014D01*
X102481600Y-91883014D01*
X102581450Y-91873180D01*
X102638831Y-91855773D01*
X95785224Y-98709381D01*
X95701519Y-98584108D01*
X95530892Y-98413481D01*
X95330255Y-98279419D01*
X95107319Y-98187076D01*
X94870652Y-98140000D01*
X94818419Y-98140000D01*
X94800000Y-98138186D01*
X93500000Y-98138186D01*
X93500000Y-98051814D01*
X94800000Y-98051814D01*
X94818419Y-98050000D01*
X94870652Y-98050000D01*
X95107319Y-98002924D01*
X95330255Y-97910581D01*
X95530892Y-97776519D01*
X95701519Y-97605892D01*
X95835581Y-97405255D01*
X95927924Y-97182319D01*
X95975000Y-96945652D01*
X95975000Y-96704348D01*
X95927924Y-96467681D01*
X95835581Y-96244745D01*
X95810759Y-96207596D01*
X100257032Y-91761324D01*
X100274197Y-91747237D01*
X100288284Y-91730072D01*
X100288288Y-91730068D01*
X100330431Y-91678717D01*
X100372217Y-91600541D01*
X100381491Y-91569969D01*
X100397949Y-91515715D01*
X100404460Y-91449605D01*
X100404460Y-91449595D01*
X100406636Y-91427500D01*
X100404460Y-91405406D01*
X100404460Y-88337491D01*
X100791986Y-87949965D01*
X100791986Y-88329340D01*
X100803069Y-88441871D01*
X100835893Y-88550077D01*
X100889197Y-88649801D01*
X100960931Y-88737209D01*
X101048339Y-88808943D01*
X101148063Y-88862247D01*
X101256269Y-88895071D01*
X101368800Y-88906154D01*
X101703957Y-88906154D01*
X101754905Y-88921609D01*
X101843120Y-88930297D01*
X101931334Y-88921609D01*
X102016160Y-88895877D01*
X102094335Y-88854091D01*
X102162857Y-88797857D01*
X102219091Y-88729336D01*
X102260877Y-88651161D01*
X102278200Y-88594055D01*
X102301707Y-88550077D01*
X102334531Y-88441871D01*
X102345614Y-88329340D01*
X102345614Y-87829340D01*
X102334531Y-87716809D01*
X102301707Y-87608603D01*
X102293120Y-87592538D01*
X102293120Y-87220795D01*
X103192573Y-86321343D01*
X103209737Y-86307257D01*
X103223824Y-86290092D01*
X103223828Y-86290088D01*
X103265971Y-86238737D01*
X103307757Y-86160561D01*
X103307757Y-86160560D01*
X103318400Y-86125478D01*
X103327500Y-86126374D01*
G37*
G04 #@! TD.AperFunction*
D26*
X111426030Y-96337425D02*
X111372076Y-96467681D01*
X111325000Y-96704348D01*
X111325000Y-96945652D01*
X111372076Y-97182319D01*
X111464419Y-97405255D01*
X111598481Y-97605892D01*
X111769108Y-97776519D01*
X111969745Y-97910581D01*
X112192681Y-98002924D01*
X112429348Y-98050000D01*
X112481581Y-98050000D01*
X112500000Y-98051814D01*
X113790000Y-98051814D01*
X113790000Y-98138186D01*
X112500000Y-98138186D01*
X112481581Y-98140000D01*
X112429348Y-98140000D01*
X112192681Y-98187076D01*
X112062425Y-98241030D01*
X109830400Y-96009005D01*
X109830400Y-94741795D01*
X111426030Y-96337425D01*
G04 #@! TA.AperFunction,Conductor*
D22*
G36*
X111426030Y-96337425D02*
G01*
X111372076Y-96467681D01*
X111325000Y-96704348D01*
X111325000Y-96945652D01*
X111372076Y-97182319D01*
X111464419Y-97405255D01*
X111598481Y-97605892D01*
X111769108Y-97776519D01*
X111969745Y-97910581D01*
X112192681Y-98002924D01*
X112429348Y-98050000D01*
X112481581Y-98050000D01*
X112500000Y-98051814D01*
X113790000Y-98051814D01*
X113790000Y-98138186D01*
X112500000Y-98138186D01*
X112481581Y-98140000D01*
X112429348Y-98140000D01*
X112192681Y-98187076D01*
X112062425Y-98241030D01*
X109830400Y-96009005D01*
X109830400Y-94741795D01*
X111426030Y-96337425D01*
G37*
G04 #@! TD.AperFunction*
D26*
X111426030Y-93797425D02*
X111372076Y-93927681D01*
X111325000Y-94164348D01*
X111325000Y-94405652D01*
X111372076Y-94642319D01*
X111464419Y-94865255D01*
X111598481Y-95065892D01*
X111769108Y-95236519D01*
X111969745Y-95370581D01*
X112192681Y-95462924D01*
X112429348Y-95510000D01*
X112481581Y-95510000D01*
X112500000Y-95511814D01*
X113790000Y-95511814D01*
X113790000Y-95598186D01*
X112500000Y-95598186D01*
X112481581Y-95600000D01*
X112429348Y-95600000D01*
X112192681Y-95647076D01*
X112062425Y-95701030D01*
X110133750Y-93772355D01*
X110133750Y-92505145D01*
X111426030Y-93797425D01*
G04 #@! TA.AperFunction,Conductor*
D22*
G36*
X111426030Y-93797425D02*
G01*
X111372076Y-93927681D01*
X111325000Y-94164348D01*
X111325000Y-94405652D01*
X111372076Y-94642319D01*
X111464419Y-94865255D01*
X111598481Y-95065892D01*
X111769108Y-95236519D01*
X111969745Y-95370581D01*
X112192681Y-95462924D01*
X112429348Y-95510000D01*
X112481581Y-95510000D01*
X112500000Y-95511814D01*
X113790000Y-95511814D01*
X113790000Y-95598186D01*
X112500000Y-95598186D01*
X112481581Y-95600000D01*
X112429348Y-95600000D01*
X112192681Y-95647076D01*
X112062425Y-95701030D01*
X110133750Y-93772355D01*
X110133750Y-92505145D01*
X111426030Y-93797425D01*
G37*
G04 #@! TD.AperFunction*
D26*
X96852986Y-91162100D02*
X96864069Y-91274631D01*
X96896893Y-91382837D01*
X96950197Y-91482561D01*
X97021931Y-91569969D01*
X97109339Y-91641703D01*
X97209063Y-91695007D01*
X97317269Y-91727831D01*
X97429800Y-91738914D01*
X97560112Y-91738914D01*
X97544242Y-91758251D01*
X97496946Y-91846737D01*
X97467820Y-91942750D01*
X97457986Y-92042600D01*
X97457986Y-92412600D01*
X97467820Y-92512450D01*
X97496946Y-92608463D01*
X97544242Y-92696949D01*
X97607893Y-92774507D01*
X97685451Y-92838158D01*
X97773937Y-92885454D01*
X97840054Y-92905511D01*
X95745511Y-95000054D01*
X95835581Y-94865255D01*
X95927924Y-94642319D01*
X95975000Y-94405652D01*
X95975000Y-94164348D01*
X95927924Y-93927681D01*
X95873970Y-93797425D01*
X96492752Y-93178644D01*
X96509917Y-93164557D01*
X96524004Y-93147392D01*
X96524008Y-93147388D01*
X96566151Y-93096037D01*
X96607937Y-93017861D01*
X96621905Y-92971814D01*
X96633669Y-92933035D01*
X96640180Y-92866925D01*
X96640180Y-92866915D01*
X96642356Y-92844821D01*
X96640180Y-92822726D01*
X96640180Y-91098275D01*
X96852986Y-90885469D01*
X96852986Y-91162100D01*
G04 #@! TA.AperFunction,Conductor*
D22*
G36*
X96852986Y-91162100D02*
G01*
X96864069Y-91274631D01*
X96896893Y-91382837D01*
X96950197Y-91482561D01*
X97021931Y-91569969D01*
X97109339Y-91641703D01*
X97209063Y-91695007D01*
X97317269Y-91727831D01*
X97429800Y-91738914D01*
X97560112Y-91738914D01*
X97544242Y-91758251D01*
X97496946Y-91846737D01*
X97467820Y-91942750D01*
X97457986Y-92042600D01*
X97457986Y-92412600D01*
X97467820Y-92512450D01*
X97496946Y-92608463D01*
X97544242Y-92696949D01*
X97607893Y-92774507D01*
X97685451Y-92838158D01*
X97773937Y-92885454D01*
X97840054Y-92905511D01*
X95745511Y-95000054D01*
X95835581Y-94865255D01*
X95927924Y-94642319D01*
X95975000Y-94405652D01*
X95975000Y-94164348D01*
X95927924Y-93927681D01*
X95873970Y-93797425D01*
X96492752Y-93178644D01*
X96509917Y-93164557D01*
X96524004Y-93147392D01*
X96524008Y-93147388D01*
X96566151Y-93096037D01*
X96607937Y-93017861D01*
X96621905Y-92971814D01*
X96633669Y-92933035D01*
X96640180Y-92866925D01*
X96640180Y-92866915D01*
X96642356Y-92844821D01*
X96640180Y-92822726D01*
X96640180Y-91098275D01*
X96852986Y-90885469D01*
X96852986Y-91162100D01*
G37*
G04 #@! TD.AperFunction*
D26*
X111426030Y-91257425D02*
X111372076Y-91387681D01*
X111325000Y-91624348D01*
X111325000Y-91865652D01*
X111372076Y-92102319D01*
X111464419Y-92325255D01*
X111598481Y-92525892D01*
X111769108Y-92696519D01*
X111969745Y-92830581D01*
X112192681Y-92922924D01*
X112429348Y-92970000D01*
X112481581Y-92970000D01*
X112500000Y-92971814D01*
X113790000Y-92971814D01*
X113790000Y-93058186D01*
X112500000Y-93058186D01*
X112481581Y-93060000D01*
X112429348Y-93060000D01*
X112192681Y-93107076D01*
X112062425Y-93161030D01*
X110433760Y-91532365D01*
X110433760Y-90265155D01*
X111426030Y-91257425D01*
G04 #@! TA.AperFunction,Conductor*
D22*
G36*
X111426030Y-91257425D02*
G01*
X111372076Y-91387681D01*
X111325000Y-91624348D01*
X111325000Y-91865652D01*
X111372076Y-92102319D01*
X111464419Y-92325255D01*
X111598481Y-92525892D01*
X111769108Y-92696519D01*
X111969745Y-92830581D01*
X112192681Y-92922924D01*
X112429348Y-92970000D01*
X112481581Y-92970000D01*
X112500000Y-92971814D01*
X113790000Y-92971814D01*
X113790000Y-93058186D01*
X112500000Y-93058186D01*
X112481581Y-93060000D01*
X112429348Y-93060000D01*
X112192681Y-93107076D01*
X112062425Y-93161030D01*
X110433760Y-91532365D01*
X110433760Y-90265155D01*
X111426030Y-91257425D01*
G37*
G04 #@! TD.AperFunction*
D26*
X111426030Y-86177425D02*
X111372076Y-86307681D01*
X111325000Y-86544348D01*
X111325000Y-86785652D01*
X111372076Y-87022319D01*
X111464419Y-87245255D01*
X111598481Y-87445892D01*
X111769108Y-87616519D01*
X111969745Y-87750581D01*
X112192681Y-87842924D01*
X112429348Y-87890000D01*
X112481581Y-87890000D01*
X112500000Y-87891814D01*
X113790000Y-87891814D01*
X113790000Y-90518186D01*
X112500000Y-90518186D01*
X112481581Y-90520000D01*
X112429348Y-90520000D01*
X112192681Y-90567076D01*
X112062425Y-90621030D01*
X110733770Y-89292375D01*
X110733770Y-85485165D01*
X111426030Y-86177425D01*
G04 #@! TA.AperFunction,Conductor*
D22*
G36*
X111426030Y-86177425D02*
G01*
X111372076Y-86307681D01*
X111325000Y-86544348D01*
X111325000Y-86785652D01*
X111372076Y-87022319D01*
X111464419Y-87245255D01*
X111598481Y-87445892D01*
X111769108Y-87616519D01*
X111969745Y-87750581D01*
X112192681Y-87842924D01*
X112429348Y-87890000D01*
X112481581Y-87890000D01*
X112500000Y-87891814D01*
X113790000Y-87891814D01*
X113790000Y-90518186D01*
X112500000Y-90518186D01*
X112481581Y-90520000D01*
X112429348Y-90520000D01*
X112192681Y-90567076D01*
X112062425Y-90621030D01*
X110733770Y-89292375D01*
X110733770Y-85485165D01*
X111426030Y-86177425D01*
G37*
G04 #@! TD.AperFunction*
D26*
X98228405Y-84348893D02*
X98164133Y-84427210D01*
X98116374Y-84516560D01*
X98086964Y-84613511D01*
X98077034Y-84714336D01*
X98086964Y-84815161D01*
X98116374Y-84912112D01*
X98164133Y-85001462D01*
X98228405Y-85079779D01*
X98468821Y-85320195D01*
X98547138Y-85384467D01*
X98636488Y-85432226D01*
X98733439Y-85461636D01*
X98834264Y-85471566D01*
X98889365Y-85466139D01*
X98370219Y-85985286D01*
X97429800Y-85985286D01*
X97317269Y-85996369D01*
X97209063Y-86029193D01*
X97109339Y-86082497D01*
X97021931Y-86154231D01*
X96950197Y-86241639D01*
X96896893Y-86341363D01*
X96864069Y-86449569D01*
X96852986Y-86562100D01*
X96852986Y-86962100D01*
X96864069Y-87074631D01*
X96896893Y-87182837D01*
X96950197Y-87282561D01*
X97021931Y-87369969D01*
X97109339Y-87441703D01*
X97209063Y-87495007D01*
X97317269Y-87527831D01*
X97429800Y-87538914D01*
X99029800Y-87538914D01*
X99087360Y-87533245D01*
X98876525Y-87744080D01*
X97865814Y-87744080D01*
X97843720Y-87741904D01*
X97821626Y-87744080D01*
X97821615Y-87744080D01*
X97755505Y-87750591D01*
X97674628Y-87775125D01*
X97670679Y-87776323D01*
X97592503Y-87818109D01*
X97541152Y-87860252D01*
X97541148Y-87860256D01*
X97523983Y-87874343D01*
X97509896Y-87891508D01*
X95958734Y-89442671D01*
X95941563Y-89456763D01*
X95927472Y-89473933D01*
X95885329Y-89525284D01*
X95856231Y-89579723D01*
X95843543Y-89603460D01*
X95817811Y-89688286D01*
X95811300Y-89754396D01*
X95811300Y-89754406D01*
X95809124Y-89776500D01*
X95811300Y-89798595D01*
X95811301Y-90047304D01*
X95237575Y-90621030D01*
X95107319Y-90567076D01*
X94870652Y-90520000D01*
X94808419Y-90520000D01*
X94790000Y-90518186D01*
X93500000Y-90518186D01*
X93500000Y-87891814D01*
X94800000Y-87891814D01*
X94818419Y-87890000D01*
X94870652Y-87890000D01*
X95107319Y-87842924D01*
X95330255Y-87750581D01*
X95530892Y-87616519D01*
X95701519Y-87445892D01*
X95835581Y-87245255D01*
X95927924Y-87022319D01*
X95975000Y-86785652D01*
X95975000Y-86544348D01*
X95927924Y-86307681D01*
X95873970Y-86177425D01*
X95933827Y-86117569D01*
X97839325Y-84212071D01*
X98365227Y-84212071D01*
X98228405Y-84348893D01*
G04 #@! TA.AperFunction,Conductor*
D22*
G36*
X98228405Y-84348893D02*
G01*
X98164133Y-84427210D01*
X98116374Y-84516560D01*
X98086964Y-84613511D01*
X98077034Y-84714336D01*
X98086964Y-84815161D01*
X98116374Y-84912112D01*
X98164133Y-85001462D01*
X98228405Y-85079779D01*
X98468821Y-85320195D01*
X98547138Y-85384467D01*
X98636488Y-85432226D01*
X98733439Y-85461636D01*
X98834264Y-85471566D01*
X98889365Y-85466139D01*
X98370219Y-85985286D01*
X97429800Y-85985286D01*
X97317269Y-85996369D01*
X97209063Y-86029193D01*
X97109339Y-86082497D01*
X97021931Y-86154231D01*
X96950197Y-86241639D01*
X96896893Y-86341363D01*
X96864069Y-86449569D01*
X96852986Y-86562100D01*
X96852986Y-86962100D01*
X96864069Y-87074631D01*
X96896893Y-87182837D01*
X96950197Y-87282561D01*
X97021931Y-87369969D01*
X97109339Y-87441703D01*
X97209063Y-87495007D01*
X97317269Y-87527831D01*
X97429800Y-87538914D01*
X99029800Y-87538914D01*
X99087360Y-87533245D01*
X98876525Y-87744080D01*
X97865814Y-87744080D01*
X97843720Y-87741904D01*
X97821626Y-87744080D01*
X97821615Y-87744080D01*
X97755505Y-87750591D01*
X97674628Y-87775125D01*
X97670679Y-87776323D01*
X97592503Y-87818109D01*
X97541152Y-87860252D01*
X97541148Y-87860256D01*
X97523983Y-87874343D01*
X97509896Y-87891508D01*
X95958734Y-89442671D01*
X95941563Y-89456763D01*
X95927472Y-89473933D01*
X95885329Y-89525284D01*
X95856231Y-89579723D01*
X95843543Y-89603460D01*
X95817811Y-89688286D01*
X95811300Y-89754396D01*
X95811300Y-89754406D01*
X95809124Y-89776500D01*
X95811300Y-89798595D01*
X95811301Y-90047304D01*
X95237575Y-90621030D01*
X95107319Y-90567076D01*
X94870652Y-90520000D01*
X94808419Y-90520000D01*
X94790000Y-90518186D01*
X93500000Y-90518186D01*
X93500000Y-87891814D01*
X94800000Y-87891814D01*
X94818419Y-87890000D01*
X94870652Y-87890000D01*
X95107319Y-87842924D01*
X95330255Y-87750581D01*
X95530892Y-87616519D01*
X95701519Y-87445892D01*
X95835581Y-87245255D01*
X95927924Y-87022319D01*
X95975000Y-86785652D01*
X95975000Y-86544348D01*
X95927924Y-86307681D01*
X95873970Y-86177425D01*
X95933827Y-86117569D01*
X97839325Y-84212071D01*
X98365227Y-84212071D01*
X98228405Y-84348893D01*
G37*
G04 #@! TD.AperFunction*
D26*
X99504461Y-90435617D02*
X99437669Y-90354231D01*
X99350261Y-90282497D01*
X99250537Y-90229193D01*
X99142331Y-90196369D01*
X99029800Y-90185286D01*
X98132387Y-90185286D01*
X99504460Y-88813213D01*
X99504461Y-90435617D01*
G04 #@! TA.AperFunction,Conductor*
D22*
G36*
X99504461Y-90435617D02*
G01*
X99437669Y-90354231D01*
X99350261Y-90282497D01*
X99250537Y-90229193D01*
X99142331Y-90196369D01*
X99029800Y-90185286D01*
X98132387Y-90185286D01*
X99504460Y-88813213D01*
X99504461Y-90435617D01*
G37*
G04 #@! TD.AperFunction*
D26*
X105751495Y-86810200D02*
X105751507Y-86810200D01*
X105773599Y-86812376D01*
X105795691Y-86810200D01*
X106527560Y-86810200D01*
X106527561Y-87684751D01*
X106504777Y-87672573D01*
X106396571Y-87639749D01*
X106284040Y-87628666D01*
X105487501Y-87628666D01*
X105545043Y-87581443D01*
X105609315Y-87503126D01*
X105657074Y-87413776D01*
X105686484Y-87316825D01*
X105696414Y-87216000D01*
X105696414Y-86876000D01*
X105689331Y-86804078D01*
X105751495Y-86810200D01*
G04 #@! TA.AperFunction,Conductor*
D22*
G36*
X105751495Y-86810200D02*
G01*
X105751507Y-86810200D01*
X105773599Y-86812376D01*
X105795691Y-86810200D01*
X106527560Y-86810200D01*
X106527561Y-87684751D01*
X106504777Y-87672573D01*
X106396571Y-87639749D01*
X106284040Y-87628666D01*
X105487501Y-87628666D01*
X105545043Y-87581443D01*
X105609315Y-87503126D01*
X105657074Y-87413776D01*
X105686484Y-87316825D01*
X105696414Y-87216000D01*
X105696414Y-86876000D01*
X105689331Y-86804078D01*
X105751495Y-86810200D01*
G37*
G04 #@! TD.AperFunction*
D26*
X95297431Y-85481173D02*
X95237575Y-85541030D01*
X95107319Y-85487076D01*
X94870652Y-85440000D01*
X94818419Y-85440000D01*
X94800000Y-85438186D01*
X93500000Y-85438186D01*
X93500000Y-85351814D01*
X94800000Y-85351814D01*
X94818419Y-85350000D01*
X94870652Y-85350000D01*
X95107319Y-85302924D01*
X95330255Y-85210581D01*
X95530892Y-85076519D01*
X95701519Y-84905892D01*
X95835581Y-84705255D01*
X95927924Y-84482319D01*
X95975000Y-84245652D01*
X95975000Y-84004348D01*
X95933402Y-83795220D01*
X96983384Y-83795220D01*
X95297431Y-85481173D01*
G04 #@! TA.AperFunction,Conductor*
D22*
G36*
X95297431Y-85481173D02*
G01*
X95237575Y-85541030D01*
X95107319Y-85487076D01*
X94870652Y-85440000D01*
X94818419Y-85440000D01*
X94800000Y-85438186D01*
X93500000Y-85438186D01*
X93500000Y-85351814D01*
X94800000Y-85351814D01*
X94818419Y-85350000D01*
X94870652Y-85350000D01*
X95107319Y-85302924D01*
X95330255Y-85210581D01*
X95530892Y-85076519D01*
X95701519Y-84905892D01*
X95835581Y-84705255D01*
X95927924Y-84482319D01*
X95975000Y-84245652D01*
X95975000Y-84004348D01*
X95933402Y-83795220D01*
X96983384Y-83795220D01*
X95297431Y-85481173D01*
G37*
G04 #@! TD.AperFunction*
D26*
X101396627Y-78897766D02*
X101421627Y-78980178D01*
X101462224Y-79056130D01*
X101516858Y-79122702D01*
X101583430Y-79177336D01*
X101659382Y-79217933D01*
X101741794Y-79242933D01*
X101827500Y-79251374D01*
X101952500Y-79251374D01*
X102038206Y-79242933D01*
X102120618Y-79217933D01*
X102140000Y-79207573D01*
X102159382Y-79217933D01*
X102241794Y-79242933D01*
X102327500Y-79251374D01*
X102452500Y-79251374D01*
X102538206Y-79242933D01*
X102620618Y-79217933D01*
X102640000Y-79207573D01*
X102659382Y-79217933D01*
X102741794Y-79242933D01*
X102827500Y-79251374D01*
X102952500Y-79251374D01*
X103038206Y-79242933D01*
X103120618Y-79217933D01*
X103140000Y-79207573D01*
X103159382Y-79217933D01*
X103241794Y-79242933D01*
X103327500Y-79251374D01*
X103452500Y-79251374D01*
X103538206Y-79242933D01*
X103620618Y-79217933D01*
X103640000Y-79207573D01*
X103659382Y-79217933D01*
X103741794Y-79242933D01*
X103827500Y-79251374D01*
X103952500Y-79251374D01*
X104038206Y-79242933D01*
X104120618Y-79217933D01*
X104140000Y-79207573D01*
X104159382Y-79217933D01*
X104241794Y-79242933D01*
X104327500Y-79251374D01*
X104452500Y-79251374D01*
X104538206Y-79242933D01*
X104620618Y-79217933D01*
X104640000Y-79207573D01*
X104659382Y-79217933D01*
X104741794Y-79242933D01*
X104827500Y-79251374D01*
X104952500Y-79251374D01*
X105038206Y-79242933D01*
X105120618Y-79217933D01*
X105140000Y-79207573D01*
X105159382Y-79217933D01*
X105241794Y-79242933D01*
X105327500Y-79251374D01*
X105452500Y-79251374D01*
X105538206Y-79242933D01*
X105620618Y-79217933D01*
X105640000Y-79207573D01*
X105659382Y-79217933D01*
X105741794Y-79242933D01*
X105827500Y-79251374D01*
X105952500Y-79251374D01*
X106038206Y-79242933D01*
X106120618Y-79217933D01*
X106140000Y-79207573D01*
X106159382Y-79217933D01*
X106186000Y-79226008D01*
X106186000Y-79299000D01*
X106193206Y-79372159D01*
X106214545Y-79442506D01*
X106249199Y-79507339D01*
X106295835Y-79564165D01*
X106352661Y-79610801D01*
X106417494Y-79645455D01*
X106487841Y-79666794D01*
X106510384Y-79669014D01*
X106458430Y-79696784D01*
X106391858Y-79751418D01*
X106337224Y-79817990D01*
X106296627Y-79893942D01*
X106271627Y-79976354D01*
X106263186Y-80062060D01*
X106263186Y-80187060D01*
X106271627Y-80272766D01*
X106296627Y-80355178D01*
X106306987Y-80374560D01*
X106296627Y-80393942D01*
X106271627Y-80476354D01*
X106263186Y-80562060D01*
X106263186Y-80687060D01*
X106271627Y-80772766D01*
X106296627Y-80855178D01*
X106306987Y-80874560D01*
X106296627Y-80893942D01*
X106271627Y-80976354D01*
X106263186Y-81062060D01*
X106263186Y-81187060D01*
X106271627Y-81272766D01*
X106296627Y-81355178D01*
X106306987Y-81374560D01*
X106296627Y-81393942D01*
X106271627Y-81476354D01*
X106263186Y-81562060D01*
X106263186Y-81687060D01*
X106271627Y-81772766D01*
X106296627Y-81855178D01*
X106306987Y-81874560D01*
X106296627Y-81893942D01*
X106271627Y-81976354D01*
X106263186Y-82062060D01*
X106263186Y-82187060D01*
X106271627Y-82272766D01*
X106296627Y-82355178D01*
X106306987Y-82374560D01*
X106296627Y-82393942D01*
X106271627Y-82476354D01*
X106263186Y-82562060D01*
X106263186Y-82687060D01*
X106271627Y-82772766D01*
X106296627Y-82855178D01*
X106306987Y-82874560D01*
X106296627Y-82893942D01*
X106271627Y-82976354D01*
X106263186Y-83062060D01*
X106263186Y-83187060D01*
X106271627Y-83272766D01*
X106296627Y-83355178D01*
X106306987Y-83374560D01*
X106296627Y-83393942D01*
X106271627Y-83476354D01*
X106263186Y-83562060D01*
X106263186Y-83687060D01*
X106271627Y-83772766D01*
X106296627Y-83855178D01*
X106306987Y-83874560D01*
X106296627Y-83893942D01*
X106271627Y-83976354D01*
X106263186Y-84062060D01*
X106263186Y-84187060D01*
X106271627Y-84272766D01*
X106296627Y-84355178D01*
X106306987Y-84374560D01*
X106296627Y-84393942D01*
X106271627Y-84476354D01*
X106268952Y-84503512D01*
X106241794Y-84506187D01*
X106159382Y-84531187D01*
X106140000Y-84541547D01*
X106120618Y-84531187D01*
X106038206Y-84506187D01*
X105952500Y-84497746D01*
X105827500Y-84497746D01*
X105741794Y-84506187D01*
X105659382Y-84531187D01*
X105640000Y-84541547D01*
X105620618Y-84531187D01*
X105538206Y-84506187D01*
X105452500Y-84497746D01*
X105327500Y-84497746D01*
X105241794Y-84506187D01*
X105159382Y-84531187D01*
X105140000Y-84541547D01*
X105120618Y-84531187D01*
X105038206Y-84506187D01*
X104952500Y-84497746D01*
X104827500Y-84497746D01*
X104741794Y-84506187D01*
X104659382Y-84531187D01*
X104583430Y-84571784D01*
X104516858Y-84626418D01*
X104462224Y-84692990D01*
X104421627Y-84768942D01*
X104396627Y-84851354D01*
X104390000Y-84918641D01*
X104383373Y-84851354D01*
X104358373Y-84768942D01*
X104317776Y-84692990D01*
X104263142Y-84626418D01*
X104196570Y-84571784D01*
X104120618Y-84531187D01*
X104038206Y-84506187D01*
X103952500Y-84497746D01*
X103827500Y-84497746D01*
X103741794Y-84506187D01*
X103659382Y-84531187D01*
X103640000Y-84541547D01*
X103620618Y-84531187D01*
X103538206Y-84506187D01*
X103452500Y-84497746D01*
X103327500Y-84497746D01*
X103241794Y-84506187D01*
X103159382Y-84531187D01*
X103140000Y-84541547D01*
X103120618Y-84531187D01*
X103038206Y-84506187D01*
X102952500Y-84497746D01*
X102827500Y-84497746D01*
X102741794Y-84506187D01*
X102659382Y-84531187D01*
X102640000Y-84541547D01*
X102620618Y-84531187D01*
X102538206Y-84506187D01*
X102452500Y-84497746D01*
X102327500Y-84497746D01*
X102241794Y-84506187D01*
X102159382Y-84531187D01*
X102140000Y-84541547D01*
X102120618Y-84531187D01*
X102038206Y-84506187D01*
X101952500Y-84497746D01*
X101827500Y-84497746D01*
X101741794Y-84506187D01*
X101659382Y-84531187D01*
X101640000Y-84541547D01*
X101620618Y-84531187D01*
X101538206Y-84506187D01*
X101452500Y-84497746D01*
X101388562Y-84497746D01*
X101359139Y-84473599D01*
X101294306Y-84438945D01*
X101223959Y-84417606D01*
X101150800Y-84410400D01*
X101081300Y-84410400D01*
X101081300Y-84379000D01*
X101074094Y-84305841D01*
X101052755Y-84235494D01*
X101018101Y-84170661D01*
X100971465Y-84113835D01*
X100914639Y-84067199D01*
X100849806Y-84032545D01*
X100846798Y-84031632D01*
X100888142Y-83997702D01*
X100942776Y-83931130D01*
X100983373Y-83855178D01*
X101008373Y-83772766D01*
X101016814Y-83687060D01*
X101016814Y-83562060D01*
X101008373Y-83476354D01*
X100983373Y-83393942D01*
X100973013Y-83374560D01*
X100983373Y-83355178D01*
X101008373Y-83272766D01*
X101016814Y-83187060D01*
X101016814Y-83062060D01*
X101008373Y-82976354D01*
X100983373Y-82893942D01*
X100973013Y-82874560D01*
X100983373Y-82855178D01*
X101008373Y-82772766D01*
X101016814Y-82687060D01*
X101016814Y-82562060D01*
X101008373Y-82476354D01*
X100983373Y-82393942D01*
X100973013Y-82374560D01*
X100983373Y-82355178D01*
X101008373Y-82272766D01*
X101016814Y-82187060D01*
X101016814Y-82062060D01*
X101008373Y-81976354D01*
X100983373Y-81893942D01*
X100973013Y-81874560D01*
X100983373Y-81855178D01*
X101008373Y-81772766D01*
X101016814Y-81687060D01*
X101016814Y-81562060D01*
X101008373Y-81476354D01*
X100983373Y-81393942D01*
X100973013Y-81374560D01*
X100983373Y-81355178D01*
X101008373Y-81272766D01*
X101016814Y-81187060D01*
X101016814Y-81062060D01*
X101008373Y-80976354D01*
X100983373Y-80893942D01*
X100973013Y-80874560D01*
X100983373Y-80855178D01*
X101008373Y-80772766D01*
X101016814Y-80687060D01*
X101016814Y-80562060D01*
X101008373Y-80476354D01*
X100983373Y-80393942D01*
X100973013Y-80374560D01*
X100983373Y-80355178D01*
X101008373Y-80272766D01*
X101016814Y-80187060D01*
X101016814Y-80062060D01*
X101008373Y-79976354D01*
X100983373Y-79893942D01*
X100973013Y-79874560D01*
X100983373Y-79855178D01*
X101008373Y-79772766D01*
X101016814Y-79687060D01*
X101016814Y-79562060D01*
X101008373Y-79476354D01*
X100983373Y-79393942D01*
X100973013Y-79374560D01*
X100983373Y-79355178D01*
X101008373Y-79272766D01*
X101011048Y-79245608D01*
X101038206Y-79242933D01*
X101120618Y-79217933D01*
X101196570Y-79177336D01*
X101263142Y-79122702D01*
X101317776Y-79056130D01*
X101358373Y-78980178D01*
X101383373Y-78897766D01*
X101390000Y-78830479D01*
X101396627Y-78897766D01*
G04 #@! TA.AperFunction,Conductor*
D22*
G36*
X101396627Y-78897766D02*
G01*
X101421627Y-78980178D01*
X101462224Y-79056130D01*
X101516858Y-79122702D01*
X101583430Y-79177336D01*
X101659382Y-79217933D01*
X101741794Y-79242933D01*
X101827500Y-79251374D01*
X101952500Y-79251374D01*
X102038206Y-79242933D01*
X102120618Y-79217933D01*
X102140000Y-79207573D01*
X102159382Y-79217933D01*
X102241794Y-79242933D01*
X102327500Y-79251374D01*
X102452500Y-79251374D01*
X102538206Y-79242933D01*
X102620618Y-79217933D01*
X102640000Y-79207573D01*
X102659382Y-79217933D01*
X102741794Y-79242933D01*
X102827500Y-79251374D01*
X102952500Y-79251374D01*
X103038206Y-79242933D01*
X103120618Y-79217933D01*
X103140000Y-79207573D01*
X103159382Y-79217933D01*
X103241794Y-79242933D01*
X103327500Y-79251374D01*
X103452500Y-79251374D01*
X103538206Y-79242933D01*
X103620618Y-79217933D01*
X103640000Y-79207573D01*
X103659382Y-79217933D01*
X103741794Y-79242933D01*
X103827500Y-79251374D01*
X103952500Y-79251374D01*
X104038206Y-79242933D01*
X104120618Y-79217933D01*
X104140000Y-79207573D01*
X104159382Y-79217933D01*
X104241794Y-79242933D01*
X104327500Y-79251374D01*
X104452500Y-79251374D01*
X104538206Y-79242933D01*
X104620618Y-79217933D01*
X104640000Y-79207573D01*
X104659382Y-79217933D01*
X104741794Y-79242933D01*
X104827500Y-79251374D01*
X104952500Y-79251374D01*
X105038206Y-79242933D01*
X105120618Y-79217933D01*
X105140000Y-79207573D01*
X105159382Y-79217933D01*
X105241794Y-79242933D01*
X105327500Y-79251374D01*
X105452500Y-79251374D01*
X105538206Y-79242933D01*
X105620618Y-79217933D01*
X105640000Y-79207573D01*
X105659382Y-79217933D01*
X105741794Y-79242933D01*
X105827500Y-79251374D01*
X105952500Y-79251374D01*
X106038206Y-79242933D01*
X106120618Y-79217933D01*
X106140000Y-79207573D01*
X106159382Y-79217933D01*
X106186000Y-79226008D01*
X106186000Y-79299000D01*
X106193206Y-79372159D01*
X106214545Y-79442506D01*
X106249199Y-79507339D01*
X106295835Y-79564165D01*
X106352661Y-79610801D01*
X106417494Y-79645455D01*
X106487841Y-79666794D01*
X106510384Y-79669014D01*
X106458430Y-79696784D01*
X106391858Y-79751418D01*
X106337224Y-79817990D01*
X106296627Y-79893942D01*
X106271627Y-79976354D01*
X106263186Y-80062060D01*
X106263186Y-80187060D01*
X106271627Y-80272766D01*
X106296627Y-80355178D01*
X106306987Y-80374560D01*
X106296627Y-80393942D01*
X106271627Y-80476354D01*
X106263186Y-80562060D01*
X106263186Y-80687060D01*
X106271627Y-80772766D01*
X106296627Y-80855178D01*
X106306987Y-80874560D01*
X106296627Y-80893942D01*
X106271627Y-80976354D01*
X106263186Y-81062060D01*
X106263186Y-81187060D01*
X106271627Y-81272766D01*
X106296627Y-81355178D01*
X106306987Y-81374560D01*
X106296627Y-81393942D01*
X106271627Y-81476354D01*
X106263186Y-81562060D01*
X106263186Y-81687060D01*
X106271627Y-81772766D01*
X106296627Y-81855178D01*
X106306987Y-81874560D01*
X106296627Y-81893942D01*
X106271627Y-81976354D01*
X106263186Y-82062060D01*
X106263186Y-82187060D01*
X106271627Y-82272766D01*
X106296627Y-82355178D01*
X106306987Y-82374560D01*
X106296627Y-82393942D01*
X106271627Y-82476354D01*
X106263186Y-82562060D01*
X106263186Y-82687060D01*
X106271627Y-82772766D01*
X106296627Y-82855178D01*
X106306987Y-82874560D01*
X106296627Y-82893942D01*
X106271627Y-82976354D01*
X106263186Y-83062060D01*
X106263186Y-83187060D01*
X106271627Y-83272766D01*
X106296627Y-83355178D01*
X106306987Y-83374560D01*
X106296627Y-83393942D01*
X106271627Y-83476354D01*
X106263186Y-83562060D01*
X106263186Y-83687060D01*
X106271627Y-83772766D01*
X106296627Y-83855178D01*
X106306987Y-83874560D01*
X106296627Y-83893942D01*
X106271627Y-83976354D01*
X106263186Y-84062060D01*
X106263186Y-84187060D01*
X106271627Y-84272766D01*
X106296627Y-84355178D01*
X106306987Y-84374560D01*
X106296627Y-84393942D01*
X106271627Y-84476354D01*
X106268952Y-84503512D01*
X106241794Y-84506187D01*
X106159382Y-84531187D01*
X106140000Y-84541547D01*
X106120618Y-84531187D01*
X106038206Y-84506187D01*
X105952500Y-84497746D01*
X105827500Y-84497746D01*
X105741794Y-84506187D01*
X105659382Y-84531187D01*
X105640000Y-84541547D01*
X105620618Y-84531187D01*
X105538206Y-84506187D01*
X105452500Y-84497746D01*
X105327500Y-84497746D01*
X105241794Y-84506187D01*
X105159382Y-84531187D01*
X105140000Y-84541547D01*
X105120618Y-84531187D01*
X105038206Y-84506187D01*
X104952500Y-84497746D01*
X104827500Y-84497746D01*
X104741794Y-84506187D01*
X104659382Y-84531187D01*
X104583430Y-84571784D01*
X104516858Y-84626418D01*
X104462224Y-84692990D01*
X104421627Y-84768942D01*
X104396627Y-84851354D01*
X104390000Y-84918641D01*
X104383373Y-84851354D01*
X104358373Y-84768942D01*
X104317776Y-84692990D01*
X104263142Y-84626418D01*
X104196570Y-84571784D01*
X104120618Y-84531187D01*
X104038206Y-84506187D01*
X103952500Y-84497746D01*
X103827500Y-84497746D01*
X103741794Y-84506187D01*
X103659382Y-84531187D01*
X103640000Y-84541547D01*
X103620618Y-84531187D01*
X103538206Y-84506187D01*
X103452500Y-84497746D01*
X103327500Y-84497746D01*
X103241794Y-84506187D01*
X103159382Y-84531187D01*
X103140000Y-84541547D01*
X103120618Y-84531187D01*
X103038206Y-84506187D01*
X102952500Y-84497746D01*
X102827500Y-84497746D01*
X102741794Y-84506187D01*
X102659382Y-84531187D01*
X102640000Y-84541547D01*
X102620618Y-84531187D01*
X102538206Y-84506187D01*
X102452500Y-84497746D01*
X102327500Y-84497746D01*
X102241794Y-84506187D01*
X102159382Y-84531187D01*
X102140000Y-84541547D01*
X102120618Y-84531187D01*
X102038206Y-84506187D01*
X101952500Y-84497746D01*
X101827500Y-84497746D01*
X101741794Y-84506187D01*
X101659382Y-84531187D01*
X101640000Y-84541547D01*
X101620618Y-84531187D01*
X101538206Y-84506187D01*
X101452500Y-84497746D01*
X101388562Y-84497746D01*
X101359139Y-84473599D01*
X101294306Y-84438945D01*
X101223959Y-84417606D01*
X101150800Y-84410400D01*
X101081300Y-84410400D01*
X101081300Y-84379000D01*
X101074094Y-84305841D01*
X101052755Y-84235494D01*
X101018101Y-84170661D01*
X100971465Y-84113835D01*
X100914639Y-84067199D01*
X100849806Y-84032545D01*
X100846798Y-84031632D01*
X100888142Y-83997702D01*
X100942776Y-83931130D01*
X100983373Y-83855178D01*
X101008373Y-83772766D01*
X101016814Y-83687060D01*
X101016814Y-83562060D01*
X101008373Y-83476354D01*
X100983373Y-83393942D01*
X100973013Y-83374560D01*
X100983373Y-83355178D01*
X101008373Y-83272766D01*
X101016814Y-83187060D01*
X101016814Y-83062060D01*
X101008373Y-82976354D01*
X100983373Y-82893942D01*
X100973013Y-82874560D01*
X100983373Y-82855178D01*
X101008373Y-82772766D01*
X101016814Y-82687060D01*
X101016814Y-82562060D01*
X101008373Y-82476354D01*
X100983373Y-82393942D01*
X100973013Y-82374560D01*
X100983373Y-82355178D01*
X101008373Y-82272766D01*
X101016814Y-82187060D01*
X101016814Y-82062060D01*
X101008373Y-81976354D01*
X100983373Y-81893942D01*
X100973013Y-81874560D01*
X100983373Y-81855178D01*
X101008373Y-81772766D01*
X101016814Y-81687060D01*
X101016814Y-81562060D01*
X101008373Y-81476354D01*
X100983373Y-81393942D01*
X100973013Y-81374560D01*
X100983373Y-81355178D01*
X101008373Y-81272766D01*
X101016814Y-81187060D01*
X101016814Y-81062060D01*
X101008373Y-80976354D01*
X100983373Y-80893942D01*
X100973013Y-80874560D01*
X100983373Y-80855178D01*
X101008373Y-80772766D01*
X101016814Y-80687060D01*
X101016814Y-80562060D01*
X101008373Y-80476354D01*
X100983373Y-80393942D01*
X100973013Y-80374560D01*
X100983373Y-80355178D01*
X101008373Y-80272766D01*
X101016814Y-80187060D01*
X101016814Y-80062060D01*
X101008373Y-79976354D01*
X100983373Y-79893942D01*
X100973013Y-79874560D01*
X100983373Y-79855178D01*
X101008373Y-79772766D01*
X101016814Y-79687060D01*
X101016814Y-79562060D01*
X101008373Y-79476354D01*
X100983373Y-79393942D01*
X100973013Y-79374560D01*
X100983373Y-79355178D01*
X101008373Y-79272766D01*
X101011048Y-79245608D01*
X101038206Y-79242933D01*
X101120618Y-79217933D01*
X101196570Y-79177336D01*
X101263142Y-79122702D01*
X101317776Y-79056130D01*
X101358373Y-78980178D01*
X101383373Y-78897766D01*
X101390000Y-78830479D01*
X101396627Y-78897766D01*
G37*
G04 #@! TD.AperFunction*
D26*
X97239157Y-82090957D02*
X97174885Y-82169274D01*
X97127126Y-82258624D01*
X97097716Y-82355575D01*
X97087786Y-82456400D01*
X97087786Y-82468492D01*
X97069600Y-82559918D01*
X97069600Y-82692882D01*
X97087786Y-82784308D01*
X97087786Y-82796400D01*
X97097519Y-82895220D01*
X95551871Y-82895220D01*
X95529779Y-82893044D01*
X95507687Y-82895220D01*
X95507675Y-82895220D01*
X95441565Y-82901731D01*
X95356739Y-82927463D01*
X95311734Y-82951519D01*
X95278563Y-82969249D01*
X95239079Y-83001653D01*
X95107319Y-82947076D01*
X94870652Y-82900000D01*
X94818419Y-82900000D01*
X94800000Y-82898186D01*
X93500000Y-82898186D01*
X93500000Y-82811814D01*
X94800000Y-82811814D01*
X94818419Y-82810000D01*
X94870652Y-82810000D01*
X95107319Y-82762924D01*
X95330255Y-82670581D01*
X95530892Y-82536519D01*
X95701519Y-82365892D01*
X95835581Y-82165255D01*
X95889534Y-82035000D01*
X97307342Y-82035000D01*
X97239157Y-82090957D01*
G04 #@! TA.AperFunction,Conductor*
D22*
G36*
X97239157Y-82090957D02*
G01*
X97174885Y-82169274D01*
X97127126Y-82258624D01*
X97097716Y-82355575D01*
X97087786Y-82456400D01*
X97087786Y-82468492D01*
X97069600Y-82559918D01*
X97069600Y-82692882D01*
X97087786Y-82784308D01*
X97087786Y-82796400D01*
X97097519Y-82895220D01*
X95551871Y-82895220D01*
X95529779Y-82893044D01*
X95507687Y-82895220D01*
X95507675Y-82895220D01*
X95441565Y-82901731D01*
X95356739Y-82927463D01*
X95311734Y-82951519D01*
X95278563Y-82969249D01*
X95239079Y-83001653D01*
X95107319Y-82947076D01*
X94870652Y-82900000D01*
X94818419Y-82900000D01*
X94800000Y-82898186D01*
X93500000Y-82898186D01*
X93500000Y-82811814D01*
X94800000Y-82811814D01*
X94818419Y-82810000D01*
X94870652Y-82810000D01*
X95107319Y-82762924D01*
X95330255Y-82670581D01*
X95530892Y-82536519D01*
X95701519Y-82365892D01*
X95835581Y-82165255D01*
X95889534Y-82035000D01*
X97307342Y-82035000D01*
X97239157Y-82090957D01*
G37*
G04 #@! TD.AperFunction*
D26*
X109833770Y-78218904D02*
X109833770Y-81605175D01*
X108758757Y-80530162D01*
X108770843Y-80520243D01*
X108835115Y-80441926D01*
X108882874Y-80352576D01*
X108912284Y-80255625D01*
X108922214Y-80154800D01*
X108922214Y-79814800D01*
X108912284Y-79713975D01*
X108882874Y-79617024D01*
X108845163Y-79546472D01*
X108874443Y-79522443D01*
X108938715Y-79444126D01*
X108986474Y-79354776D01*
X109015884Y-79257825D01*
X109025814Y-79157000D01*
X109025814Y-78877000D01*
X109015884Y-78776175D01*
X108986474Y-78679224D01*
X108938715Y-78589874D01*
X108874443Y-78511557D01*
X108796126Y-78447285D01*
X108706776Y-78399526D01*
X108609825Y-78370116D01*
X108509000Y-78360186D01*
X108489073Y-78360186D01*
X108404182Y-78343300D01*
X108271218Y-78343300D01*
X108186327Y-78360186D01*
X108169000Y-78360186D01*
X108079000Y-78369050D01*
X108079000Y-77902000D01*
X108071794Y-77828841D01*
X108050455Y-77758494D01*
X108015801Y-77693661D01*
X107969165Y-77636835D01*
X107912339Y-77590199D01*
X107847506Y-77555545D01*
X107777159Y-77534206D01*
X107704000Y-77527000D01*
X106840000Y-77527000D01*
X106840000Y-77332785D01*
X106841575Y-77331210D01*
X108946077Y-77331210D01*
X109833770Y-78218904D01*
G04 #@! TA.AperFunction,Conductor*
D22*
G36*
X109833770Y-78218904D02*
G01*
X109833770Y-81605175D01*
X108758757Y-80530162D01*
X108770843Y-80520243D01*
X108835115Y-80441926D01*
X108882874Y-80352576D01*
X108912284Y-80255625D01*
X108922214Y-80154800D01*
X108922214Y-79814800D01*
X108912284Y-79713975D01*
X108882874Y-79617024D01*
X108845163Y-79546472D01*
X108874443Y-79522443D01*
X108938715Y-79444126D01*
X108986474Y-79354776D01*
X109015884Y-79257825D01*
X109025814Y-79157000D01*
X109025814Y-78877000D01*
X109015884Y-78776175D01*
X108986474Y-78679224D01*
X108938715Y-78589874D01*
X108874443Y-78511557D01*
X108796126Y-78447285D01*
X108706776Y-78399526D01*
X108609825Y-78370116D01*
X108509000Y-78360186D01*
X108489073Y-78360186D01*
X108404182Y-78343300D01*
X108271218Y-78343300D01*
X108186327Y-78360186D01*
X108169000Y-78360186D01*
X108079000Y-78369050D01*
X108079000Y-77902000D01*
X108071794Y-77828841D01*
X108050455Y-77758494D01*
X108015801Y-77693661D01*
X107969165Y-77636835D01*
X107912339Y-77590199D01*
X107847506Y-77555545D01*
X107777159Y-77534206D01*
X107704000Y-77527000D01*
X106840000Y-77527000D01*
X106840000Y-77332785D01*
X106841575Y-77331210D01*
X108946077Y-77331210D01*
X109833770Y-78218904D01*
G37*
G04 #@! TD.AperFunction*
D26*
X98372470Y-81135000D02*
X95889534Y-81135000D01*
X95835581Y-81004745D01*
X95701519Y-80804108D01*
X95530892Y-80633481D01*
X95330255Y-80499419D01*
X95107319Y-80407076D01*
X94870652Y-80360000D01*
X94818419Y-80360000D01*
X94800000Y-80358186D01*
X93500000Y-80358186D01*
X93500000Y-80271814D01*
X94810000Y-80271814D01*
X94828419Y-80270000D01*
X94870652Y-80270000D01*
X95107319Y-80222924D01*
X95330255Y-80130581D01*
X95530892Y-79996519D01*
X95701519Y-79825892D01*
X95835581Y-79625255D01*
X95889534Y-79495000D01*
X96732471Y-79495000D01*
X98372470Y-81135000D01*
G04 #@! TA.AperFunction,Conductor*
D22*
G36*
X98372470Y-81135000D02*
G01*
X95889534Y-81135000D01*
X95835581Y-81004745D01*
X95701519Y-80804108D01*
X95530892Y-80633481D01*
X95330255Y-80499419D01*
X95107319Y-80407076D01*
X94870652Y-80360000D01*
X94818419Y-80360000D01*
X94800000Y-80358186D01*
X93500000Y-80358186D01*
X93500000Y-80271814D01*
X94810000Y-80271814D01*
X94828419Y-80270000D01*
X94870652Y-80270000D01*
X95107319Y-80222924D01*
X95330255Y-80130581D01*
X95530892Y-79996519D01*
X95701519Y-79825892D01*
X95835581Y-79625255D01*
X95889534Y-79495000D01*
X96732471Y-79495000D01*
X98372470Y-81135000D01*
G37*
G04 #@! TD.AperFunction*
D26*
X97354751Y-74569627D02*
X97354750Y-78844489D01*
X97252695Y-78742434D01*
X97238603Y-78725263D01*
X97170082Y-78669029D01*
X97091907Y-78627243D01*
X97007081Y-78601511D01*
X96940971Y-78595000D01*
X96940960Y-78595000D01*
X96918866Y-78592824D01*
X96896772Y-78595000D01*
X95889534Y-78595000D01*
X95835581Y-78464745D01*
X95701519Y-78264108D01*
X95530892Y-78093481D01*
X95330255Y-77959419D01*
X95107319Y-77867076D01*
X94870652Y-77820000D01*
X94828419Y-77820000D01*
X94810000Y-77818186D01*
X93500000Y-77818186D01*
X93500000Y-75191814D01*
X94800000Y-75191814D01*
X94818419Y-75190000D01*
X94870652Y-75190000D01*
X95107319Y-75142924D01*
X95330255Y-75050581D01*
X95530892Y-74916519D01*
X95701519Y-74745892D01*
X95835581Y-74545255D01*
X95889534Y-74415000D01*
X97200125Y-74415000D01*
X97354751Y-74569627D01*
G04 #@! TA.AperFunction,Conductor*
D22*
G36*
X97354751Y-74569627D02*
G01*
X97354750Y-78844489D01*
X97252695Y-78742434D01*
X97238603Y-78725263D01*
X97170082Y-78669029D01*
X97091907Y-78627243D01*
X97007081Y-78601511D01*
X96940971Y-78595000D01*
X96940960Y-78595000D01*
X96918866Y-78592824D01*
X96896772Y-78595000D01*
X95889534Y-78595000D01*
X95835581Y-78464745D01*
X95701519Y-78264108D01*
X95530892Y-78093481D01*
X95330255Y-77959419D01*
X95107319Y-77867076D01*
X94870652Y-77820000D01*
X94828419Y-77820000D01*
X94810000Y-77818186D01*
X93500000Y-77818186D01*
X93500000Y-75191814D01*
X94800000Y-75191814D01*
X94818419Y-75190000D01*
X94870652Y-75190000D01*
X95107319Y-75142924D01*
X95330255Y-75050581D01*
X95530892Y-74916519D01*
X95701519Y-74745892D01*
X95835581Y-74545255D01*
X95889534Y-74415000D01*
X97200125Y-74415000D01*
X97354751Y-74569627D01*
G37*
G04 #@! TD.AperFunction*
D26*
X101440001Y-77557597D02*
X101440001Y-77859567D01*
X101421627Y-77893942D01*
X101396627Y-77976354D01*
X101390000Y-78043641D01*
X101383373Y-77976354D01*
X101358373Y-77893942D01*
X101317776Y-77817990D01*
X101263142Y-77751418D01*
X101196570Y-77696784D01*
X101120618Y-77656187D01*
X101038206Y-77631187D01*
X100952500Y-77622746D01*
X100827500Y-77622746D01*
X100741794Y-77631187D01*
X100659382Y-77656187D01*
X100583430Y-77696784D01*
X100516858Y-77751418D01*
X100480712Y-77795462D01*
X100458690Y-77786340D01*
X100328282Y-77760400D01*
X100223195Y-77760400D01*
X100187173Y-77724378D01*
X100249915Y-77647926D01*
X100297674Y-77558576D01*
X100327084Y-77461625D01*
X100337014Y-77360800D01*
X100337014Y-77020800D01*
X100327084Y-76919975D01*
X100297674Y-76823024D01*
X100249915Y-76733674D01*
X100185643Y-76655357D01*
X100107326Y-76591085D01*
X100017976Y-76543326D01*
X99921025Y-76513916D01*
X99820200Y-76503986D01*
X99540200Y-76503986D01*
X99464660Y-76511426D01*
X99464660Y-75582255D01*
X101440001Y-77557597D01*
G04 #@! TA.AperFunction,Conductor*
D22*
G36*
X101440001Y-77557597D02*
G01*
X101440001Y-77859567D01*
X101421627Y-77893942D01*
X101396627Y-77976354D01*
X101390000Y-78043641D01*
X101383373Y-77976354D01*
X101358373Y-77893942D01*
X101317776Y-77817990D01*
X101263142Y-77751418D01*
X101196570Y-77696784D01*
X101120618Y-77656187D01*
X101038206Y-77631187D01*
X100952500Y-77622746D01*
X100827500Y-77622746D01*
X100741794Y-77631187D01*
X100659382Y-77656187D01*
X100583430Y-77696784D01*
X100516858Y-77751418D01*
X100480712Y-77795462D01*
X100458690Y-77786340D01*
X100328282Y-77760400D01*
X100223195Y-77760400D01*
X100187173Y-77724378D01*
X100249915Y-77647926D01*
X100297674Y-77558576D01*
X100327084Y-77461625D01*
X100337014Y-77360800D01*
X100337014Y-77020800D01*
X100327084Y-76919975D01*
X100297674Y-76823024D01*
X100249915Y-76733674D01*
X100185643Y-76655357D01*
X100107326Y-76591085D01*
X100017976Y-76543326D01*
X99921025Y-76513916D01*
X99820200Y-76503986D01*
X99540200Y-76503986D01*
X99464660Y-76511426D01*
X99464660Y-75582255D01*
X101440001Y-77557597D01*
G37*
G04 #@! TD.AperFunction*
D26*
X111464419Y-74545255D02*
X111598481Y-74745892D01*
X111769108Y-74916519D01*
X111969745Y-75050581D01*
X112192681Y-75142924D01*
X112429348Y-75190000D01*
X112481581Y-75190000D01*
X112500000Y-75191814D01*
X113790001Y-75191814D01*
X113790001Y-77818186D01*
X112500000Y-77818186D01*
X112481581Y-77820000D01*
X112429348Y-77820000D01*
X112424884Y-77820888D01*
X109968229Y-75364234D01*
X109954137Y-75347063D01*
X109885616Y-75290829D01*
X109807441Y-75249043D01*
X109722615Y-75223311D01*
X109656505Y-75216800D01*
X109656494Y-75216800D01*
X109634400Y-75214624D01*
X109612306Y-75216800D01*
X106834596Y-75216800D01*
X107636396Y-74415000D01*
X111410466Y-74415000D01*
X111464419Y-74545255D01*
G04 #@! TA.AperFunction,Conductor*
D22*
G36*
X111464419Y-74545255D02*
G01*
X111598481Y-74745892D01*
X111769108Y-74916519D01*
X111969745Y-75050581D01*
X112192681Y-75142924D01*
X112429348Y-75190000D01*
X112481581Y-75190000D01*
X112500000Y-75191814D01*
X113790001Y-75191814D01*
X113790001Y-77818186D01*
X112500000Y-77818186D01*
X112481581Y-77820000D01*
X112429348Y-77820000D01*
X112424884Y-77820888D01*
X109968229Y-75364234D01*
X109954137Y-75347063D01*
X109885616Y-75290829D01*
X109807441Y-75249043D01*
X109722615Y-75223311D01*
X109656505Y-75216800D01*
X109656494Y-75216800D01*
X109634400Y-75214624D01*
X109612306Y-75216800D01*
X106834596Y-75216800D01*
X107636396Y-74415000D01*
X111410466Y-74415000D01*
X111464419Y-74545255D01*
G37*
G04 #@! TD.AperFunction*
D26*
X108375480Y-59507320D02*
X108377606Y-59547199D01*
X108392551Y-59619176D01*
X108421251Y-59686856D01*
X108462602Y-59747635D01*
X108616201Y-59931634D01*
X108584365Y-59991194D01*
X108563026Y-60061541D01*
X108555820Y-60134700D01*
X108555820Y-62514680D01*
X108563026Y-62587839D01*
X108584365Y-62658186D01*
X108619019Y-62723019D01*
X108665655Y-62779845D01*
X108722481Y-62826481D01*
X108787314Y-62861135D01*
X108857661Y-62882474D01*
X108930820Y-62889680D01*
X113790001Y-62889680D01*
X113790001Y-64893040D01*
X111397160Y-64893040D01*
X111324001Y-64900246D01*
X111253654Y-64921585D01*
X111188821Y-64956239D01*
X111131995Y-65002875D01*
X111085359Y-65059701D01*
X111050705Y-65124534D01*
X111029366Y-65194881D01*
X111022160Y-65268040D01*
X111022160Y-70040700D01*
X111029366Y-70113859D01*
X111050705Y-70184206D01*
X111085359Y-70249039D01*
X111131995Y-70305865D01*
X111188821Y-70352501D01*
X111253654Y-70387155D01*
X111324001Y-70408494D01*
X111397160Y-70415700D01*
X111855583Y-70415700D01*
X111769108Y-70473481D01*
X111598481Y-70644108D01*
X111464419Y-70844745D01*
X111410466Y-70975000D01*
X109554894Y-70975000D01*
X109532799Y-70972824D01*
X109510705Y-70975000D01*
X109510695Y-70975000D01*
X109444585Y-70981511D01*
X109359759Y-71007243D01*
X109281583Y-71049029D01*
X109230232Y-71091172D01*
X109230228Y-71091176D01*
X109213063Y-71105263D01*
X109198976Y-71122428D01*
X103340000Y-76981405D01*
X103340000Y-76097195D01*
X103400981Y-76036214D01*
X103596400Y-76036214D01*
X103696250Y-76026380D01*
X103792263Y-75997254D01*
X103880749Y-75949958D01*
X103958307Y-75886307D01*
X104021958Y-75808749D01*
X104069254Y-75720263D01*
X104098380Y-75624250D01*
X104108214Y-75524400D01*
X104108214Y-75254400D01*
X104098380Y-75154550D01*
X104069254Y-75058537D01*
X104021958Y-74970051D01*
X103970033Y-74906781D01*
X104222047Y-74654768D01*
X104251619Y-74630499D01*
X104348466Y-74512490D01*
X104420430Y-74377854D01*
X104464746Y-74231766D01*
X104475960Y-74117905D01*
X104475960Y-74117903D01*
X104479709Y-74079840D01*
X104475960Y-74041777D01*
X104475960Y-67027097D01*
X104513897Y-67047374D01*
X104609910Y-67076500D01*
X104709760Y-67086334D01*
X105079760Y-67086334D01*
X105179610Y-67076500D01*
X105275623Y-67047374D01*
X105364109Y-67000078D01*
X105441667Y-66936427D01*
X105505318Y-66858869D01*
X105552614Y-66770383D01*
X105581740Y-66674370D01*
X105591574Y-66574520D01*
X105591574Y-66304520D01*
X105581740Y-66204670D01*
X105552614Y-66108657D01*
X105534097Y-66074014D01*
X105540000Y-66074014D01*
X105613513Y-66066774D01*
X105653019Y-66054790D01*
X105695361Y-66067634D01*
X105768520Y-66074840D01*
X106393360Y-66074840D01*
X106451291Y-66070338D01*
X106522458Y-66051918D01*
X106588665Y-66019967D01*
X106647366Y-65975714D01*
X106696305Y-65920859D01*
X106733603Y-65857510D01*
X106757825Y-65788103D01*
X106768041Y-65715303D01*
X106832241Y-64159682D01*
X106861574Y-64147532D01*
X106976224Y-64070926D01*
X107073726Y-63973424D01*
X107150332Y-63858774D01*
X107203099Y-63731382D01*
X107230000Y-63596144D01*
X107230000Y-63458256D01*
X107203099Y-63323018D01*
X107150332Y-63195626D01*
X107073726Y-63080976D01*
X106976224Y-62983474D01*
X106861574Y-62906868D01*
X106734182Y-62854101D01*
X106598944Y-62827200D01*
X106461056Y-62827200D01*
X106361960Y-62846912D01*
X106361960Y-62725129D01*
X106363229Y-62711931D01*
X106356063Y-59620588D01*
X106712335Y-59252400D01*
X108375480Y-59252400D01*
X108375480Y-59507320D01*
G04 #@! TA.AperFunction,Conductor*
D22*
G36*
X108375480Y-59507320D02*
G01*
X108377606Y-59547199D01*
X108392551Y-59619176D01*
X108421251Y-59686856D01*
X108462602Y-59747635D01*
X108616201Y-59931634D01*
X108584365Y-59991194D01*
X108563026Y-60061541D01*
X108555820Y-60134700D01*
X108555820Y-62514680D01*
X108563026Y-62587839D01*
X108584365Y-62658186D01*
X108619019Y-62723019D01*
X108665655Y-62779845D01*
X108722481Y-62826481D01*
X108787314Y-62861135D01*
X108857661Y-62882474D01*
X108930820Y-62889680D01*
X113790001Y-62889680D01*
X113790001Y-64893040D01*
X111397160Y-64893040D01*
X111324001Y-64900246D01*
X111253654Y-64921585D01*
X111188821Y-64956239D01*
X111131995Y-65002875D01*
X111085359Y-65059701D01*
X111050705Y-65124534D01*
X111029366Y-65194881D01*
X111022160Y-65268040D01*
X111022160Y-70040700D01*
X111029366Y-70113859D01*
X111050705Y-70184206D01*
X111085359Y-70249039D01*
X111131995Y-70305865D01*
X111188821Y-70352501D01*
X111253654Y-70387155D01*
X111324001Y-70408494D01*
X111397160Y-70415700D01*
X111855583Y-70415700D01*
X111769108Y-70473481D01*
X111598481Y-70644108D01*
X111464419Y-70844745D01*
X111410466Y-70975000D01*
X109554894Y-70975000D01*
X109532799Y-70972824D01*
X109510705Y-70975000D01*
X109510695Y-70975000D01*
X109444585Y-70981511D01*
X109359759Y-71007243D01*
X109281583Y-71049029D01*
X109230232Y-71091172D01*
X109230228Y-71091176D01*
X109213063Y-71105263D01*
X109198976Y-71122428D01*
X103340000Y-76981405D01*
X103340000Y-76097195D01*
X103400981Y-76036214D01*
X103596400Y-76036214D01*
X103696250Y-76026380D01*
X103792263Y-75997254D01*
X103880749Y-75949958D01*
X103958307Y-75886307D01*
X104021958Y-75808749D01*
X104069254Y-75720263D01*
X104098380Y-75624250D01*
X104108214Y-75524400D01*
X104108214Y-75254400D01*
X104098380Y-75154550D01*
X104069254Y-75058537D01*
X104021958Y-74970051D01*
X103970033Y-74906781D01*
X104222047Y-74654768D01*
X104251619Y-74630499D01*
X104348466Y-74512490D01*
X104420430Y-74377854D01*
X104464746Y-74231766D01*
X104475960Y-74117905D01*
X104475960Y-74117903D01*
X104479709Y-74079840D01*
X104475960Y-74041777D01*
X104475960Y-67027097D01*
X104513897Y-67047374D01*
X104609910Y-67076500D01*
X104709760Y-67086334D01*
X105079760Y-67086334D01*
X105179610Y-67076500D01*
X105275623Y-67047374D01*
X105364109Y-67000078D01*
X105441667Y-66936427D01*
X105505318Y-66858869D01*
X105552614Y-66770383D01*
X105581740Y-66674370D01*
X105591574Y-66574520D01*
X105591574Y-66304520D01*
X105581740Y-66204670D01*
X105552614Y-66108657D01*
X105534097Y-66074014D01*
X105540000Y-66074014D01*
X105613513Y-66066774D01*
X105653019Y-66054790D01*
X105695361Y-66067634D01*
X105768520Y-66074840D01*
X106393360Y-66074840D01*
X106451291Y-66070338D01*
X106522458Y-66051918D01*
X106588665Y-66019967D01*
X106647366Y-65975714D01*
X106696305Y-65920859D01*
X106733603Y-65857510D01*
X106757825Y-65788103D01*
X106768041Y-65715303D01*
X106832241Y-64159682D01*
X106861574Y-64147532D01*
X106976224Y-64070926D01*
X107073726Y-63973424D01*
X107150332Y-63858774D01*
X107203099Y-63731382D01*
X107230000Y-63596144D01*
X107230000Y-63458256D01*
X107203099Y-63323018D01*
X107150332Y-63195626D01*
X107073726Y-63080976D01*
X106976224Y-62983474D01*
X106861574Y-62906868D01*
X106734182Y-62854101D01*
X106598944Y-62827200D01*
X106461056Y-62827200D01*
X106361960Y-62846912D01*
X106361960Y-62725129D01*
X106363229Y-62711931D01*
X106356063Y-59620588D01*
X106712335Y-59252400D01*
X108375480Y-59252400D01*
X108375480Y-59507320D01*
G37*
G04 #@! TD.AperFunction*
D26*
X104456808Y-62266680D02*
X101257480Y-62266680D01*
X101184321Y-62273886D01*
X101113974Y-62295225D01*
X101049141Y-62329879D01*
X100992315Y-62376515D01*
X100945679Y-62433341D01*
X100911025Y-62498174D01*
X100889686Y-62568521D01*
X100882480Y-62641680D01*
X100882480Y-62839838D01*
X100818944Y-62827200D01*
X100681056Y-62827200D01*
X100545818Y-62854101D01*
X100418426Y-62906868D01*
X100303776Y-62983474D01*
X100206274Y-63080976D01*
X100129668Y-63195626D01*
X100076901Y-63323018D01*
X100050000Y-63458256D01*
X100050000Y-63596144D01*
X100076901Y-63731382D01*
X100129668Y-63858774D01*
X100206274Y-63973424D01*
X100303776Y-64070926D01*
X100418426Y-64147532D01*
X100496984Y-64180071D01*
X100496400Y-64186000D01*
X100496400Y-65714307D01*
X100274310Y-65957300D01*
X99474400Y-65957300D01*
X99401241Y-65964506D01*
X99330894Y-65985845D01*
X99266061Y-66020499D01*
X99209235Y-66067135D01*
X98904435Y-66371935D01*
X98857799Y-66428761D01*
X98823145Y-66493594D01*
X98801806Y-66563941D01*
X98794600Y-66637100D01*
X98794600Y-69964500D01*
X98801806Y-70037659D01*
X98823145Y-70108006D01*
X98857799Y-70172839D01*
X98904435Y-70229665D01*
X98961261Y-70276301D01*
X99026094Y-70310955D01*
X99096441Y-70332294D01*
X99169600Y-70339500D01*
X100617400Y-70339500D01*
X100690559Y-70332294D01*
X100760906Y-70310955D01*
X100825739Y-70276301D01*
X100882565Y-70229665D01*
X100929201Y-70172839D01*
X100963855Y-70108006D01*
X100985194Y-70037659D01*
X100992400Y-69964500D01*
X100992400Y-67814978D01*
X101238067Y-67555070D01*
X101275680Y-67558774D01*
X101620401Y-67558774D01*
X101620400Y-73728101D01*
X101564400Y-73722586D01*
X101513680Y-73722586D01*
X101445882Y-73709100D01*
X101312918Y-73709100D01*
X101245120Y-73722586D01*
X101194400Y-73722586D01*
X101094550Y-73732420D01*
X100998537Y-73761546D01*
X100910051Y-73808842D01*
X100832493Y-73872493D01*
X100768842Y-73950051D01*
X100721546Y-74038537D01*
X100692420Y-74134550D01*
X100682586Y-74234400D01*
X100682586Y-74504400D01*
X100692420Y-74604250D01*
X100721546Y-74700263D01*
X100768842Y-74788749D01*
X100832493Y-74866307D01*
X100848447Y-74879400D01*
X100832493Y-74892493D01*
X100768842Y-74970051D01*
X100721546Y-75058537D01*
X100692420Y-75154550D01*
X100682586Y-75254400D01*
X100682586Y-75524400D01*
X100682913Y-75527717D01*
X99797400Y-74642205D01*
X99797400Y-73286054D01*
X99799576Y-73263960D01*
X99797400Y-73241866D01*
X99797400Y-73241855D01*
X99790889Y-73175745D01*
X99765157Y-73090919D01*
X99723371Y-73012743D01*
X99681228Y-72961392D01*
X99681224Y-72961388D01*
X99667137Y-72944223D01*
X99649972Y-72930136D01*
X98965436Y-72245600D01*
X99856386Y-72245600D01*
X99856386Y-72585600D01*
X99866316Y-72686425D01*
X99895726Y-72783376D01*
X99943485Y-72872726D01*
X100007757Y-72951043D01*
X100086074Y-73015315D01*
X100175424Y-73063074D01*
X100272375Y-73092484D01*
X100373200Y-73102414D01*
X100653200Y-73102414D01*
X100754025Y-73092484D01*
X100850976Y-73063074D01*
X100940326Y-73015315D01*
X101018643Y-72951043D01*
X101082915Y-72872726D01*
X101130674Y-72783376D01*
X101160084Y-72686425D01*
X101170014Y-72585600D01*
X101170014Y-72245600D01*
X101160084Y-72144775D01*
X101130674Y-72047824D01*
X101115756Y-72019914D01*
X101205400Y-72019914D01*
X101278913Y-72012674D01*
X101349600Y-71991231D01*
X101414747Y-71956409D01*
X101471848Y-71909548D01*
X101518709Y-71852447D01*
X101553531Y-71787300D01*
X101574974Y-71716613D01*
X101582214Y-71643100D01*
X101582214Y-70743100D01*
X101574974Y-70669587D01*
X101553531Y-70598900D01*
X101518709Y-70533753D01*
X101471848Y-70476652D01*
X101414747Y-70429791D01*
X101349600Y-70394969D01*
X101278913Y-70373526D01*
X101205400Y-70366286D01*
X100405400Y-70366286D01*
X100331887Y-70373526D01*
X100261200Y-70394969D01*
X100196053Y-70429791D01*
X100138952Y-70476652D01*
X100092091Y-70533753D01*
X100057269Y-70598900D01*
X100035826Y-70669587D01*
X100028586Y-70743100D01*
X100028586Y-71643100D01*
X100035826Y-71716613D01*
X100057269Y-71787300D01*
X100063201Y-71798397D01*
X100063201Y-71834656D01*
X100007757Y-71880157D01*
X99943485Y-71958474D01*
X99895726Y-72047824D01*
X99866316Y-72144775D01*
X99856386Y-72245600D01*
X98965436Y-72245600D01*
X98494380Y-71774545D01*
X98494380Y-60690191D01*
X98496556Y-60668099D01*
X98494380Y-60646007D01*
X98494380Y-60645995D01*
X98487869Y-60579885D01*
X98462137Y-60495059D01*
X98420351Y-60416883D01*
X98378208Y-60365532D01*
X98378204Y-60365528D01*
X98364117Y-60348363D01*
X98346952Y-60334276D01*
X96435109Y-58422434D01*
X96421017Y-58405263D01*
X96352496Y-58349029D01*
X96274321Y-58307243D01*
X96189495Y-58281511D01*
X96123385Y-58275000D01*
X96123374Y-58275000D01*
X96101280Y-58272824D01*
X96079186Y-58275000D01*
X95889534Y-58275000D01*
X95835581Y-58144745D01*
X95701519Y-57944108D01*
X95530892Y-57773481D01*
X95330255Y-57639419D01*
X95295444Y-57625000D01*
X104449308Y-57625000D01*
X104456808Y-62266680D01*
G04 #@! TA.AperFunction,Conductor*
D22*
G36*
X104456808Y-62266680D02*
G01*
X101257480Y-62266680D01*
X101184321Y-62273886D01*
X101113974Y-62295225D01*
X101049141Y-62329879D01*
X100992315Y-62376515D01*
X100945679Y-62433341D01*
X100911025Y-62498174D01*
X100889686Y-62568521D01*
X100882480Y-62641680D01*
X100882480Y-62839838D01*
X100818944Y-62827200D01*
X100681056Y-62827200D01*
X100545818Y-62854101D01*
X100418426Y-62906868D01*
X100303776Y-62983474D01*
X100206274Y-63080976D01*
X100129668Y-63195626D01*
X100076901Y-63323018D01*
X100050000Y-63458256D01*
X100050000Y-63596144D01*
X100076901Y-63731382D01*
X100129668Y-63858774D01*
X100206274Y-63973424D01*
X100303776Y-64070926D01*
X100418426Y-64147532D01*
X100496984Y-64180071D01*
X100496400Y-64186000D01*
X100496400Y-65714307D01*
X100274310Y-65957300D01*
X99474400Y-65957300D01*
X99401241Y-65964506D01*
X99330894Y-65985845D01*
X99266061Y-66020499D01*
X99209235Y-66067135D01*
X98904435Y-66371935D01*
X98857799Y-66428761D01*
X98823145Y-66493594D01*
X98801806Y-66563941D01*
X98794600Y-66637100D01*
X98794600Y-69964500D01*
X98801806Y-70037659D01*
X98823145Y-70108006D01*
X98857799Y-70172839D01*
X98904435Y-70229665D01*
X98961261Y-70276301D01*
X99026094Y-70310955D01*
X99096441Y-70332294D01*
X99169600Y-70339500D01*
X100617400Y-70339500D01*
X100690559Y-70332294D01*
X100760906Y-70310955D01*
X100825739Y-70276301D01*
X100882565Y-70229665D01*
X100929201Y-70172839D01*
X100963855Y-70108006D01*
X100985194Y-70037659D01*
X100992400Y-69964500D01*
X100992400Y-67814978D01*
X101238067Y-67555070D01*
X101275680Y-67558774D01*
X101620401Y-67558774D01*
X101620400Y-73728101D01*
X101564400Y-73722586D01*
X101513680Y-73722586D01*
X101445882Y-73709100D01*
X101312918Y-73709100D01*
X101245120Y-73722586D01*
X101194400Y-73722586D01*
X101094550Y-73732420D01*
X100998537Y-73761546D01*
X100910051Y-73808842D01*
X100832493Y-73872493D01*
X100768842Y-73950051D01*
X100721546Y-74038537D01*
X100692420Y-74134550D01*
X100682586Y-74234400D01*
X100682586Y-74504400D01*
X100692420Y-74604250D01*
X100721546Y-74700263D01*
X100768842Y-74788749D01*
X100832493Y-74866307D01*
X100848447Y-74879400D01*
X100832493Y-74892493D01*
X100768842Y-74970051D01*
X100721546Y-75058537D01*
X100692420Y-75154550D01*
X100682586Y-75254400D01*
X100682586Y-75524400D01*
X100682913Y-75527717D01*
X99797400Y-74642205D01*
X99797400Y-73286054D01*
X99799576Y-73263960D01*
X99797400Y-73241866D01*
X99797400Y-73241855D01*
X99790889Y-73175745D01*
X99765157Y-73090919D01*
X99723371Y-73012743D01*
X99681228Y-72961392D01*
X99681224Y-72961388D01*
X99667137Y-72944223D01*
X99649972Y-72930136D01*
X98965436Y-72245600D01*
X99856386Y-72245600D01*
X99856386Y-72585600D01*
X99866316Y-72686425D01*
X99895726Y-72783376D01*
X99943485Y-72872726D01*
X100007757Y-72951043D01*
X100086074Y-73015315D01*
X100175424Y-73063074D01*
X100272375Y-73092484D01*
X100373200Y-73102414D01*
X100653200Y-73102414D01*
X100754025Y-73092484D01*
X100850976Y-73063074D01*
X100940326Y-73015315D01*
X101018643Y-72951043D01*
X101082915Y-72872726D01*
X101130674Y-72783376D01*
X101160084Y-72686425D01*
X101170014Y-72585600D01*
X101170014Y-72245600D01*
X101160084Y-72144775D01*
X101130674Y-72047824D01*
X101115756Y-72019914D01*
X101205400Y-72019914D01*
X101278913Y-72012674D01*
X101349600Y-71991231D01*
X101414747Y-71956409D01*
X101471848Y-71909548D01*
X101518709Y-71852447D01*
X101553531Y-71787300D01*
X101574974Y-71716613D01*
X101582214Y-71643100D01*
X101582214Y-70743100D01*
X101574974Y-70669587D01*
X101553531Y-70598900D01*
X101518709Y-70533753D01*
X101471848Y-70476652D01*
X101414747Y-70429791D01*
X101349600Y-70394969D01*
X101278913Y-70373526D01*
X101205400Y-70366286D01*
X100405400Y-70366286D01*
X100331887Y-70373526D01*
X100261200Y-70394969D01*
X100196053Y-70429791D01*
X100138952Y-70476652D01*
X100092091Y-70533753D01*
X100057269Y-70598900D01*
X100035826Y-70669587D01*
X100028586Y-70743100D01*
X100028586Y-71643100D01*
X100035826Y-71716613D01*
X100057269Y-71787300D01*
X100063201Y-71798397D01*
X100063201Y-71834656D01*
X100007757Y-71880157D01*
X99943485Y-71958474D01*
X99895726Y-72047824D01*
X99866316Y-72144775D01*
X99856386Y-72245600D01*
X98965436Y-72245600D01*
X98494380Y-71774545D01*
X98494380Y-60690191D01*
X98496556Y-60668099D01*
X98494380Y-60646007D01*
X98494380Y-60645995D01*
X98487869Y-60579885D01*
X98462137Y-60495059D01*
X98420351Y-60416883D01*
X98378208Y-60365532D01*
X98378204Y-60365528D01*
X98364117Y-60348363D01*
X98346952Y-60334276D01*
X96435109Y-58422434D01*
X96421017Y-58405263D01*
X96352496Y-58349029D01*
X96274321Y-58307243D01*
X96189495Y-58281511D01*
X96123385Y-58275000D01*
X96123374Y-58275000D01*
X96101280Y-58272824D01*
X96079186Y-58275000D01*
X95889534Y-58275000D01*
X95835581Y-58144745D01*
X95701519Y-57944108D01*
X95530892Y-57773481D01*
X95330255Y-57639419D01*
X95295444Y-57625000D01*
X104449308Y-57625000D01*
X104456808Y-62266680D01*
G37*
G04 #@! TD.AperFunction*
D26*
X111464419Y-72005255D02*
X111598481Y-72205892D01*
X111769108Y-72376519D01*
X111969745Y-72510581D01*
X112192681Y-72602924D01*
X112429348Y-72650000D01*
X112481581Y-72650000D01*
X112500000Y-72651814D01*
X113790001Y-72651814D01*
X113790001Y-72738186D01*
X112500000Y-72738186D01*
X112481581Y-72740000D01*
X112429348Y-72740000D01*
X112192681Y-72787076D01*
X111969745Y-72879419D01*
X111769108Y-73013481D01*
X111598481Y-73184108D01*
X111464419Y-73384745D01*
X111410466Y-73515000D01*
X108079196Y-73515000D01*
X109719196Y-71875000D01*
X111410466Y-71875000D01*
X111464419Y-72005255D01*
G04 #@! TA.AperFunction,Conductor*
D22*
G36*
X111464419Y-72005255D02*
G01*
X111598481Y-72205892D01*
X111769108Y-72376519D01*
X111969745Y-72510581D01*
X112192681Y-72602924D01*
X112429348Y-72650000D01*
X112481581Y-72650000D01*
X112500000Y-72651814D01*
X113790001Y-72651814D01*
X113790001Y-72738186D01*
X112500000Y-72738186D01*
X112481581Y-72740000D01*
X112429348Y-72740000D01*
X112192681Y-72787076D01*
X111969745Y-72879419D01*
X111769108Y-73013481D01*
X111598481Y-73184108D01*
X111464419Y-73384745D01*
X111410466Y-73515000D01*
X108079196Y-73515000D01*
X109719196Y-71875000D01*
X111410466Y-71875000D01*
X111464419Y-72005255D01*
G37*
G04 #@! TD.AperFunction*
D26*
X97264932Y-73515000D02*
X95889534Y-73515000D01*
X95835581Y-73384745D01*
X95701519Y-73184108D01*
X95530892Y-73013481D01*
X95330255Y-72879419D01*
X95107319Y-72787076D01*
X94870652Y-72740000D01*
X94818419Y-72740000D01*
X94800000Y-72738186D01*
X93500000Y-72738186D01*
X93500000Y-72651814D01*
X94800000Y-72651814D01*
X94818419Y-72650000D01*
X94870652Y-72650000D01*
X95107319Y-72602924D01*
X95330255Y-72510581D01*
X95530892Y-72376519D01*
X95701519Y-72205892D01*
X95803380Y-72053447D01*
X97264932Y-73515000D01*
G04 #@! TA.AperFunction,Conductor*
D22*
G36*
X97264932Y-73515000D02*
G01*
X95889534Y-73515000D01*
X95835581Y-73384745D01*
X95701519Y-73184108D01*
X95530892Y-73013481D01*
X95330255Y-72879419D01*
X95107319Y-72787076D01*
X94870652Y-72740000D01*
X94818419Y-72740000D01*
X94800000Y-72738186D01*
X93500000Y-72738186D01*
X93500000Y-72651814D01*
X94800000Y-72651814D01*
X94818419Y-72650000D01*
X94870652Y-72650000D01*
X95107319Y-72602924D01*
X95330255Y-72510581D01*
X95530892Y-72376519D01*
X95701519Y-72205892D01*
X95803380Y-72053447D01*
X97264932Y-73515000D01*
G37*
G04 #@! TD.AperFunction*
D26*
X96994361Y-69225757D02*
X96994361Y-70492965D01*
X95873970Y-69372575D01*
X95927924Y-69242319D01*
X95975000Y-69005652D01*
X95975000Y-68764348D01*
X95927924Y-68527681D01*
X95835581Y-68304745D01*
X95701519Y-68104108D01*
X95530892Y-67933481D01*
X95330255Y-67799419D01*
X95107319Y-67707076D01*
X94870652Y-67660000D01*
X94818419Y-67660000D01*
X94800000Y-67658186D01*
X93500000Y-67658186D01*
X93500000Y-67561814D01*
X94588194Y-67561814D01*
X94629348Y-67570000D01*
X94870652Y-67570000D01*
X95107319Y-67522924D01*
X95237575Y-67468970D01*
X96994361Y-69225757D01*
G04 #@! TA.AperFunction,Conductor*
D22*
G36*
X96994361Y-69225757D02*
G01*
X96994361Y-70492965D01*
X95873970Y-69372575D01*
X95927924Y-69242319D01*
X95975000Y-69005652D01*
X95975000Y-68764348D01*
X95927924Y-68527681D01*
X95835581Y-68304745D01*
X95701519Y-68104108D01*
X95530892Y-67933481D01*
X95330255Y-67799419D01*
X95107319Y-67707076D01*
X94870652Y-67660000D01*
X94818419Y-67660000D01*
X94800000Y-67658186D01*
X93500000Y-67658186D01*
X93500000Y-67561814D01*
X94588194Y-67561814D01*
X94629348Y-67570000D01*
X94870652Y-67570000D01*
X95107319Y-67522924D01*
X95237575Y-67468970D01*
X96994361Y-69225757D01*
G37*
G04 #@! TD.AperFunction*
D26*
X97294371Y-62771907D02*
X97294370Y-68252975D01*
X95873970Y-66832575D01*
X95927924Y-66702319D01*
X95975000Y-66465652D01*
X95975000Y-66224348D01*
X95927924Y-65987681D01*
X95835581Y-65764745D01*
X95701519Y-65564108D01*
X95530892Y-65393481D01*
X95330255Y-65259419D01*
X95107319Y-65167076D01*
X94922758Y-65130365D01*
X94873513Y-65115426D01*
X94800000Y-65108186D01*
X93500000Y-65108186D01*
X93500000Y-62481814D01*
X94588194Y-62481814D01*
X94629348Y-62490000D01*
X94870652Y-62490000D01*
X95107319Y-62442924D01*
X95330255Y-62350581D01*
X95530892Y-62216519D01*
X95701519Y-62045892D01*
X95835581Y-61845255D01*
X95889534Y-61715000D01*
X96237465Y-61715000D01*
X97294371Y-62771907D01*
G04 #@! TA.AperFunction,Conductor*
D22*
G36*
X97294371Y-62771907D02*
G01*
X97294370Y-68252975D01*
X95873970Y-66832575D01*
X95927924Y-66702319D01*
X95975000Y-66465652D01*
X95975000Y-66224348D01*
X95927924Y-65987681D01*
X95835581Y-65764745D01*
X95701519Y-65564108D01*
X95530892Y-65393481D01*
X95330255Y-65259419D01*
X95107319Y-65167076D01*
X94922758Y-65130365D01*
X94873513Y-65115426D01*
X94800000Y-65108186D01*
X93500000Y-65108186D01*
X93500000Y-62481814D01*
X94588194Y-62481814D01*
X94629348Y-62490000D01*
X94870652Y-62490000D01*
X95107319Y-62442924D01*
X95330255Y-62350581D01*
X95530892Y-62216519D01*
X95701519Y-62045892D01*
X95835581Y-61845255D01*
X95889534Y-61715000D01*
X96237465Y-61715000D01*
X97294371Y-62771907D01*
G37*
G04 #@! TD.AperFunction*
D26*
X97594381Y-60854497D02*
X97594381Y-61799125D01*
X96757689Y-60962434D01*
X96743597Y-60945263D01*
X96675076Y-60889029D01*
X96596901Y-60847243D01*
X96512075Y-60821511D01*
X96445965Y-60815000D01*
X96445954Y-60815000D01*
X96423860Y-60812824D01*
X96401766Y-60815000D01*
X95889534Y-60815000D01*
X95835581Y-60684745D01*
X95701519Y-60484108D01*
X95530892Y-60313481D01*
X95330255Y-60179419D01*
X95107319Y-60087076D01*
X94922758Y-60050365D01*
X94873513Y-60035426D01*
X94800000Y-60028186D01*
X93500000Y-60028186D01*
X93500000Y-59951814D01*
X94800000Y-59951814D01*
X94818419Y-59950000D01*
X94870652Y-59950000D01*
X95107319Y-59902924D01*
X95330255Y-59810581D01*
X95530892Y-59676519D01*
X95701519Y-59505892D01*
X95835581Y-59305255D01*
X95889534Y-59175000D01*
X95914885Y-59175000D01*
X97594381Y-60854497D01*
G04 #@! TA.AperFunction,Conductor*
D22*
G36*
X97594381Y-60854497D02*
G01*
X97594381Y-61799125D01*
X96757689Y-60962434D01*
X96743597Y-60945263D01*
X96675076Y-60889029D01*
X96596901Y-60847243D01*
X96512075Y-60821511D01*
X96445965Y-60815000D01*
X96445954Y-60815000D01*
X96423860Y-60812824D01*
X96401766Y-60815000D01*
X95889534Y-60815000D01*
X95835581Y-60684745D01*
X95701519Y-60484108D01*
X95530892Y-60313481D01*
X95330255Y-60179419D01*
X95107319Y-60087076D01*
X94922758Y-60050365D01*
X94873513Y-60035426D01*
X94800000Y-60028186D01*
X93500000Y-60028186D01*
X93500000Y-59951814D01*
X94800000Y-59951814D01*
X94818419Y-59950000D01*
X94870652Y-59950000D01*
X95107319Y-59902924D01*
X95330255Y-59810581D01*
X95530892Y-59676519D01*
X95701519Y-59505892D01*
X95835581Y-59305255D01*
X95889534Y-59175000D01*
X95914885Y-59175000D01*
X97594381Y-60854497D01*
G37*
G04 #@! TD.AperFunction*
D27*
X101366700Y-66096716D02*
X101192043Y-66271374D01*
X101175438Y-66273009D01*
X101079048Y-66302249D01*
X100990215Y-66349731D01*
X100912352Y-66413632D01*
X100848451Y-66491495D01*
X100800969Y-66580328D01*
X100771729Y-66676718D01*
X100761856Y-66776960D01*
X100761856Y-67046960D01*
X100771729Y-67147202D01*
X100800969Y-67243592D01*
X100815689Y-67271131D01*
X100525104Y-67578562D01*
X100509858Y-67598244D01*
X100498745Y-67620522D01*
X100492192Y-67644541D01*
X100490400Y-67665800D01*
X100490400Y-69837500D01*
X99296600Y-69837500D01*
X99296600Y-67682697D01*
X99300355Y-67670318D01*
X99305853Y-67614491D01*
X99322744Y-67573714D01*
X99348760Y-67442919D01*
X99348760Y-67309561D01*
X99322744Y-67178766D01*
X99296765Y-67116048D01*
X99296600Y-67115504D01*
X99296600Y-66689706D01*
X99527006Y-66459300D01*
X100439600Y-66459300D01*
X100464376Y-66456860D01*
X100488201Y-66449633D01*
X100510157Y-66437897D01*
X100533344Y-66417980D01*
X100883960Y-66034365D01*
X100925463Y-66012181D01*
X100982869Y-65965069D01*
X101029981Y-65907663D01*
X101064988Y-65842170D01*
X101069638Y-65826840D01*
X101366700Y-65826840D01*
X101366700Y-66096716D01*
G04 #@! TA.AperFunction,Conductor*
D22*
G36*
X101366700Y-66096716D02*
G01*
X101192043Y-66271374D01*
X101175438Y-66273009D01*
X101079048Y-66302249D01*
X100990215Y-66349731D01*
X100912352Y-66413632D01*
X100848451Y-66491495D01*
X100800969Y-66580328D01*
X100771729Y-66676718D01*
X100761856Y-66776960D01*
X100761856Y-67046960D01*
X100771729Y-67147202D01*
X100800969Y-67243592D01*
X100815689Y-67271131D01*
X100525104Y-67578562D01*
X100509858Y-67598244D01*
X100498745Y-67620522D01*
X100492192Y-67644541D01*
X100490400Y-67665800D01*
X100490400Y-69837500D01*
X99296600Y-69837500D01*
X99296600Y-67682697D01*
X99300355Y-67670318D01*
X99305853Y-67614491D01*
X99322744Y-67573714D01*
X99348760Y-67442919D01*
X99348760Y-67309561D01*
X99322744Y-67178766D01*
X99296765Y-67116048D01*
X99296600Y-67115504D01*
X99296600Y-66689706D01*
X99527006Y-66459300D01*
X100439600Y-66459300D01*
X100464376Y-66456860D01*
X100488201Y-66449633D01*
X100510157Y-66437897D01*
X100533344Y-66417980D01*
X100883960Y-66034365D01*
X100925463Y-66012181D01*
X100982869Y-65965069D01*
X101029981Y-65907663D01*
X101064988Y-65842170D01*
X101069638Y-65826840D01*
X101366700Y-65826840D01*
X101366700Y-66096716D01*
G37*
G04 #@! TD.AperFunction*
D27*
X99827500Y-84628384D02*
X100461176Y-84628384D01*
X100461176Y-84674560D01*
X100468455Y-84748465D01*
X100490012Y-84819530D01*
X100525019Y-84885023D01*
X100572131Y-84942429D01*
X100629537Y-84989541D01*
X100695030Y-85024548D01*
X100766095Y-85046105D01*
X100840000Y-85053384D01*
X100886176Y-85053384D01*
X100886176Y-85687060D01*
X100890169Y-85727606D01*
X100790975Y-85826800D01*
X99779200Y-85826800D01*
X99779200Y-84623627D01*
X99827500Y-84628384D01*
G04 #@! TA.AperFunction,Conductor*
D22*
G36*
X99827500Y-84628384D02*
G01*
X100461176Y-84628384D01*
X100461176Y-84674560D01*
X100468455Y-84748465D01*
X100490012Y-84819530D01*
X100525019Y-84885023D01*
X100572131Y-84942429D01*
X100629537Y-84989541D01*
X100695030Y-85024548D01*
X100766095Y-85046105D01*
X100840000Y-85053384D01*
X100886176Y-85053384D01*
X100886176Y-85687060D01*
X100890169Y-85727606D01*
X100790975Y-85826800D01*
X99779200Y-85826800D01*
X99779200Y-84623627D01*
X99827500Y-84628384D01*
G37*
G04 #@! TD.AperFunction*
D27*
X107577000Y-79140865D02*
X107538598Y-79129216D01*
X107452500Y-79120736D01*
X106818824Y-79120736D01*
X106818824Y-79074560D01*
X106817368Y-79059779D01*
X106819447Y-79057246D01*
X106860230Y-78980947D01*
X106885344Y-78898158D01*
X106893824Y-78812060D01*
X106893824Y-78062060D01*
X106890568Y-78029000D01*
X107577000Y-78029000D01*
X107577000Y-79140865D01*
G04 #@! TA.AperFunction,Conductor*
D22*
G36*
X107577000Y-79140865D02*
G01*
X107538598Y-79129216D01*
X107452500Y-79120736D01*
X106818824Y-79120736D01*
X106818824Y-79074560D01*
X106817368Y-79059779D01*
X106819447Y-79057246D01*
X106860230Y-78980947D01*
X106885344Y-78898158D01*
X106893824Y-78812060D01*
X106893824Y-78062060D01*
X106890568Y-78029000D01*
X107577000Y-78029000D01*
X107577000Y-79140865D01*
G37*
G04 #@! TD.AperFunction*
D27*
X113708663Y-57630758D02*
X113726609Y-57636176D01*
X113743166Y-57644979D01*
X113757695Y-57656829D01*
X113769648Y-57671279D01*
X113778566Y-57687772D01*
X113784110Y-57705680D01*
X113788001Y-57742702D01*
X113788001Y-59672420D01*
X109053738Y-59672420D01*
X108877480Y-59461278D01*
X108877480Y-59037420D01*
X108875040Y-59012644D01*
X108867813Y-58988819D01*
X108853824Y-58963603D01*
X108739524Y-58803583D01*
X108723137Y-58784840D01*
X108703409Y-58769654D01*
X108681097Y-58758608D01*
X108657059Y-58752128D01*
X108636180Y-58750400D01*
X108255575Y-58750400D01*
X108131922Y-58712890D01*
X107960000Y-58695957D01*
X107788079Y-58712890D01*
X107664426Y-58750400D01*
X106553380Y-58750400D01*
X106528604Y-58752840D01*
X106504779Y-58760067D01*
X106482823Y-58771803D01*
X106462113Y-58789086D01*
X105889444Y-59380908D01*
X105873968Y-59400411D01*
X105862595Y-59422557D01*
X105855761Y-59446497D01*
X105853711Y-59469516D01*
X105861200Y-62700208D01*
X105859960Y-62712800D01*
X105859960Y-63310404D01*
X105854977Y-63322434D01*
X105828000Y-63458059D01*
X105828000Y-63596341D01*
X105854977Y-63731966D01*
X105860611Y-63745567D01*
X105862400Y-63763736D01*
X105869627Y-63787561D01*
X105881363Y-63809517D01*
X105892946Y-63823632D01*
X105907895Y-63859722D01*
X105984721Y-63974699D01*
X106082501Y-64072479D01*
X106197478Y-64149305D01*
X106200369Y-64150502D01*
X106193455Y-64173295D01*
X106186176Y-64247200D01*
X106186176Y-65572840D01*
X105918824Y-65572840D01*
X105918824Y-64247200D01*
X105911545Y-64173295D01*
X105900451Y-64136723D01*
X105900599Y-64089881D01*
X105898237Y-64065097D01*
X105891085Y-64041250D01*
X105879419Y-64019256D01*
X105863685Y-63999961D01*
X105844490Y-63984106D01*
X105822571Y-63972301D01*
X105798769Y-63964999D01*
X105789244Y-63964046D01*
X105750463Y-63932219D01*
X105684970Y-63897212D01*
X105613905Y-63875655D01*
X105540000Y-63868376D01*
X105240000Y-63868376D01*
X105166095Y-63875655D01*
X105140000Y-63883571D01*
X105113905Y-63875655D01*
X105040000Y-63868376D01*
X104740000Y-63868376D01*
X104666095Y-63875655D01*
X104640000Y-63883571D01*
X104613905Y-63875655D01*
X104540000Y-63868376D01*
X104240000Y-63868376D01*
X104166095Y-63875655D01*
X104140000Y-63883571D01*
X104113905Y-63875655D01*
X104040000Y-63868376D01*
X103740000Y-63868376D01*
X103666095Y-63875655D01*
X103640000Y-63883571D01*
X103613905Y-63875655D01*
X103540000Y-63868376D01*
X103240000Y-63868376D01*
X103166095Y-63875655D01*
X103140000Y-63883571D01*
X103113905Y-63875655D01*
X103040000Y-63868376D01*
X102740000Y-63868376D01*
X102666095Y-63875655D01*
X102640000Y-63883571D01*
X102613905Y-63875655D01*
X102540000Y-63868376D01*
X102240000Y-63868376D01*
X102166095Y-63875655D01*
X102140000Y-63883571D01*
X102113905Y-63875655D01*
X102040000Y-63868376D01*
X101740000Y-63868376D01*
X101666095Y-63875655D01*
X101595030Y-63897212D01*
X101529537Y-63932219D01*
X101492664Y-63962480D01*
X101491160Y-63962480D01*
X101466384Y-63964920D01*
X101442559Y-63972147D01*
X101420603Y-63983883D01*
X101401357Y-63999677D01*
X101385563Y-64018923D01*
X101373827Y-64040879D01*
X101366600Y-64064704D01*
X101364160Y-64089480D01*
X101364160Y-64216903D01*
X101361176Y-64247200D01*
X101361176Y-65572840D01*
X101093824Y-65572840D01*
X101093824Y-64247200D01*
X101086545Y-64173295D01*
X101079631Y-64150502D01*
X101082522Y-64149305D01*
X101197499Y-64072479D01*
X101295279Y-63974699D01*
X101372105Y-63859722D01*
X101425023Y-63731966D01*
X101452000Y-63596341D01*
X101452000Y-63458059D01*
X101425023Y-63322434D01*
X101384480Y-63224554D01*
X101384480Y-62768680D01*
X104832415Y-62768680D01*
X104857191Y-62766240D01*
X104881016Y-62759013D01*
X104902972Y-62747277D01*
X104922218Y-62731483D01*
X104938012Y-62712237D01*
X104949748Y-62690281D01*
X104956975Y-62666456D01*
X104959415Y-62641475D01*
X104951352Y-57651380D01*
X104976816Y-57627000D01*
X113670335Y-57627000D01*
X113708663Y-57630758D01*
G04 #@! TA.AperFunction,Conductor*
D22*
G36*
X113708663Y-57630758D02*
G01*
X113726609Y-57636176D01*
X113743166Y-57644979D01*
X113757695Y-57656829D01*
X113769648Y-57671279D01*
X113778566Y-57687772D01*
X113784110Y-57705680D01*
X113788001Y-57742702D01*
X113788001Y-59672420D01*
X109053738Y-59672420D01*
X108877480Y-59461278D01*
X108877480Y-59037420D01*
X108875040Y-59012644D01*
X108867813Y-58988819D01*
X108853824Y-58963603D01*
X108739524Y-58803583D01*
X108723137Y-58784840D01*
X108703409Y-58769654D01*
X108681097Y-58758608D01*
X108657059Y-58752128D01*
X108636180Y-58750400D01*
X108255575Y-58750400D01*
X108131922Y-58712890D01*
X107960000Y-58695957D01*
X107788079Y-58712890D01*
X107664426Y-58750400D01*
X106553380Y-58750400D01*
X106528604Y-58752840D01*
X106504779Y-58760067D01*
X106482823Y-58771803D01*
X106462113Y-58789086D01*
X105889444Y-59380908D01*
X105873968Y-59400411D01*
X105862595Y-59422557D01*
X105855761Y-59446497D01*
X105853711Y-59469516D01*
X105861200Y-62700208D01*
X105859960Y-62712800D01*
X105859960Y-63310404D01*
X105854977Y-63322434D01*
X105828000Y-63458059D01*
X105828000Y-63596341D01*
X105854977Y-63731966D01*
X105860611Y-63745567D01*
X105862400Y-63763736D01*
X105869627Y-63787561D01*
X105881363Y-63809517D01*
X105892946Y-63823632D01*
X105907895Y-63859722D01*
X105984721Y-63974699D01*
X106082501Y-64072479D01*
X106197478Y-64149305D01*
X106200369Y-64150502D01*
X106193455Y-64173295D01*
X106186176Y-64247200D01*
X106186176Y-65572840D01*
X105918824Y-65572840D01*
X105918824Y-64247200D01*
X105911545Y-64173295D01*
X105900451Y-64136723D01*
X105900599Y-64089881D01*
X105898237Y-64065097D01*
X105891085Y-64041250D01*
X105879419Y-64019256D01*
X105863685Y-63999961D01*
X105844490Y-63984106D01*
X105822571Y-63972301D01*
X105798769Y-63964999D01*
X105789244Y-63964046D01*
X105750463Y-63932219D01*
X105684970Y-63897212D01*
X105613905Y-63875655D01*
X105540000Y-63868376D01*
X105240000Y-63868376D01*
X105166095Y-63875655D01*
X105140000Y-63883571D01*
X105113905Y-63875655D01*
X105040000Y-63868376D01*
X104740000Y-63868376D01*
X104666095Y-63875655D01*
X104640000Y-63883571D01*
X104613905Y-63875655D01*
X104540000Y-63868376D01*
X104240000Y-63868376D01*
X104166095Y-63875655D01*
X104140000Y-63883571D01*
X104113905Y-63875655D01*
X104040000Y-63868376D01*
X103740000Y-63868376D01*
X103666095Y-63875655D01*
X103640000Y-63883571D01*
X103613905Y-63875655D01*
X103540000Y-63868376D01*
X103240000Y-63868376D01*
X103166095Y-63875655D01*
X103140000Y-63883571D01*
X103113905Y-63875655D01*
X103040000Y-63868376D01*
X102740000Y-63868376D01*
X102666095Y-63875655D01*
X102640000Y-63883571D01*
X102613905Y-63875655D01*
X102540000Y-63868376D01*
X102240000Y-63868376D01*
X102166095Y-63875655D01*
X102140000Y-63883571D01*
X102113905Y-63875655D01*
X102040000Y-63868376D01*
X101740000Y-63868376D01*
X101666095Y-63875655D01*
X101595030Y-63897212D01*
X101529537Y-63932219D01*
X101492664Y-63962480D01*
X101491160Y-63962480D01*
X101466384Y-63964920D01*
X101442559Y-63972147D01*
X101420603Y-63983883D01*
X101401357Y-63999677D01*
X101385563Y-64018923D01*
X101373827Y-64040879D01*
X101366600Y-64064704D01*
X101364160Y-64089480D01*
X101364160Y-64216903D01*
X101361176Y-64247200D01*
X101361176Y-65572840D01*
X101093824Y-65572840D01*
X101093824Y-64247200D01*
X101086545Y-64173295D01*
X101079631Y-64150502D01*
X101082522Y-64149305D01*
X101197499Y-64072479D01*
X101295279Y-63974699D01*
X101372105Y-63859722D01*
X101425023Y-63731966D01*
X101452000Y-63596341D01*
X101452000Y-63458059D01*
X101425023Y-63322434D01*
X101384480Y-63224554D01*
X101384480Y-62768680D01*
X104832415Y-62768680D01*
X104857191Y-62766240D01*
X104881016Y-62759013D01*
X104902972Y-62747277D01*
X104922218Y-62731483D01*
X104938012Y-62712237D01*
X104949748Y-62690281D01*
X104956975Y-62666456D01*
X104959415Y-62641475D01*
X104951352Y-57651380D01*
X104976816Y-57627000D01*
X113670335Y-57627000D01*
X113708663Y-57630758D01*
G37*
G04 #@! TD.AperFunction*
D27*
X113788001Y-62387680D02*
X109057820Y-62387680D01*
X109057820Y-60261700D01*
X113788001Y-60261700D01*
X113788001Y-62387680D01*
G04 #@! TA.AperFunction,Conductor*
D22*
G36*
X113788001Y-62387680D02*
G01*
X109057820Y-62387680D01*
X109057820Y-60261700D01*
X113788001Y-60261700D01*
X113788001Y-62387680D01*
G37*
G04 #@! TD.AperFunction*
D27*
X113788001Y-69913700D02*
X111524160Y-69913700D01*
X111524160Y-65395040D01*
X113788001Y-65395040D01*
X113788001Y-69913700D01*
G04 #@! TA.AperFunction,Conductor*
D22*
G36*
X113788001Y-69913700D02*
G01*
X111524160Y-69913700D01*
X111524160Y-65395040D01*
X113788001Y-65395040D01*
X113788001Y-69913700D01*
G37*
G04 #@! TD.AperFunction*
M02*
