M48
; DRILL file {KiCad (5.1.10)-1} date 07/31/21 08:12:39
; FORMAT={-:-/ absolute / metric / decimal}
; #@! TF.CreationDate,2021-07-31T08:12:39+01:00
; #@! TF.GenerationSoftware,Kicad,Pcbnew,(5.1.10)-1
; #@! TF.FileFunction,Plated,1,2,PTH
FMAT,2
METRIC
T1C0.200
T2C0.350
T3C0.600
T4C1.000
%
G90
G05
T1
X102.891Y-64.973
X103.391Y-64.973
X103.894Y-64.973
X104.402Y-64.973
T2
X96.249Y-73.051
X96.307Y-60.295
X96.396Y-83.968
X96.503Y-69.368
X96.625Y-65.542
X96.64Y-80.577
X96.779Y-82.616
X97.061Y-92.202
X97.745Y-82.626
X98.23Y-90.962
X98.672Y-67.376
X98.931Y-71.191
X99.424Y-89.662
X99.906Y-93.553
X100.173Y-85.497
X100.262Y-78.435
X100.805Y-71.193
X101.354Y-91.186
X101.379Y-74.384
X101.491Y-67.955
X103.041Y-88.108
X103.645Y-81.88
X105.062Y-86.538
X106.002Y-87.071
X107.196Y-78.283
X107.313Y-105.639
X107.463Y-85.281
X108.338Y-79.018
X108.339Y-78.054
X109.253Y-79.985
X109.482Y-69.698
X110.269Y-72.822
X110.422Y-104.013
X110.625Y-96.317
X110.752Y-91.44
X110.752Y-94.158
T4
X93.04Y-91.745
X93.05Y-58.725
X93.05Y-61.255
X93.05Y-63.805
X93.05Y-66.335
X93.05Y-68.885
X93.05Y-71.425
X93.05Y-73.965
X93.05Y-76.505
X93.05Y-81.585
X93.05Y-84.125
X93.05Y-86.665
X93.05Y-89.205
X93.05Y-94.285
X93.05Y-96.825
X93.05Y-99.365
X93.05Y-101.905
X93.05Y-104.445
X93.05Y-106.985
X93.06Y-79.045
X94.75Y-58.725
X94.75Y-61.265
X94.75Y-63.805
X94.75Y-66.345
X94.75Y-68.885
X94.75Y-71.425
X94.75Y-73.965
X94.75Y-76.505
X94.75Y-79.045
X94.75Y-81.585
X94.75Y-84.125
X94.75Y-86.665
X94.75Y-89.205
X94.75Y-91.745
X94.75Y-94.285
X94.75Y-96.825
X94.75Y-99.365
X94.75Y-101.905
X94.75Y-104.445
X94.75Y-106.985
X112.55Y-58.725
X112.55Y-61.265
X112.55Y-63.805
X112.55Y-66.345
X112.55Y-68.885
X112.55Y-71.425
X112.55Y-73.965
X112.55Y-76.505
X112.55Y-79.045
X112.55Y-81.585
X112.55Y-84.125
X112.55Y-86.665
X112.55Y-89.205
X112.55Y-91.745
X112.55Y-94.285
X112.55Y-96.825
X112.55Y-99.365
X112.55Y-101.905
X112.55Y-104.445
X112.55Y-106.985
X114.25Y-58.725
X114.25Y-61.265
X114.25Y-63.805
X114.25Y-66.345
X114.25Y-68.885
X114.25Y-71.425
X114.25Y-73.965
X114.25Y-76.505
X114.25Y-79.045
X114.25Y-81.585
X114.25Y-84.125
X114.25Y-86.665
X114.25Y-89.205
X114.25Y-91.745
X114.25Y-94.285
X114.25Y-96.825
X114.25Y-99.365
X114.25Y-101.905
X114.25Y-104.445
X114.25Y-106.985
T3
X99.32Y-60.177G85X99.32Y-59.577
G05
X99.32Y-64.607G85X99.32Y-63.507
G05
X107.96Y-60.177G85X107.96Y-59.577
G05
X107.96Y-64.607G85X107.96Y-63.507
G05
T0
M30
